<?xml version="1.0" encoding="utf-8" standalone="no"?>
<!DOCTYPE svg PUBLIC "-//W3C//DTD SVG 1.1//EN"
  "http://www.w3.org/Graphics/SVG/1.1/DTD/svg11.dtd">
<!-- Created with matplotlib (https://matplotlib.org/) -->
<svg height="289.37625pt" version="1.1" viewBox="0 0 392.14375 289.37625" width="392.14375pt" xmlns="http://www.w3.org/2000/svg" xmlns:xlink="http://www.w3.org/1999/xlink">
 <metadata>
  <rdf:RDF xmlns:cc="http://creativecommons.org/ns#" xmlns:dc="http://purl.org/dc/elements/1.1/" xmlns:rdf="http://www.w3.org/1999/02/22-rdf-syntax-ns#">
   <cc:Work>
    <dc:type rdf:resource="http://purl.org/dc/dcmitype/StillImage"/>
    <dc:date>2022-01-22T19:35:05.409399</dc:date>
    <dc:format>image/svg+xml</dc:format>
    <dc:creator>
     <cc:Agent>
      <dc:title>Matplotlib v3.3.3, https://matplotlib.org/</dc:title>
     </cc:Agent>
    </dc:creator>
   </cc:Work>
  </rdf:RDF>
 </metadata>
 <defs>
  <style type="text/css">*{stroke-linecap:butt;stroke-linejoin:round;}</style>
 </defs>
 <g id="figure_1">
  <g id="patch_1">
   <path d="M 0 289.37625 
L 392.14375 289.37625 
L 392.14375 0 
L 0 0 
z
" style="fill:none;"/>
  </g>
  <g id="axes_1">
   <g id="patch_2">
    <path d="M 50.14375 251.82 
L 384.94375 251.82 
L 384.94375 7.2 
L 50.14375 7.2 
z
" style="fill:#ffffff;"/>
   </g>
   <g id="matplotlib.axis_1">
    <g id="xtick_1">
     <g id="line2d_1">
      <defs>
       <path d="M 0 0 
L 0 3.5 
" id="mcd454763b4" style="stroke:#000000;stroke-width:0.8;"/>
      </defs>
      <g>
       <use style="stroke:#000000;stroke-width:0.8;" x="65.361932" xlink:href="#mcd454763b4" y="251.82"/>
      </g>
     </g>
     <g id="text_1">
      <!-- 0 -->
      <g transform="translate(62.180682 266.418437)scale(0.1 -0.1)">
       <defs>
        <path d="M 31.78125 66.40625 
Q 24.171875 66.40625 20.328125 58.90625 
Q 16.5 51.421875 16.5 36.375 
Q 16.5 21.390625 20.328125 13.890625 
Q 24.171875 6.390625 31.78125 6.390625 
Q 39.453125 6.390625 43.28125 13.890625 
Q 47.125 21.390625 47.125 36.375 
Q 47.125 51.421875 43.28125 58.90625 
Q 39.453125 66.40625 31.78125 66.40625 
z
M 31.78125 74.21875 
Q 44.046875 74.21875 50.515625 64.515625 
Q 56.984375 54.828125 56.984375 36.375 
Q 56.984375 17.96875 50.515625 8.265625 
Q 44.046875 -1.421875 31.78125 -1.421875 
Q 19.53125 -1.421875 13.0625 8.265625 
Q 6.59375 17.96875 6.59375 36.375 
Q 6.59375 54.828125 13.0625 64.515625 
Q 19.53125 74.21875 31.78125 74.21875 
z
" id="DejaVuSans-48"/>
       </defs>
       <use xlink:href="#DejaVuSans-48"/>
      </g>
     </g>
    </g>
    <g id="xtick_2">
     <g id="line2d_2">
      <g>
       <use style="stroke:#000000;stroke-width:0.8;" x="126.356649" xlink:href="#mcd454763b4" y="251.82"/>
      </g>
     </g>
     <g id="text_2">
      <!-- 100 -->
      <g transform="translate(116.812899 266.418437)scale(0.1 -0.1)">
       <defs>
        <path d="M 12.40625 8.296875 
L 28.515625 8.296875 
L 28.515625 63.921875 
L 10.984375 60.40625 
L 10.984375 69.390625 
L 28.421875 72.90625 
L 38.28125 72.90625 
L 38.28125 8.296875 
L 54.390625 8.296875 
L 54.390625 0 
L 12.40625 0 
z
" id="DejaVuSans-49"/>
       </defs>
       <use xlink:href="#DejaVuSans-49"/>
       <use x="63.623047" xlink:href="#DejaVuSans-48"/>
       <use x="127.246094" xlink:href="#DejaVuSans-48"/>
      </g>
     </g>
    </g>
    <g id="xtick_3">
     <g id="line2d_3">
      <g>
       <use style="stroke:#000000;stroke-width:0.8;" x="187.351365" xlink:href="#mcd454763b4" y="251.82"/>
      </g>
     </g>
     <g id="text_3">
      <!-- 200 -->
      <g transform="translate(177.807615 266.418437)scale(0.1 -0.1)">
       <defs>
        <path d="M 19.1875 8.296875 
L 53.609375 8.296875 
L 53.609375 0 
L 7.328125 0 
L 7.328125 8.296875 
Q 12.9375 14.109375 22.625 23.890625 
Q 32.328125 33.6875 34.8125 36.53125 
Q 39.546875 41.84375 41.421875 45.53125 
Q 43.3125 49.21875 43.3125 52.78125 
Q 43.3125 58.59375 39.234375 62.25 
Q 35.15625 65.921875 28.609375 65.921875 
Q 23.96875 65.921875 18.8125 64.3125 
Q 13.671875 62.703125 7.8125 59.421875 
L 7.8125 69.390625 
Q 13.765625 71.78125 18.9375 73 
Q 24.125 74.21875 28.421875 74.21875 
Q 39.75 74.21875 46.484375 68.546875 
Q 53.21875 62.890625 53.21875 53.421875 
Q 53.21875 48.921875 51.53125 44.890625 
Q 49.859375 40.875 45.40625 35.40625 
Q 44.1875 33.984375 37.640625 27.21875 
Q 31.109375 20.453125 19.1875 8.296875 
z
" id="DejaVuSans-50"/>
       </defs>
       <use xlink:href="#DejaVuSans-50"/>
       <use x="63.623047" xlink:href="#DejaVuSans-48"/>
       <use x="127.246094" xlink:href="#DejaVuSans-48"/>
      </g>
     </g>
    </g>
    <g id="xtick_4">
     <g id="line2d_4">
      <g>
       <use style="stroke:#000000;stroke-width:0.8;" x="248.346082" xlink:href="#mcd454763b4" y="251.82"/>
      </g>
     </g>
     <g id="text_4">
      <!-- 300 -->
      <g transform="translate(238.802332 266.418437)scale(0.1 -0.1)">
       <defs>
        <path d="M 40.578125 39.3125 
Q 47.65625 37.796875 51.625 33 
Q 55.609375 28.21875 55.609375 21.1875 
Q 55.609375 10.40625 48.1875 4.484375 
Q 40.765625 -1.421875 27.09375 -1.421875 
Q 22.515625 -1.421875 17.65625 -0.515625 
Q 12.796875 0.390625 7.625 2.203125 
L 7.625 11.71875 
Q 11.71875 9.328125 16.59375 8.109375 
Q 21.484375 6.890625 26.8125 6.890625 
Q 36.078125 6.890625 40.9375 10.546875 
Q 45.796875 14.203125 45.796875 21.1875 
Q 45.796875 27.640625 41.28125 31.265625 
Q 36.765625 34.90625 28.71875 34.90625 
L 20.21875 34.90625 
L 20.21875 43.015625 
L 29.109375 43.015625 
Q 36.375 43.015625 40.234375 45.921875 
Q 44.09375 48.828125 44.09375 54.296875 
Q 44.09375 59.90625 40.109375 62.90625 
Q 36.140625 65.921875 28.71875 65.921875 
Q 24.65625 65.921875 20.015625 65.03125 
Q 15.375 64.15625 9.8125 62.3125 
L 9.8125 71.09375 
Q 15.4375 72.65625 20.34375 73.4375 
Q 25.25 74.21875 29.59375 74.21875 
Q 40.828125 74.21875 47.359375 69.109375 
Q 53.90625 64.015625 53.90625 55.328125 
Q 53.90625 49.265625 50.4375 45.09375 
Q 46.96875 40.921875 40.578125 39.3125 
z
" id="DejaVuSans-51"/>
       </defs>
       <use xlink:href="#DejaVuSans-51"/>
       <use x="63.623047" xlink:href="#DejaVuSans-48"/>
       <use x="127.246094" xlink:href="#DejaVuSans-48"/>
      </g>
     </g>
    </g>
    <g id="xtick_5">
     <g id="line2d_5">
      <g>
       <use style="stroke:#000000;stroke-width:0.8;" x="309.340799" xlink:href="#mcd454763b4" y="251.82"/>
      </g>
     </g>
     <g id="text_5">
      <!-- 400 -->
      <g transform="translate(299.797049 266.418437)scale(0.1 -0.1)">
       <defs>
        <path d="M 37.796875 64.3125 
L 12.890625 25.390625 
L 37.796875 25.390625 
z
M 35.203125 72.90625 
L 47.609375 72.90625 
L 47.609375 25.390625 
L 58.015625 25.390625 
L 58.015625 17.1875 
L 47.609375 17.1875 
L 47.609375 0 
L 37.796875 0 
L 37.796875 17.1875 
L 4.890625 17.1875 
L 4.890625 26.703125 
z
" id="DejaVuSans-52"/>
       </defs>
       <use xlink:href="#DejaVuSans-52"/>
       <use x="63.623047" xlink:href="#DejaVuSans-48"/>
       <use x="127.246094" xlink:href="#DejaVuSans-48"/>
      </g>
     </g>
    </g>
    <g id="xtick_6">
     <g id="line2d_6">
      <g>
       <use style="stroke:#000000;stroke-width:0.8;" x="370.335515" xlink:href="#mcd454763b4" y="251.82"/>
      </g>
     </g>
     <g id="text_6">
      <!-- 500 -->
      <g transform="translate(360.791765 266.418437)scale(0.1 -0.1)">
       <defs>
        <path d="M 10.796875 72.90625 
L 49.515625 72.90625 
L 49.515625 64.59375 
L 19.828125 64.59375 
L 19.828125 46.734375 
Q 21.96875 47.46875 24.109375 47.828125 
Q 26.265625 48.1875 28.421875 48.1875 
Q 40.625 48.1875 47.75 41.5 
Q 54.890625 34.8125 54.890625 23.390625 
Q 54.890625 11.625 47.5625 5.09375 
Q 40.234375 -1.421875 26.90625 -1.421875 
Q 22.3125 -1.421875 17.546875 -0.640625 
Q 12.796875 0.140625 7.71875 1.703125 
L 7.71875 11.625 
Q 12.109375 9.234375 16.796875 8.0625 
Q 21.484375 6.890625 26.703125 6.890625 
Q 35.15625 6.890625 40.078125 11.328125 
Q 45.015625 15.765625 45.015625 23.390625 
Q 45.015625 31 40.078125 35.4375 
Q 35.15625 39.890625 26.703125 39.890625 
Q 22.75 39.890625 18.8125 39.015625 
Q 14.890625 38.140625 10.796875 36.28125 
z
" id="DejaVuSans-53"/>
       </defs>
       <use xlink:href="#DejaVuSans-53"/>
       <use x="63.623047" xlink:href="#DejaVuSans-48"/>
       <use x="127.246094" xlink:href="#DejaVuSans-48"/>
      </g>
     </g>
    </g>
    <g id="text_7">
     <!-- Groups of experiments -->
     <g transform="translate(160.397656 280.096562)scale(0.1 -0.1)">
      <defs>
       <path d="M 59.515625 10.40625 
L 59.515625 29.984375 
L 43.40625 29.984375 
L 43.40625 38.09375 
L 69.28125 38.09375 
L 69.28125 6.78125 
Q 63.578125 2.734375 56.6875 0.65625 
Q 49.8125 -1.421875 42 -1.421875 
Q 24.90625 -1.421875 15.25 8.5625 
Q 5.609375 18.5625 5.609375 36.375 
Q 5.609375 54.25 15.25 64.234375 
Q 24.90625 74.21875 42 74.21875 
Q 49.125 74.21875 55.546875 72.453125 
Q 61.96875 70.703125 67.390625 67.28125 
L 67.390625 56.78125 
Q 61.921875 61.421875 55.765625 63.765625 
Q 49.609375 66.109375 42.828125 66.109375 
Q 29.4375 66.109375 22.71875 58.640625 
Q 16.015625 51.171875 16.015625 36.375 
Q 16.015625 21.625 22.71875 14.15625 
Q 29.4375 6.6875 42.828125 6.6875 
Q 48.046875 6.6875 52.140625 7.59375 
Q 56.25 8.5 59.515625 10.40625 
z
" id="DejaVuSans-71"/>
       <path d="M 41.109375 46.296875 
Q 39.59375 47.171875 37.8125 47.578125 
Q 36.03125 48 33.890625 48 
Q 26.265625 48 22.1875 43.046875 
Q 18.109375 38.09375 18.109375 28.8125 
L 18.109375 0 
L 9.078125 0 
L 9.078125 54.6875 
L 18.109375 54.6875 
L 18.109375 46.1875 
Q 20.953125 51.171875 25.484375 53.578125 
Q 30.03125 56 36.53125 56 
Q 37.453125 56 38.578125 55.875 
Q 39.703125 55.765625 41.0625 55.515625 
z
" id="DejaVuSans-114"/>
       <path d="M 30.609375 48.390625 
Q 23.390625 48.390625 19.1875 42.75 
Q 14.984375 37.109375 14.984375 27.296875 
Q 14.984375 17.484375 19.15625 11.84375 
Q 23.34375 6.203125 30.609375 6.203125 
Q 37.796875 6.203125 41.984375 11.859375 
Q 46.1875 17.53125 46.1875 27.296875 
Q 46.1875 37.015625 41.984375 42.703125 
Q 37.796875 48.390625 30.609375 48.390625 
z
M 30.609375 56 
Q 42.328125 56 49.015625 48.375 
Q 55.71875 40.765625 55.71875 27.296875 
Q 55.71875 13.875 49.015625 6.21875 
Q 42.328125 -1.421875 30.609375 -1.421875 
Q 18.84375 -1.421875 12.171875 6.21875 
Q 5.515625 13.875 5.515625 27.296875 
Q 5.515625 40.765625 12.171875 48.375 
Q 18.84375 56 30.609375 56 
z
" id="DejaVuSans-111"/>
       <path d="M 8.5 21.578125 
L 8.5 54.6875 
L 17.484375 54.6875 
L 17.484375 21.921875 
Q 17.484375 14.15625 20.5 10.265625 
Q 23.53125 6.390625 29.59375 6.390625 
Q 36.859375 6.390625 41.078125 11.03125 
Q 45.3125 15.671875 45.3125 23.6875 
L 45.3125 54.6875 
L 54.296875 54.6875 
L 54.296875 0 
L 45.3125 0 
L 45.3125 8.40625 
Q 42.046875 3.421875 37.71875 1 
Q 33.40625 -1.421875 27.6875 -1.421875 
Q 18.265625 -1.421875 13.375 4.4375 
Q 8.5 10.296875 8.5 21.578125 
z
M 31.109375 56 
z
" id="DejaVuSans-117"/>
       <path d="M 18.109375 8.203125 
L 18.109375 -20.796875 
L 9.078125 -20.796875 
L 9.078125 54.6875 
L 18.109375 54.6875 
L 18.109375 46.390625 
Q 20.953125 51.265625 25.265625 53.625 
Q 29.59375 56 35.59375 56 
Q 45.5625 56 51.78125 48.09375 
Q 58.015625 40.1875 58.015625 27.296875 
Q 58.015625 14.40625 51.78125 6.484375 
Q 45.5625 -1.421875 35.59375 -1.421875 
Q 29.59375 -1.421875 25.265625 0.953125 
Q 20.953125 3.328125 18.109375 8.203125 
z
M 48.6875 27.296875 
Q 48.6875 37.203125 44.609375 42.84375 
Q 40.53125 48.484375 33.40625 48.484375 
Q 26.265625 48.484375 22.1875 42.84375 
Q 18.109375 37.203125 18.109375 27.296875 
Q 18.109375 17.390625 22.1875 11.75 
Q 26.265625 6.109375 33.40625 6.109375 
Q 40.53125 6.109375 44.609375 11.75 
Q 48.6875 17.390625 48.6875 27.296875 
z
" id="DejaVuSans-112"/>
       <path d="M 44.28125 53.078125 
L 44.28125 44.578125 
Q 40.484375 46.53125 36.375 47.5 
Q 32.28125 48.484375 27.875 48.484375 
Q 21.1875 48.484375 17.84375 46.4375 
Q 14.5 44.390625 14.5 40.28125 
Q 14.5 37.15625 16.890625 35.375 
Q 19.28125 33.59375 26.515625 31.984375 
L 29.59375 31.296875 
Q 39.15625 29.25 43.1875 25.515625 
Q 47.21875 21.78125 47.21875 15.09375 
Q 47.21875 7.46875 41.1875 3.015625 
Q 35.15625 -1.421875 24.609375 -1.421875 
Q 20.21875 -1.421875 15.453125 -0.5625 
Q 10.6875 0.296875 5.421875 2 
L 5.421875 11.28125 
Q 10.40625 8.6875 15.234375 7.390625 
Q 20.0625 6.109375 24.8125 6.109375 
Q 31.15625 6.109375 34.5625 8.28125 
Q 37.984375 10.453125 37.984375 14.40625 
Q 37.984375 18.0625 35.515625 20.015625 
Q 33.0625 21.96875 24.703125 23.78125 
L 21.578125 24.515625 
Q 13.234375 26.265625 9.515625 29.90625 
Q 5.8125 33.546875 5.8125 39.890625 
Q 5.8125 47.609375 11.28125 51.796875 
Q 16.75 56 26.8125 56 
Q 31.78125 56 36.171875 55.265625 
Q 40.578125 54.546875 44.28125 53.078125 
z
" id="DejaVuSans-115"/>
       <path id="DejaVuSans-32"/>
       <path d="M 37.109375 75.984375 
L 37.109375 68.5 
L 28.515625 68.5 
Q 23.6875 68.5 21.796875 66.546875 
Q 19.921875 64.59375 19.921875 59.515625 
L 19.921875 54.6875 
L 34.71875 54.6875 
L 34.71875 47.703125 
L 19.921875 47.703125 
L 19.921875 0 
L 10.890625 0 
L 10.890625 47.703125 
L 2.296875 47.703125 
L 2.296875 54.6875 
L 10.890625 54.6875 
L 10.890625 58.5 
Q 10.890625 67.625 15.140625 71.796875 
Q 19.390625 75.984375 28.609375 75.984375 
z
" id="DejaVuSans-102"/>
       <path d="M 56.203125 29.59375 
L 56.203125 25.203125 
L 14.890625 25.203125 
Q 15.484375 15.921875 20.484375 11.0625 
Q 25.484375 6.203125 34.421875 6.203125 
Q 39.59375 6.203125 44.453125 7.46875 
Q 49.3125 8.734375 54.109375 11.28125 
L 54.109375 2.78125 
Q 49.265625 0.734375 44.1875 -0.34375 
Q 39.109375 -1.421875 33.890625 -1.421875 
Q 20.796875 -1.421875 13.15625 6.1875 
Q 5.515625 13.8125 5.515625 26.8125 
Q 5.515625 40.234375 12.765625 48.109375 
Q 20.015625 56 32.328125 56 
Q 43.359375 56 49.78125 48.890625 
Q 56.203125 41.796875 56.203125 29.59375 
z
M 47.21875 32.234375 
Q 47.125 39.59375 43.09375 43.984375 
Q 39.0625 48.390625 32.421875 48.390625 
Q 24.90625 48.390625 20.390625 44.140625 
Q 15.875 39.890625 15.1875 32.171875 
z
" id="DejaVuSans-101"/>
       <path d="M 54.890625 54.6875 
L 35.109375 28.078125 
L 55.90625 0 
L 45.3125 0 
L 29.390625 21.484375 
L 13.484375 0 
L 2.875 0 
L 24.125 28.609375 
L 4.6875 54.6875 
L 15.28125 54.6875 
L 29.78125 35.203125 
L 44.28125 54.6875 
z
" id="DejaVuSans-120"/>
       <path d="M 9.421875 54.6875 
L 18.40625 54.6875 
L 18.40625 0 
L 9.421875 0 
z
M 9.421875 75.984375 
L 18.40625 75.984375 
L 18.40625 64.59375 
L 9.421875 64.59375 
z
" id="DejaVuSans-105"/>
       <path d="M 52 44.1875 
Q 55.375 50.25 60.0625 53.125 
Q 64.75 56 71.09375 56 
Q 79.640625 56 84.28125 50.015625 
Q 88.921875 44.046875 88.921875 33.015625 
L 88.921875 0 
L 79.890625 0 
L 79.890625 32.71875 
Q 79.890625 40.578125 77.09375 44.375 
Q 74.3125 48.1875 68.609375 48.1875 
Q 61.625 48.1875 57.5625 43.546875 
Q 53.515625 38.921875 53.515625 30.90625 
L 53.515625 0 
L 44.484375 0 
L 44.484375 32.71875 
Q 44.484375 40.625 41.703125 44.40625 
Q 38.921875 48.1875 33.109375 48.1875 
Q 26.21875 48.1875 22.15625 43.53125 
Q 18.109375 38.875 18.109375 30.90625 
L 18.109375 0 
L 9.078125 0 
L 9.078125 54.6875 
L 18.109375 54.6875 
L 18.109375 46.1875 
Q 21.1875 51.21875 25.484375 53.609375 
Q 29.78125 56 35.6875 56 
Q 41.65625 56 45.828125 52.96875 
Q 50 49.953125 52 44.1875 
z
" id="DejaVuSans-109"/>
       <path d="M 54.890625 33.015625 
L 54.890625 0 
L 45.90625 0 
L 45.90625 32.71875 
Q 45.90625 40.484375 42.875 44.328125 
Q 39.84375 48.1875 33.796875 48.1875 
Q 26.515625 48.1875 22.3125 43.546875 
Q 18.109375 38.921875 18.109375 30.90625 
L 18.109375 0 
L 9.078125 0 
L 9.078125 54.6875 
L 18.109375 54.6875 
L 18.109375 46.1875 
Q 21.34375 51.125 25.703125 53.5625 
Q 30.078125 56 35.796875 56 
Q 45.21875 56 50.046875 50.171875 
Q 54.890625 44.34375 54.890625 33.015625 
z
" id="DejaVuSans-110"/>
       <path d="M 18.3125 70.21875 
L 18.3125 54.6875 
L 36.8125 54.6875 
L 36.8125 47.703125 
L 18.3125 47.703125 
L 18.3125 18.015625 
Q 18.3125 11.328125 20.140625 9.421875 
Q 21.96875 7.515625 27.59375 7.515625 
L 36.8125 7.515625 
L 36.8125 0 
L 27.59375 0 
Q 17.1875 0 13.234375 3.875 
Q 9.28125 7.765625 9.28125 18.015625 
L 9.28125 47.703125 
L 2.6875 47.703125 
L 2.6875 54.6875 
L 9.28125 54.6875 
L 9.28125 70.21875 
z
" id="DejaVuSans-116"/>
      </defs>
      <use xlink:href="#DejaVuSans-71"/>
      <use x="77.490234" xlink:href="#DejaVuSans-114"/>
      <use x="116.353516" xlink:href="#DejaVuSans-111"/>
      <use x="177.535156" xlink:href="#DejaVuSans-117"/>
      <use x="240.914062" xlink:href="#DejaVuSans-112"/>
      <use x="304.390625" xlink:href="#DejaVuSans-115"/>
      <use x="356.490234" xlink:href="#DejaVuSans-32"/>
      <use x="388.277344" xlink:href="#DejaVuSans-111"/>
      <use x="449.458984" xlink:href="#DejaVuSans-102"/>
      <use x="484.664062" xlink:href="#DejaVuSans-32"/>
      <use x="516.451172" xlink:href="#DejaVuSans-101"/>
      <use x="576.224609" xlink:href="#DejaVuSans-120"/>
      <use x="635.404297" xlink:href="#DejaVuSans-112"/>
      <use x="698.880859" xlink:href="#DejaVuSans-101"/>
      <use x="760.404297" xlink:href="#DejaVuSans-114"/>
      <use x="801.517578" xlink:href="#DejaVuSans-105"/>
      <use x="829.300781" xlink:href="#DejaVuSans-109"/>
      <use x="926.712891" xlink:href="#DejaVuSans-101"/>
      <use x="988.236328" xlink:href="#DejaVuSans-110"/>
      <use x="1051.615234" xlink:href="#DejaVuSans-116"/>
      <use x="1090.824219" xlink:href="#DejaVuSans-115"/>
     </g>
    </g>
   </g>
   <g id="matplotlib.axis_2">
    <g id="ytick_1">
     <g id="line2d_7">
      <defs>
       <path d="M 0 0 
L -3.5 0 
" id="m5ec4205015" style="stroke:#000000;stroke-width:0.8;"/>
      </defs>
      <g>
       <use style="stroke:#000000;stroke-width:0.8;" x="50.14375" xlink:href="#m5ec4205015" y="240.700909"/>
      </g>
     </g>
     <g id="text_8">
      <!-- 0.00 -->
      <g transform="translate(20.878125 244.500128)scale(0.1 -0.1)">
       <defs>
        <path d="M 10.6875 12.40625 
L 21 12.40625 
L 21 0 
L 10.6875 0 
z
" id="DejaVuSans-46"/>
       </defs>
       <use xlink:href="#DejaVuSans-48"/>
       <use x="63.623047" xlink:href="#DejaVuSans-46"/>
       <use x="95.410156" xlink:href="#DejaVuSans-48"/>
       <use x="159.033203" xlink:href="#DejaVuSans-48"/>
      </g>
     </g>
    </g>
    <g id="ytick_2">
     <g id="line2d_8">
      <g>
       <use style="stroke:#000000;stroke-width:0.8;" x="50.14375" xlink:href="#m5ec4205015" y="212.903182"/>
      </g>
     </g>
     <g id="text_9">
      <!-- 0.05 -->
      <g transform="translate(20.878125 216.702401)scale(0.1 -0.1)">
       <use xlink:href="#DejaVuSans-48"/>
       <use x="63.623047" xlink:href="#DejaVuSans-46"/>
       <use x="95.410156" xlink:href="#DejaVuSans-48"/>
       <use x="159.033203" xlink:href="#DejaVuSans-53"/>
      </g>
     </g>
    </g>
    <g id="ytick_3">
     <g id="line2d_9">
      <g>
       <use style="stroke:#000000;stroke-width:0.8;" x="50.14375" xlink:href="#m5ec4205015" y="185.105455"/>
      </g>
     </g>
     <g id="text_10">
      <!-- 0.10 -->
      <g transform="translate(20.878125 188.904674)scale(0.1 -0.1)">
       <use xlink:href="#DejaVuSans-48"/>
       <use x="63.623047" xlink:href="#DejaVuSans-46"/>
       <use x="95.410156" xlink:href="#DejaVuSans-49"/>
       <use x="159.033203" xlink:href="#DejaVuSans-48"/>
      </g>
     </g>
    </g>
    <g id="ytick_4">
     <g id="line2d_10">
      <g>
       <use style="stroke:#000000;stroke-width:0.8;" x="50.14375" xlink:href="#m5ec4205015" y="157.307729"/>
      </g>
     </g>
     <g id="text_11">
      <!-- 0.15 -->
      <g transform="translate(20.878125 161.106947)scale(0.1 -0.1)">
       <use xlink:href="#DejaVuSans-48"/>
       <use x="63.623047" xlink:href="#DejaVuSans-46"/>
       <use x="95.410156" xlink:href="#DejaVuSans-49"/>
       <use x="159.033203" xlink:href="#DejaVuSans-53"/>
      </g>
     </g>
    </g>
    <g id="ytick_5">
     <g id="line2d_11">
      <g>
       <use style="stroke:#000000;stroke-width:0.8;" x="50.14375" xlink:href="#m5ec4205015" y="129.510002"/>
      </g>
     </g>
     <g id="text_12">
      <!-- 0.20 -->
      <g transform="translate(20.878125 133.30922)scale(0.1 -0.1)">
       <use xlink:href="#DejaVuSans-48"/>
       <use x="63.623047" xlink:href="#DejaVuSans-46"/>
       <use x="95.410156" xlink:href="#DejaVuSans-50"/>
       <use x="159.033203" xlink:href="#DejaVuSans-48"/>
      </g>
     </g>
    </g>
    <g id="ytick_6">
     <g id="line2d_12">
      <g>
       <use style="stroke:#000000;stroke-width:0.8;" x="50.14375" xlink:href="#m5ec4205015" y="101.712275"/>
      </g>
     </g>
     <g id="text_13">
      <!-- 0.25 -->
      <g transform="translate(20.878125 105.511494)scale(0.1 -0.1)">
       <use xlink:href="#DejaVuSans-48"/>
       <use x="63.623047" xlink:href="#DejaVuSans-46"/>
       <use x="95.410156" xlink:href="#DejaVuSans-50"/>
       <use x="159.033203" xlink:href="#DejaVuSans-53"/>
      </g>
     </g>
    </g>
    <g id="ytick_7">
     <g id="line2d_13">
      <g>
       <use style="stroke:#000000;stroke-width:0.8;" x="50.14375" xlink:href="#m5ec4205015" y="73.914548"/>
      </g>
     </g>
     <g id="text_14">
      <!-- 0.30 -->
      <g transform="translate(20.878125 77.713767)scale(0.1 -0.1)">
       <use xlink:href="#DejaVuSans-48"/>
       <use x="63.623047" xlink:href="#DejaVuSans-46"/>
       <use x="95.410156" xlink:href="#DejaVuSans-51"/>
       <use x="159.033203" xlink:href="#DejaVuSans-48"/>
      </g>
     </g>
    </g>
    <g id="ytick_8">
     <g id="line2d_14">
      <g>
       <use style="stroke:#000000;stroke-width:0.8;" x="50.14375" xlink:href="#m5ec4205015" y="46.116821"/>
      </g>
     </g>
     <g id="text_15">
      <!-- 0.35 -->
      <g transform="translate(20.878125 49.91604)scale(0.1 -0.1)">
       <use xlink:href="#DejaVuSans-48"/>
       <use x="63.623047" xlink:href="#DejaVuSans-46"/>
       <use x="95.410156" xlink:href="#DejaVuSans-51"/>
       <use x="159.033203" xlink:href="#DejaVuSans-53"/>
      </g>
     </g>
    </g>
    <g id="ytick_9">
     <g id="line2d_15">
      <g>
       <use style="stroke:#000000;stroke-width:0.8;" x="50.14375" xlink:href="#m5ec4205015" y="18.319094"/>
      </g>
     </g>
     <g id="text_16">
      <!-- 0.40 -->
      <g transform="translate(20.878125 22.118313)scale(0.1 -0.1)">
       <use xlink:href="#DejaVuSans-48"/>
       <use x="63.623047" xlink:href="#DejaVuSans-46"/>
       <use x="95.410156" xlink:href="#DejaVuSans-52"/>
       <use x="159.033203" xlink:href="#DejaVuSans-48"/>
      </g>
     </g>
    </g>
    <g id="text_17">
     <!-- Estimated probability -->
     <g transform="translate(14.798438 183.033437)rotate(-90)scale(0.1 -0.1)">
      <defs>
       <path d="M 9.8125 72.90625 
L 55.90625 72.90625 
L 55.90625 64.59375 
L 19.671875 64.59375 
L 19.671875 43.015625 
L 54.390625 43.015625 
L 54.390625 34.71875 
L 19.671875 34.71875 
L 19.671875 8.296875 
L 56.78125 8.296875 
L 56.78125 0 
L 9.8125 0 
z
" id="DejaVuSans-69"/>
       <path d="M 34.28125 27.484375 
Q 23.390625 27.484375 19.1875 25 
Q 14.984375 22.515625 14.984375 16.5 
Q 14.984375 11.71875 18.140625 8.90625 
Q 21.296875 6.109375 26.703125 6.109375 
Q 34.1875 6.109375 38.703125 11.40625 
Q 43.21875 16.703125 43.21875 25.484375 
L 43.21875 27.484375 
z
M 52.203125 31.203125 
L 52.203125 0 
L 43.21875 0 
L 43.21875 8.296875 
Q 40.140625 3.328125 35.546875 0.953125 
Q 30.953125 -1.421875 24.3125 -1.421875 
Q 15.921875 -1.421875 10.953125 3.296875 
Q 6 8.015625 6 15.921875 
Q 6 25.140625 12.171875 29.828125 
Q 18.359375 34.515625 30.609375 34.515625 
L 43.21875 34.515625 
L 43.21875 35.40625 
Q 43.21875 41.609375 39.140625 45 
Q 35.0625 48.390625 27.6875 48.390625 
Q 23 48.390625 18.546875 47.265625 
Q 14.109375 46.140625 10.015625 43.890625 
L 10.015625 52.203125 
Q 14.9375 54.109375 19.578125 55.046875 
Q 24.21875 56 28.609375 56 
Q 40.484375 56 46.34375 49.84375 
Q 52.203125 43.703125 52.203125 31.203125 
z
" id="DejaVuSans-97"/>
       <path d="M 45.40625 46.390625 
L 45.40625 75.984375 
L 54.390625 75.984375 
L 54.390625 0 
L 45.40625 0 
L 45.40625 8.203125 
Q 42.578125 3.328125 38.25 0.953125 
Q 33.9375 -1.421875 27.875 -1.421875 
Q 17.96875 -1.421875 11.734375 6.484375 
Q 5.515625 14.40625 5.515625 27.296875 
Q 5.515625 40.1875 11.734375 48.09375 
Q 17.96875 56 27.875 56 
Q 33.9375 56 38.25 53.625 
Q 42.578125 51.265625 45.40625 46.390625 
z
M 14.796875 27.296875 
Q 14.796875 17.390625 18.875 11.75 
Q 22.953125 6.109375 30.078125 6.109375 
Q 37.203125 6.109375 41.296875 11.75 
Q 45.40625 17.390625 45.40625 27.296875 
Q 45.40625 37.203125 41.296875 42.84375 
Q 37.203125 48.484375 30.078125 48.484375 
Q 22.953125 48.484375 18.875 42.84375 
Q 14.796875 37.203125 14.796875 27.296875 
z
" id="DejaVuSans-100"/>
       <path d="M 48.6875 27.296875 
Q 48.6875 37.203125 44.609375 42.84375 
Q 40.53125 48.484375 33.40625 48.484375 
Q 26.265625 48.484375 22.1875 42.84375 
Q 18.109375 37.203125 18.109375 27.296875 
Q 18.109375 17.390625 22.1875 11.75 
Q 26.265625 6.109375 33.40625 6.109375 
Q 40.53125 6.109375 44.609375 11.75 
Q 48.6875 17.390625 48.6875 27.296875 
z
M 18.109375 46.390625 
Q 20.953125 51.265625 25.265625 53.625 
Q 29.59375 56 35.59375 56 
Q 45.5625 56 51.78125 48.09375 
Q 58.015625 40.1875 58.015625 27.296875 
Q 58.015625 14.40625 51.78125 6.484375 
Q 45.5625 -1.421875 35.59375 -1.421875 
Q 29.59375 -1.421875 25.265625 0.953125 
Q 20.953125 3.328125 18.109375 8.203125 
L 18.109375 0 
L 9.078125 0 
L 9.078125 75.984375 
L 18.109375 75.984375 
z
" id="DejaVuSans-98"/>
       <path d="M 9.421875 75.984375 
L 18.40625 75.984375 
L 18.40625 0 
L 9.421875 0 
z
" id="DejaVuSans-108"/>
       <path d="M 32.171875 -5.078125 
Q 28.375 -14.84375 24.75 -17.8125 
Q 21.140625 -20.796875 15.09375 -20.796875 
L 7.90625 -20.796875 
L 7.90625 -13.28125 
L 13.1875 -13.28125 
Q 16.890625 -13.28125 18.9375 -11.515625 
Q 21 -9.765625 23.484375 -3.21875 
L 25.09375 0.875 
L 2.984375 54.6875 
L 12.5 54.6875 
L 29.59375 11.921875 
L 46.6875 54.6875 
L 56.203125 54.6875 
z
" id="DejaVuSans-121"/>
      </defs>
      <use xlink:href="#DejaVuSans-69"/>
      <use x="63.183594" xlink:href="#DejaVuSans-115"/>
      <use x="115.283203" xlink:href="#DejaVuSans-116"/>
      <use x="154.492188" xlink:href="#DejaVuSans-105"/>
      <use x="182.275391" xlink:href="#DejaVuSans-109"/>
      <use x="279.6875" xlink:href="#DejaVuSans-97"/>
      <use x="340.966797" xlink:href="#DejaVuSans-116"/>
      <use x="380.175781" xlink:href="#DejaVuSans-101"/>
      <use x="441.699219" xlink:href="#DejaVuSans-100"/>
      <use x="505.175781" xlink:href="#DejaVuSans-32"/>
      <use x="536.962891" xlink:href="#DejaVuSans-112"/>
      <use x="600.439453" xlink:href="#DejaVuSans-114"/>
      <use x="639.302734" xlink:href="#DejaVuSans-111"/>
      <use x="700.484375" xlink:href="#DejaVuSans-98"/>
      <use x="763.960938" xlink:href="#DejaVuSans-97"/>
      <use x="825.240234" xlink:href="#DejaVuSans-98"/>
      <use x="888.716797" xlink:href="#DejaVuSans-105"/>
      <use x="916.5" xlink:href="#DejaVuSans-108"/>
      <use x="944.283203" xlink:href="#DejaVuSans-105"/>
      <use x="972.066406" xlink:href="#DejaVuSans-116"/>
      <use x="1011.275391" xlink:href="#DejaVuSans-121"/>
     </g>
    </g>
   </g>
   <g id="line2d_16">
    <path clip-path="url(#p6edf36f10c)" d="M 65.361932 240.700909 
L 66.581826 185.105455 
L 67.191773 185.105455 
L 68.411668 138.775908 
L 69.021615 137.452207 
L 69.631562 143.408867 
L 70.241509 135.687272 
L 71.461403 144.672399 
L 72.681298 142.339719 
L 73.291245 145.394414 
L 74.511139 143.408867 
L 75.121086 142.591282 
L 75.731034 135.687272 
L 76.340981 135.362152 
L 76.950928 132.289778 
L 77.560875 137.452207 
L 78.170822 139.618263 
L 80.000664 138.405274 
L 80.610611 138.063146 
L 81.220558 135.687272 
L 82.440452 139.095428 
L 83.0504 140.629088 
L 83.660347 138.477008 
L 84.270294 134.722077 
L 84.880241 134.564136 
L 86.710083 138.775908 
L 87.32003 141.530643 
L 88.539924 140.914195 
L 89.149871 139.239203 
L 89.759819 139.001906 
L 90.979713 135.974591 
L 91.58966 132.037064 
L 92.199607 129.51 
L 94.029449 129.51 
L 94.639396 127.240796 
L 95.249343 126.174274 
L 95.85929 126.239679 
L 97.079185 128.461033 
L 97.689132 128.48046 
L 98.909026 126.53167 
L 99.518973 126.583928 
L 100.12892 125.675829 
L 100.738868 125.74082 
L 101.958762 127.687199 
L 102.568709 127.7166 
L 103.178656 126.862598 
L 103.788603 126.903961 
L 104.398551 127.799369 
L 105.008498 127.825291 
L 105.618445 128.680221 
L 106.228392 128.692424 
L 106.838339 127.898541 
L 107.448286 128.715778 
L 108.058234 127.943931 
L 108.668181 127.965686 
L 110.498022 130.251277 
L 111.107969 130.241518 
L 111.717917 131.676056 
L 112.937811 133.028703 
L 113.547758 131.594828 
L 114.767652 130.187993 
L 115.987547 131.495556 
L 117.817388 131.427086 
L 118.427335 130.141766 
L 120.867124 132.531491 
L 121.477071 132.499008 
L 122.087018 131.284321 
L 122.696966 130.680432 
L 124.526807 130.644602 
L 125.136754 130.071572 
L 125.746701 130.621911 
L 126.356649 130.060455 
L 126.966596 131.14516 
L 128.796437 132.686881 
L 129.406384 132.132425 
L 130.016332 132.627507 
L 130.626279 132.598636 
L 131.236226 132.060252 
L 132.45612 132.014298 
L 133.066067 131.495556 
L 133.676015 130.493992 
L 134.895909 132.410631 
L 135.505856 131.427086 
L 136.115803 131.410699 
L 136.72575 130.923446 
L 137.335698 131.378755 
L 137.945645 130.899885 
L 138.555592 130.888403 
L 139.165539 130.421405 
L 139.775486 130.865985 
L 140.385433 130.85505 
L 140.995381 130.399526 
L 141.605328 130.833701 
L 142.215275 130.823279 
L 143.435169 132.526811 
L 144.045116 132.931262 
L 144.655064 132.905141 
L 145.265011 133.300604 
L 145.874958 134.108123 
L 147.094852 134.04 
L 148.314747 134.785486 
L 148.924694 135.552983 
L 149.534641 135.909476 
L 150.144588 136.657985 
L 150.754535 135.818704 
L 151.364482 134.208206 
L 151.97443 134.564136 
L 152.584377 134.529035 
L 153.194324 135.261257 
L 153.804271 135.221865 
L 157.463954 137.190951 
L 158.683848 137.091199 
L 159.293796 137.759648 
L 159.903743 136.994007 
L 161.123637 137.603008 
L 161.733584 138.251425 
L 163.563426 138.089548 
L 164.173373 137.695834 
L 164.78332 138.323913 
L 165.393267 138.607437 
L 166.613162 138.49849 
L 167.223109 138.775908 
L 167.833056 138.721082 
L 168.443003 139.320962 
L 169.05295 138.938473 
L 169.662897 139.206886 
L 170.272845 139.150834 
L 170.882792 138.775908 
L 171.492739 138.087585 
L 172.102686 138.038848 
L 172.712633 137.676564 
L 173.932528 137.58532 
L 175.152422 138.1104 
L 176.372316 139.231615 
L 176.982263 139.480925 
L 177.592211 139.427027 
L 178.202158 139.672608 
L 179.422052 138.97306 
L 180.031999 139.511303 
L 180.641946 139.751268 
L 181.251894 139.697652 
L 181.861841 139.934146 
L 182.471788 140.45626 
L 183.081735 140.399835 
L 185.521524 141.30298 
L 186.131471 140.405593 
L 187.351365 139.190806 
L 188.57126 139.095428 
L 189.181207 139.593493 
L 189.791154 139.273103 
L 190.401101 139.495596 
L 191.011048 139.178777 
L 192.230943 140.150277 
L 192.84089 140.364353 
L 193.450837 140.312907 
L 194.670731 140.733496 
L 195.890626 141.663425 
L 197.11052 141.551412 
L 198.330414 141.949169 
L 199.550309 141.836593 
L 200.160256 142.031499 
L 200.770203 141.975348 
L 201.38015 142.167893 
L 201.990097 141.617455 
L 202.600044 141.809884 
L 203.209992 141.755696 
L 204.429886 141.163198 
L 205.039833 141.354252 
L 206.869675 140.485926 
L 207.479622 139.726258 
L 208.089569 140.155943 
L 208.699516 140.110827 
L 209.309463 140.53526 
L 209.91941 140.722528 
L 211.749252 140.582953 
L 213.579093 141.81391 
L 214.798988 142.16588 
L 215.408935 141.664477 
L 216.628829 142.013398 
L 217.238776 141.963385 
L 217.848724 142.135261 
L 218.458671 141.643932 
L 219.068618 142.035459 
L 220.288512 142.373263 
L 220.898459 142.757359 
L 221.508407 142.273163 
L 222.118354 142.654666 
L 223.338248 142.553547 
L 223.948195 142.929591 
L 224.558142 142.666181 
L 225.16809 142.827544 
L 225.778037 142.566512 
L 226.997931 142.886355 
L 228.217825 142.786528 
L 228.827773 143.150519 
L 230.657614 143.613259 
L 231.267561 143.154305 
L 231.877508 143.510317 
L 232.487456 143.45941 
L 233.097403 143.207432 
L 233.70735 143.157983 
L 234.317297 142.908905 
L 234.927244 143.060145 
L 235.537191 142.614644 
L 237.367033 142.475724 
L 237.97698 142.821588 
L 238.586927 142.969953 
L 239.196874 143.311666 
L 240.416769 143.601901 
L 241.636663 143.504717 
L 242.856557 143.789658 
L 243.466505 144.120411 
L 244.686399 144.398277 
L 245.296346 144.160151 
L 245.906293 144.110826 
L 246.51624 143.875268 
L 247.126188 143.827227 
L 247.736135 143.59418 
L 248.346082 143.732098 
L 249.565976 143.638219 
L 250.175923 143.957507 
L 250.785871 144.092418 
L 251.395818 144.044758 
L 252.005765 143.635229 
L 252.615712 143.589367 
L 253.225659 143.723722 
L 253.835606 143.677877 
L 254.445554 143.453553 
L 255.055501 143.408867 
L 257.495289 143.936672 
L 258.105237 144.241918 
L 258.715184 144.370425 
L 259.325131 144.323834 
L 260.545025 144.924318 
L 261.154972 145.049105 
L 261.76492 145.000998 
L 262.374867 144.438407 
L 263.594761 144.687899 
L 264.204708 144.64149 
L 264.814655 144.93435 
L 265.424603 144.887469 
L 266.03455 144.672399 
L 267.254444 144.581055 
L 268.474338 145.156628 
L 269.084286 145.109921 
L 269.694233 145.394414 
L 270.30418 145.347285 
L 272.134021 145.698086 
L 273.353916 146.253661 
L 273.963863 146.042757 
L 274.57381 146.156311 
L 275.183757 145.946915 
L 275.793704 145.578054 
L 277.623546 145.439929 
L 278.233493 145.553259 
L 278.84344 145.82434 
L 279.453387 145.777989 
L 280.063335 146.046891 
L 281.283229 146.266941 
L 282.503123 146.173062 
L 283.11307 145.971222 
L 285.552859 147.01796 
L 286.162806 147.12289 
L 286.772753 147.37997 
L 287.992648 147.586119 
L 288.602595 147.536868 
L 289.212542 147.638956 
L 289.822489 147.589822 
L 291.652331 147.892367 
L 293.482172 147.745311 
L 294.092119 147.844674 
L 295.312014 148.335978 
L 295.921961 148.286305 
L 296.531908 148.090587 
L 297.141855 148.041817 
L 297.751802 148.138843 
L 298.36175 147.945047 
L 298.971697 148.041817 
L 301.411485 148.997071 
L 302.63138 148.897136 
L 303.241327 148.705362 
L 303.851274 148.940049 
L 305.681116 149.214718 
L 306.90101 149.67561 
L 307.510957 149.624943 
L 308.120904 149.713867 
L 308.730851 149.385376 
L 309.340799 149.474457 
L 309.950746 149.424793 
L 310.560693 149.237417 
L 311.17064 149.3262 
L 311.780587 149.140001 
L 312.390534 148.81778 
L 313.000482 148.633743 
L 313.610429 148.58687 
L 314.220376 148.812089 
L 315.44027 148.718161 
L 316.050217 148.536601 
L 317.270112 148.713265 
L 317.880059 148.666988 
L 319.099953 148.841755 
L 319.7099 149.061515 
L 320.319848 148.882167 
L 321.539742 149.054249 
L 322.149689 149.271416 
L 322.759636 149.2247 
L 323.369583 149.309325 
L 323.979531 149.262742 
L 325.199425 149.430625 
L 325.809372 149.384075 
L 326.419319 148.948972 
L 327.029266 148.903764 
L 327.639214 148.471792 
L 328.249161 148.427901 
L 330.079002 147.914014 
L 330.688949 148.126831 
L 331.298897 148.211448 
L 331.908844 147.914892 
L 332.518791 147.999608 
L 333.128738 148.210288 
L 334.95858 148.460144 
L 336.178474 148.374973 
L 336.788421 148.581982 
L 337.398368 148.414945 
L 338.008315 148.372744 
L 338.618263 148.578379 
L 339.22821 148.412459 
L 341.058051 148.287274 
L 341.667998 148.36837 
L 342.277946 148.204737 
L 342.887893 148.285659 
L 343.49784 148.122921 
L 344.107787 148.203669 
L 345.937629 148.082021 
L 347.157523 147.761639 
L 347.76747 147.961939 
L 348.377417 148.041817 
L 348.987365 147.763445 
L 349.597312 147.843406 
L 350.207259 147.566642 
L 351.427153 147.489804 
L 352.0371 147.569674 
L 352.647048 147.531409 
L 353.256995 147.728386 
L 354.476889 147.651673 
L 356.306731 147.072579 
L 358.136572 147.309793 
L 359.356466 147.696508 
L 359.966414 147.773801 
L 360.576361 147.73614 
L 361.186308 147.927426 
L 361.796255 147.77545 
L 362.406202 147.738021 
L 366.675832 148.266447 
L 367.28578 148.116542 
L 367.895727 148.302832 
L 368.505674 148.153457 
L 369.725568 148.190074 
L 369.725568 148.190074 
" style="fill:none;stroke:#1f77b4;stroke-linecap:square;stroke-width:1.5;"/>
   </g>
   <g id="line2d_17">
    <path clip-path="url(#p6edf36f10c)" d="M 65.361932 240.700909 
L 65.971879 212.903182 
L 66.581826 166.573634 
L 67.191773 143.408867 
L 67.80172 151.748185 
L 68.411668 148.041817 
L 69.021615 153.336622 
L 69.631562 143.408867 
L 70.241509 148.041817 
L 70.851456 151.748185 
L 72.071351 166.573634 
L 72.681298 163.722585 
L 73.291245 165.249932 
L 74.511139 160.782446 
L 75.731034 163.484997 
L 76.340981 161.696841 
L 76.950928 162.867274 
L 77.560875 153.336622 
L 78.170822 157.307725 
L 79.390717 159.624209 
L 80.000664 156.195822 
L 80.610611 157.307725 
L 81.220558 154.219089 
L 82.440452 156.349182 
L 83.0504 153.601365 
L 83.660347 154.617625 
L 84.880241 159.834797 
L 85.490188 152.402244 
L 86.100135 151.748185 
L 86.710083 149.586139 
L 87.32003 146.038383 
L 87.929977 145.603421 
L 88.539924 148.041817 
L 89.759819 149.849806 
L 90.369766 152.01292 
L 91.58966 153.51713 
L 92.199607 155.454545 
L 92.809554 154.890537 
L 93.419502 156.716288 
L 94.029449 153.833013 
L 95.249343 157.307725 
L 97.079185 158.881184 
L 97.689132 156.278185 
L 98.299079 156.802312 
L 98.909026 158.300507 
L 99.518973 158.770769 
L 100.12892 160.183354 
L 100.738868 158.721171 
L 102.568709 157.307725 
L 103.178656 158.631426 
L 103.788603 159.04509 
L 105.008498 158.15008 
L 105.618445 156.892836 
L 106.228392 158.125309 
L 106.838339 157.710594 
L 107.448286 158.89617 
L 108.058234 159.265313 
L 109.278128 158.450098 
L 111.107969 159.502287 
L 111.717917 158.390757 
L 112.327864 158.020487 
L 112.937811 158.363336 
L 113.547758 159.392561 
L 114.767652 160.019704 
L 115.987547 157.96958 
L 116.597494 158.288826 
L 117.207441 159.247104 
L 117.817388 157.627245 
L 120.257177 156.391317 
L 120.867124 155.494832 
L 122.087018 157.307725 
L 122.696966 157.015121 
L 124.526807 159.57693 
L 125.136754 159.834797 
L 125.746701 158.975592 
L 126.356649 158.68385 
L 126.966596 158.942886 
L 127.576543 158.657133 
L 128.18649 157.842299 
L 128.796437 157.572469 
L 129.406384 157.832217 
L 130.016332 157.567523 
L 130.626279 157.822499 
L 131.236226 158.582855 
L 132.45612 159.060739 
L 133.066067 157.804116 
L 133.676015 158.045722 
L 134.895909 157.549446 
L 135.505856 157.787001 
L 136.115803 157.545313 
L 137.335698 158.008508 
L 137.945645 158.697619 
L 139.165539 157.307725 
L 139.775486 157.533723 
L 140.385433 156.411025 
L 140.995381 156.640585 
L 141.605328 155.984024 
L 142.215275 155.775573 
L 142.825222 154.701695 
L 143.435169 154.937377 
L 144.045116 154.741783 
L 144.655064 154.973571 
L 145.265011 155.623016 
L 145.874958 155.844689 
L 146.484905 155.648159 
L 147.094852 156.278185 
L 147.704799 156.490149 
L 148.314747 156.293213 
L 148.924694 156.501996 
L 149.534641 156.30781 
L 150.144588 156.910614 
L 150.754535 157.110582 
L 151.364482 156.916214 
L 151.97443 157.502118 
L 152.584377 157.307725 
L 153.194324 156.7326 
L 154.414218 156.36223 
L 156.24406 156.937091 
L 157.463954 155.844689 
L 158.073901 156.399303 
L 159.293796 156.052345 
L 159.903743 156.238586 
L 160.51369 156.776565 
L 161.123637 156.603985 
L 161.733584 156.083925 
L 162.953479 155.753818 
L 164.173373 156.113964 
L 164.78332 156.629733 
L 166.003214 156.302989 
L 166.613162 156.475461 
L 167.833056 156.156347 
L 168.443003 155.672565 
L 169.662897 156.661271 
L 170.272845 155.861606 
L 170.882792 155.710159 
L 171.492739 155.242755 
L 172.712633 155.580186 
L 174.542475 155.145679 
L 175.152422 154.69689 
L 175.762369 155.169439 
L 176.372316 155.33303 
L 176.982263 154.890537 
L 177.592211 154.75334 
L 178.202158 154.916525 
L 178.812105 155.375264 
L 180.031999 155.689871 
L 180.641946 155.259473 
L 181.861841 156.149488 
L 182.471788 156.011462 
L 183.081735 155.301707 
L 183.691682 155.454545 
L 184.301629 155.322178 
L 185.521524 154.499879 
L 186.131471 154.374297 
L 187.351365 154.680081 
L 188.57126 154.432105 
L 189.181207 154.037405 
L 189.791154 154.460156 
L 190.401101 154.339038 
L 191.011048 153.950518 
L 191.620995 153.833013 
L 192.84089 153.071886 
L 193.450837 153.223706 
L 194.060784 153.111842 
L 194.670731 153.262054 
L 195.280678 152.371683 
L 195.890626 151.748185 
L 196.500573 151.645227 
L 197.720467 151.952204 
L 198.940361 151.748185 
L 200.160256 152.048701 
L 200.770203 151.947631 
L 201.38015 152.343848 
L 201.990097 152.489454 
L 202.600044 152.141775 
L 203.209992 152.042081 
L 203.819939 152.187091 
L 205.039833 151.989906 
L 206.259727 152.275377 
L 207.479622 153.031152 
L 208.089569 152.931069 
L 208.699516 152.596248 
L 209.91941 152.869433 
L 210.529358 152.771694 
L 211.139305 152.906423 
L 211.749252 152.809338 
L 212.969146 151.702422 
L 213.579093 150.927925 
L 215.408935 150.667788 
L 216.018882 149.90995 
L 216.628829 150.27457 
L 217.238776 149.969125 
L 217.848724 149.444625 
L 218.458671 149.144905 
L 220.288512 149.567971 
L 220.898459 149.923959 
L 222.118354 149.765711 
L 222.728301 149.902155 
L 223.338248 149.823726 
L 224.558142 150.093051 
L 225.16809 150.014789 
L 225.778037 149.515946 
L 227.607878 149.291158 
L 228.217825 149.632233 
L 228.827773 149.350755 
L 230.047667 149.614629 
L 231.267561 150.281927 
L 231.877508 150.409025 
L 232.487456 150.333025 
L 233.097403 150.459013 
L 233.70735 150.383385 
L 235.537191 150.755411 
L 236.757086 151.393316 
L 237.367033 151.119542 
L 239.196874 151.476035 
L 239.806822 151.399504 
L 240.416769 151.516538 
L 241.026716 151.248016 
L 241.636663 151.556477 
L 242.24661 151.289662 
L 242.856557 151.405469 
L 243.466505 151.330744 
L 244.076452 151.067425 
L 244.686399 151.182802 
L 245.296346 150.921761 
L 245.906293 151.22405 
L 246.51624 151.337744 
L 247.126188 151.264743 
L 247.736135 151.006908 
L 248.346082 151.304897 
L 248.956029 150.680454 
L 249.565976 150.794066 
L 250.785871 150.654499 
L 251.395818 150.767084 
L 252.005765 151.060028 
L 252.615712 151.170566 
L 253.225659 150.920552 
L 253.835606 150.851485 
L 254.445554 150.604097 
L 255.055501 150.180103 
L 255.665448 150.114069 
L 256.885342 150.336239 
L 257.495289 150.270328 
L 258.715184 150.839075 
L 259.325131 150.772212 
L 259.935078 150.532032 
L 261.76492 150.336786 
L 262.374867 149.929319 
L 262.984814 150.037554 
L 264.204708 149.571973 
L 265.424603 149.787979 
L 266.03455 149.726534 
L 266.644497 149.833419 
L 267.254444 149.772198 
L 267.864391 149.878304 
L 268.474338 149.650873 
L 269.694233 149.530982 
L 270.30418 149.801516 
L 270.914127 149.577001 
L 272.743969 150.37868 
L 273.353916 150.155101 
L 273.963863 150.256991 
L 274.57381 149.873449 
L 276.403652 150.178049 
L 277.013599 150.438178 
L 277.623546 150.378207 
L 278.233493 150.15974 
L 278.84344 150.100913 
L 279.453387 150.3583 
L 280.063335 150.141738 
L 281.283229 150.025509 
L 281.893176 150.124043 
L 282.503123 149.910571 
L 283.11307 150.008882 
L 283.723018 150.261506 
L 285.552859 150.550274 
L 286.162806 150.492308 
L 286.772753 150.129196 
L 287.992648 150.01652 
L 288.602595 150.11213 
L 289.212542 150.3583 
L 289.822489 150.000465 
L 290.432436 150.2456 
L 291.042384 150.189713 
L 291.652331 150.283575 
L 292.262278 150.078827 
L 292.872225 150.172482 
L 293.482172 149.969125 
L 294.092119 149.914714 
L 294.702067 150.008062 
L 295.312014 150.247985 
L 295.921961 150.193267 
L 296.531908 150.285141 
L 297.751802 149.594225 
L 298.36175 149.686943 
L 298.971697 149.489618 
L 300.191591 149.674152 
L 301.411485 150.143362 
L 302.021433 150.090326 
L 303.241327 150.553803 
L 304.461221 150.446711 
L 305.681116 150.05921 
L 307.510957 149.904317 
L 308.730851 150.3583 
L 309.340799 150.306307 
L 309.950746 150.392871 
L 311.17064 150.28949 
L 311.780587 150.375457 
L 313.000482 150.272921 
L 313.610429 150.085769 
L 314.830323 149.985404 
L 315.44027 150.206116 
L 316.050217 149.751064 
L 317.270112 149.384705 
L 317.880059 149.604746 
L 318.490006 149.422796 
L 320.929795 149.762629 
L 321.539742 149.582469 
L 322.149689 149.271416 
L 322.759636 149.093269 
L 323.369583 149.047083 
L 323.979531 149.131924 
L 324.589478 149.085863 
L 325.199425 149.170222 
L 327.029266 149.808806 
L 327.639214 149.890706 
L 328.249161 149.843526 
L 328.859108 149.924961 
L 329.469055 150.134125 
L 330.079002 150.214517 
L 331.298897 150.11976 
L 331.908844 150.326563 
L 332.518791 150.405786 
L 333.738685 150.311021 
L 334.348632 150.138176 
L 334.95858 150.21711 
L 335.568527 150.420905 
L 336.178474 150.24898 
L 337.398368 150.653688 
L 338.008315 150.730591 
L 338.618263 150.683329 
L 341.058051 150.987274 
L 341.667998 150.817511 
L 342.277946 151.01506 
L 342.887893 150.967897 
L 344.107787 151.116966 
L 345.327681 151.023021 
L 345.937629 151.096959 
L 346.547576 151.050235 
L 347.157523 151.123784 
L 347.76747 151.077201 
L 348.987365 151.223246 
L 349.597312 151.176754 
L 350.817206 150.847277 
L 351.427153 150.801878 
L 352.0371 150.638635 
L 353.256995 150.784373 
L 354.476889 151.162969 
L 355.086836 151.234273 
L 355.696783 151.421839 
L 356.306731 151.492306 
L 358.746519 151.309876 
L 359.356466 151.14964 
L 359.966414 151.104929 
L 360.576361 151.175031 
L 361.796255 151.086057 
L 362.406202 151.15577 
L 363.016149 151.338888 
L 364.845991 150.866795 
L 365.455938 150.823476 
L 366.065885 151.005409 
L 366.675832 150.961982 
L 367.895727 150.763795 
L 368.505674 150.832754 
L 369.115621 150.567199 
L 369.725568 150.525081 
L 369.725568 150.525081 
" style="fill:none;stroke:#ff7f0e;stroke-linecap:square;stroke-width:1.5;"/>
   </g>
   <g id="line2d_18">
    <path clip-path="url(#p6edf36f10c)" d="M 65.361932 240.700909 
L 65.971879 157.307725 
L 66.581826 185.105455 
L 67.191773 171.206592 
L 67.80172 173.986366 
L 68.411668 185.105455 
L 69.021615 177.163247 
L 69.631562 171.206592 
L 70.241509 172.75091 
L 70.851456 173.986366 
L 71.461403 159.834797 
L 72.071351 166.573634 
L 73.291245 169.221036 
L 73.901192 173.986366 
L 74.511139 174.681309 
L 75.121086 178.564813 
L 76.340981 173.40115 
L 76.950928 165.647044 
L 77.560875 166.573634 
L 78.170822 164.888924 
L 78.780769 160.93352 
L 80.000664 167.314911 
L 80.610611 167.999158 
L 81.830505 173.192144 
L 82.440452 171.685863 
L 83.660347 172.551642 
L 84.880241 166.573634 
L 86.100135 170.809481 
L 86.710083 169.66227 
L 87.32003 170.079661 
L 87.929977 169.012038 
L 88.539924 166.573634 
L 89.149871 167.036937 
L 89.759819 166.121638 
L 90.369766 163.926231 
L 90.979713 164.418778 
L 92.809554 162.142118 
L 94.029449 165.415396 
L 95.249343 163.979185 
L 96.469237 164.791732 
L 97.079185 163.077067 
L 97.689132 163.484997 
L 98.299079 160.845623 
L 98.909026 161.278829 
L 99.518973 160.721481 
L 100.738868 161.548062 
L 101.958762 160.497629 
L 102.568709 160.894534 
L 103.178656 160.396361 
L 103.788603 161.65112 
L 104.398551 161.156643 
L 105.008498 159.834797 
L 105.618445 156.892836 
L 106.228392 156.490149 
L 106.838339 157.710594 
L 107.448286 157.307725 
L 108.058234 157.699244 
L 108.668181 158.852047 
L 109.278128 158.450098 
L 111.717917 159.834797 
L 112.327864 158.73325 
L 112.937811 156.955855 
L 113.547758 155.91784 
L 114.157705 155.591817 
L 114.767652 155.95174 
L 115.3776 155.633164 
L 115.987547 156.645879 
L 116.597494 156.326632 
L 117.207441 154.721892 
L 117.817388 155.710159 
L 118.427335 156.044193 
L 119.037283 155.746056 
L 119.64723 156.690001 
L 120.867124 156.099135 
L 121.477071 155.215425 
L 122.696966 155.844689 
L 123.306913 155.570369 
L 123.91686 155.874853 
L 124.526807 155.038529 
L 125.136754 154.780662 
L 125.746701 155.639866 
L 126.356649 155.381154 
L 126.966596 154.582458 
L 127.576543 154.339038 
L 128.18649 154.634873 
L 128.796437 153.866109 
L 130.016332 153.41085 
L 133.676015 155.093753 
L 134.285962 154.381653 
L 134.895909 154.648816 
L 135.505856 155.390648 
L 136.115803 155.644613 
L 136.72575 155.423139 
L 137.335698 155.672565 
L 137.945645 155.454545 
L 138.555592 154.321194 
L 139.165539 153.662123 
L 140.385433 154.169275 
L 140.995381 153.972 
L 141.605328 154.219089 
L 142.825222 153.833013 
L 143.435169 152.782513 
L 144.045116 152.603496 
L 144.655064 152.851605 
L 147.704799 149.949508 
L 148.314747 150.206116 
L 148.924694 149.250415 
L 149.534641 149.908335 
L 150.144588 149.365518 
L 151.364482 150.651931 
L 154.414218 151.823821 
L 155.024165 151.297408 
L 156.24406 151.748185 
L 156.854007 151.600914 
L 157.463954 151.089818 
L 158.073901 149.858662 
L 158.683848 150.44855 
L 159.293796 150.313465 
L 159.903743 150.536489 
L 160.51369 151.110786 
L 161.123637 150.974069 
L 162.343531 150.010829 
L 163.563426 150.444093 
L 164.173373 149.974585 
L 165.393267 149.726534 
L 166.613162 150.15023 
L 167.223109 149.696445 
L 167.833056 149.577001 
L 168.443003 149.131924 
L 169.05295 149.342297 
L 169.662897 148.580533 
L 170.272845 149.113027 
L 171.492739 149.524362 
L 172.102686 148.778877 
L 172.712633 148.984114 
L 173.32258 148.562373 
L 173.932528 148.455936 
L 174.542475 148.041817 
L 175.152422 147.93943 
L 175.762369 148.449109 
L 176.372316 147.738021 
L 176.982263 147.336809 
L 177.592211 147.841476 
L 179.422052 147.548955 
L 180.031999 147.159349 
L 180.641946 147.359069 
L 182.471788 147.081625 
L 184.301629 147.663619 
L 184.911577 147.571472 
L 186.741418 148.134477 
L 187.351365 147.765227 
L 187.961312 147.950076 
L 188.57126 148.406975 
L 189.791154 148.765009 
L 191.011048 149.653284 
L 191.620995 149.55644 
L 192.84089 150.424484 
L 193.450837 150.061877 
L 194.670731 150.390924 
L 195.280678 150.033553 
L 195.890626 149.9381 
L 196.500573 150.100913 
L 197.11052 150.006024 
L 197.720467 149.656979 
L 198.330414 149.564981 
L 198.940361 149.726534 
L 199.550309 149.63505 
L 200.770203 148.955947 
L 201.38015 148.124553 
L 202.600044 148.943811 
L 203.209992 149.103111 
L 203.819939 148.773335 
L 205.64978 148.523163 
L 206.259727 148.920482 
L 207.479622 148.754579 
L 208.089569 148.199535 
L 209.309463 148.041817 
L 209.91941 148.197546 
L 210.529358 147.886742 
L 211.139305 148.273464 
L 211.749252 148.195608 
L 212.359199 147.65893 
L 213.579093 147.510167 
L 214.189041 147.663619 
L 214.798988 147.589822 
L 216.628829 148.041817 
L 217.238776 148.412459 
L 217.848724 148.337146 
L 219.068618 148.627803 
L 219.678565 148.55254 
L 220.288512 148.695884 
L 220.898459 148.403769 
L 221.508407 148.330254 
L 222.118354 148.041817 
L 222.728301 148.184921 
L 223.338248 148.113096 
L 223.948195 147.615801 
L 224.558142 147.758889 
L 226.387984 148.811062 
L 226.997931 148.738507 
L 227.607878 148.874711 
L 228.217825 148.595005 
L 228.827773 148.11071 
L 230.047667 147.563138 
L 230.657614 147.496763 
L 231.267561 147.83817 
L 231.877508 147.568382 
L 233.70735 148.577037 
L 234.317297 148.708435 
L 234.927244 149.038153 
L 235.537191 148.968407 
L 236.147139 149.097013 
L 236.757086 149.027557 
L 237.367033 149.155037 
L 237.97698 149.477382 
L 238.586927 149.212249 
L 239.196874 149.143364 
L 241.026716 150.093789 
L 241.636663 149.831099 
L 242.856557 150.072705 
L 244.076452 149.932823 
L 245.296346 150.546123 
L 245.906293 150.475292 
L 246.51624 150.778061 
L 247.126188 150.335054 
L 247.736135 150.080318 
L 248.346082 149.642572 
L 248.956029 149.760003 
L 249.565976 149.693173 
L 250.785871 149.925384 
L 252.005765 149.792378 
L 252.615712 149.546026 
L 253.225659 149.661104 
L 253.835606 149.237417 
L 254.445554 149.531512 
L 255.665448 149.758827 
L 256.885342 149.630262 
L 257.495289 149.918458 
L 259.325131 150.249369 
L 259.935078 150.532032 
L 261.154972 150.746771 
L 261.76492 150.681026 
L 262.374867 150.787273 
L 262.984814 150.379682 
L 263.594761 150.656736 
L 266.03455 151.074301 
L 266.644497 151.345076 
L 268.474338 151.148952 
L 269.084286 151.250311 
L 269.694233 151.18561 
L 270.30418 151.451232 
L 270.914127 151.221838 
L 271.524074 150.829788 
L 272.134021 150.603567 
L 272.743969 150.215643 
L 273.353916 150.480213 
L 277.623546 151.174708 
L 278.233493 150.953963 
L 278.84344 151.051263 
L 279.453387 150.832125 
L 280.673282 151.339857 
L 281.893176 151.529552 
L 283.723018 151.34554 
L 284.332965 151.439319 
L 284.942912 151.37857 
L 285.552859 151.164585 
L 286.772753 151.045604 
L 287.382701 151.13892 
L 287.992648 151.383623 
L 288.602595 151.475505 
L 289.212542 151.113669 
L 291.042384 151.388536 
L 292.872225 151.21304 
L 293.482172 151.303422 
L 294.092119 151.245457 
L 294.702067 151.040336 
L 295.312014 150.689219 
L 296.531908 150.870357 
L 297.751802 150.467447 
L 298.36175 150.557887 
L 298.971697 150.503078 
L 299.581644 150.592955 
L 300.801538 150.483999 
L 301.411485 150.143362 
L 302.63138 150.322661 
L 303.241327 150.269425 
L 304.461221 149.880855 
L 305.071168 149.97026 
L 305.681116 150.199953 
L 306.291063 150.007316 
L 306.90101 150.235766 
L 308.120904 150.131872 
L 308.730851 150.3583 
L 309.340799 150.306307 
L 310.560693 150.479003 
L 311.17064 150.702325 
L 313.000482 150.955918 
L 313.610429 151.175876 
L 314.830323 151.070192 
L 315.44027 150.88246 
L 316.050217 151.100472 
L 316.660165 150.778964 
L 317.270112 150.727592 
L 317.880059 150.810428 
L 318.490006 151.026509 
L 319.099953 151.108234 
L 319.7099 150.790562 
L 320.319848 150.872453 
L 320.929795 150.689219 
L 321.539742 150.770969 
L 322.149689 150.588846 
L 323.369583 150.489417 
L 323.979531 150.570869 
L 324.589478 150.390924 
L 325.199425 150.342021 
L 326.419319 150.504088 
L 327.639214 150.406673 
L 328.249161 150.486989 
L 328.859108 150.438543 
L 329.469055 150.51842 
L 330.079002 150.470131 
L 331.298897 150.11976 
L 332.518791 150.025865 
L 333.738685 149.680689 
L 335.568527 149.544402 
L 336.178474 149.749242 
L 336.788421 149.579213 
L 338.008315 149.986009 
L 338.618263 149.816585 
L 339.22821 149.895005 
L 339.838157 149.726534 
L 341.667998 149.960311 
L 342.277946 149.793182 
L 343.49784 149.704415 
L 344.107787 149.781708 
L 345.327681 149.693571 
L 346.547576 149.365518 
L 347.157523 149.442712 
L 347.76747 149.040299 
L 348.377417 148.998297 
L 348.987365 149.075781 
L 349.597312 148.91484 
L 350.207259 148.873377 
L 351.427153 149.264134 
L 352.0371 149.340226 
L 352.647048 149.062642 
L 353.256995 149.25638 
L 353.866942 148.980137 
L 355.086836 148.898329 
L 355.696783 149.090792 
L 356.306731 149.166138 
L 356.916678 149.009033 
L 357.526625 149.084231 
L 358.746519 149.003011 
L 360.576361 149.226324 
L 361.186308 149.185755 
L 361.796255 149.25952 
L 363.016149 149.065052 
L 363.626097 148.911684 
L 364.845991 149.058806 
L 365.455938 149.019157 
L 367.28578 149.461592 
L 367.895727 149.421454 
L 368.505674 149.604746 
L 369.725568 149.635555 
L 369.725568 149.635555 
" style="fill:none;stroke:#2ca02c;stroke-linecap:square;stroke-width:1.5;"/>
   </g>
   <g id="line2d_19">
    <path clip-path="url(#p6edf36f10c)" d="M 65.361932 73.914541 
L 65.971879 101.712275 
L 66.581826 110.978183 
L 67.191773 129.51 
L 67.80172 140.629088 
L 68.411668 157.307725 
L 69.021615 153.336622 
L 69.631562 157.307725 
L 70.241509 160.396361 
L 70.851456 162.867274 
L 72.071351 157.307725 
L 72.681298 155.169439 
L 73.291245 149.365518 
L 73.901192 151.748185 
L 74.511139 157.307725 
L 75.121086 149.131924 
L 75.731034 151.130453 
L 76.340981 149.992537 
L 77.560875 153.336622 
L 78.170822 147.199462 
L 79.390717 150.3583 
L 80.610611 148.754579 
L 81.220558 150.100913 
L 81.830505 145.394414 
L 82.440452 146.763762 
L 83.0504 149.895005 
L 83.660347 149.237417 
L 84.880241 154.780662 
L 85.490188 154.037405 
L 86.100135 150.15974 
L 86.710083 152.674775 
L 87.32003 152.048701 
L 87.929977 149.992537 
L 88.539924 149.467341 
L 89.149871 150.3583 
L 89.759819 147.137827 
L 90.979713 146.317931 
L 92.199607 150.512729 
L 94.029449 152.674775 
L 94.639396 154.471224 
L 95.249343 152.860088 
L 95.85929 152.402244 
L 96.469237 150.892866 
L 97.079185 150.489417 
L 98.909026 155.322178 
L 99.518973 154.869329 
L 100.12892 155.390648 
L 100.738868 156.836577 
L 101.348815 155.454545 
L 101.958762 155.94063 
L 102.568709 157.307725 
L 103.788603 154.701695 
L 104.398551 154.314127 
L 105.618445 156.892836 
L 106.228392 157.307725 
L 106.838339 156.904865 
L 107.448286 157.307725 
L 108.058234 156.916214 
L 108.668181 154.99125 
L 109.278128 154.642197 
L 110.498022 152.489454 
L 111.107969 153.650135 
L 112.327864 153.031152 
L 112.937811 153.437161 
L 113.547758 153.13807 
L 114.767652 153.917762 
L 115.987547 153.336622 
L 116.597494 154.364438 
L 117.207441 153.428976 
L 117.817388 153.793074 
L 118.427335 154.780662 
L 119.64723 154.219089 
L 120.257177 154.5585 
L 121.477071 156.411025 
L 122.087018 156.12485 
L 122.696966 156.429905 
L 123.306913 155.570369 
L 124.526807 155.038529 
L 125.136754 155.903806 
L 125.746701 155.083911 
L 127.576543 155.958326 
L 128.796437 155.454545 
L 129.406384 156.258759 
L 131.236226 155.522552 
L 131.846173 155.791487 
L 133.066067 157.307725 
L 133.676015 157.55373 
L 134.285962 156.820049 
L 134.895909 155.13225 
L 136.115803 154.694264 
L 136.72575 154.951991 
L 137.945645 154.527955 
L 139.165539 155.029226 
L 140.385433 154.617625 
L 140.995381 154.861525 
L 141.605328 154.660323 
L 142.215275 154.900048 
L 142.825222 155.570369 
L 143.435169 154.937377 
L 144.045116 154.741783 
L 145.265011 155.201839 
L 145.874958 155.008672 
L 146.484905 155.648159 
L 147.094852 155.454545 
L 147.704799 154.854989 
L 148.314747 154.669991 
L 148.924694 154.084808 
L 149.534641 154.307972 
L 150.754535 153.167645 
L 151.364482 153.784077 
L 151.97443 153.614322 
L 152.584377 153.060852 
L 153.194324 151.748185 
L 154.414218 152.202028 
L 155.024165 152.048701 
L 155.634113 151.151189 
L 156.24406 150.636274 
L 156.854007 151.232732 
L 157.463954 151.089818 
L 159.293796 151.748185 
L 159.903743 151.605628 
L 160.51369 150.756671 
L 161.123637 150.270328 
L 162.343531 150.010829 
L 162.953479 149.538181 
L 163.563426 149.414545 
L 164.173373 149.974585 
L 164.78332 149.171805 
L 165.393267 149.052642 
L 166.003214 149.269834 
L 166.613162 148.818601 
L 167.223109 148.703672 
L 167.833056 148.919065 
L 168.443003 148.804898 
L 169.05295 148.366937 
L 169.662897 148.25731 
L 170.272845 147.506216 
L 172.102686 148.147111 
L 172.712633 148.041817 
L 173.32258 148.562373 
L 174.542475 148.350683 
L 175.152422 148.553749 
L 176.372316 148.345621 
L 176.982263 148.545399 
L 177.592211 148.141991 
L 178.202158 147.444017 
L 178.812105 147.348117 
L 179.422052 147.548955 
L 180.641946 147.359069 
L 181.861841 146.594024 
L 182.471788 146.793561 
L 183.081735 146.704471 
L 183.691682 145.760981 
L 184.301629 145.394414 
L 184.911577 145.595998 
L 185.521524 145.514753 
L 187.961312 147.399629 
L 189.181207 146.134134 
L 189.791154 146.053038 
L 190.401101 145.70285 
L 191.011048 145.624629 
L 191.620995 145.279866 
L 193.450837 145.05565 
L 194.060784 145.244567 
L 194.670731 145.170695 
L 195.280678 145.3573 
L 198.330414 144.995497 
L 198.940361 145.430518 
L 199.550309 145.106914 
L 200.160256 145.28709 
L 200.770203 145.714953 
L 201.38015 145.890805 
L 201.990097 145.570913 
L 203.209992 145.919229 
L 204.429886 146.74702 
L 205.039833 145.946915 
L 205.64978 145.875761 
L 206.259727 145.565586 
L 208.089569 146.070353 
L 208.699516 146.471324 
L 209.309463 146.399756 
L 209.91941 146.79598 
L 210.529358 146.956275 
L 211.139305 146.883579 
L 211.749252 147.042175 
L 212.359199 147.429196 
L 212.969146 147.584246 
L 214.189041 148.344378 
L 214.798988 148.493812 
L 216.628829 148.265097 
L 217.848724 148.558645 
L 218.458671 148.924284 
L 219.678565 148.333659 
L 220.288512 147.605777 
L 220.898459 147.100754 
L 221.508407 147.464951 
L 222.118354 147.395363 
L 222.728301 147.111648 
L 223.338248 147.257784 
L 223.948195 147.189778 
L 224.558142 147.546693 
L 225.16809 147.689507 
L 226.387984 148.391475 
L 226.997931 148.529501 
L 228.217825 147.972667 
L 228.827773 148.317388 
L 230.047667 148.588883 
L 231.267561 148.041817 
L 231.877508 147.568382 
L 232.487456 147.907047 
L 233.097403 148.041817 
L 234.317297 147.908496 
L 234.927244 147.643289 
L 237.367033 148.172784 
L 238.586927 147.261529 
L 239.196874 147.393855 
L 240.416769 147.269664 
L 241.026716 147.592953 
L 241.636663 147.722305 
L 242.24661 147.468671 
L 242.856557 147.597568 
L 243.466505 147.535832 
L 244.076452 147.663619 
L 244.686399 147.22516 
L 245.906293 146.731487 
L 246.51624 147.046823 
L 247.736135 147.300548 
L 248.346082 147.610847 
L 248.956029 147.735005 
L 249.565976 147.674852 
L 250.175923 147.797983 
L 251.395818 146.95171 
L 252.005765 146.894896 
L 254.445554 148.101406 
L 255.055501 148.220014 
L 255.665448 147.982608 
L 256.885342 148.218315 
L 257.495289 148.159107 
L 258.105237 147.749519 
L 258.715184 147.517333 
L 259.325131 147.809449 
L 259.935078 147.752262 
L 260.545025 147.522238 
L 261.154972 147.466293 
L 262.374867 148.041817 
L 262.984814 147.984795 
L 263.594761 148.269206 
L 264.814655 148.493812 
L 266.03455 148.041817 
L 266.644497 147.649908 
L 267.864391 147.87487 
L 268.474338 147.819879 
L 269.084286 148.09714 
L 269.694233 147.710898 
L 270.30418 147.491917 
L 270.914127 147.767679 
L 271.524074 147.713822 
L 272.134021 147.496763 
L 273.353916 147.716697 
L 273.963863 147.663619 
L 275.793704 147.988258 
L 276.403652 147.935006 
L 277.013599 147.56255 
L 277.623546 147.829422 
L 279.453387 148.147111 
L 280.063335 148.094315 
L 280.673282 148.198872 
L 281.283229 148.146225 
L 281.893176 147.937707 
L 282.503123 148.197546 
L 283.11307 148.145347 
L 284.332965 146.806369 
L 284.942912 146.450448 
L 285.552859 146.403649 
L 286.162806 146.510261 
L 286.772753 146.310823 
L 287.382701 146.264795 
L 287.992648 145.915219 
L 288.602595 145.870517 
L 289.212542 145.977137 
L 289.822489 146.233836 
L 290.432436 145.737868 
L 291.042384 145.54427 
L 291.652331 145.800067 
L 292.262278 145.905444 
L 292.872225 145.861603 
L 293.482172 145.966259 
L 294.092119 145.774625 
L 294.702067 145.878959 
L 295.312014 145.394414 
L 295.921961 145.352504 
L 296.531908 145.457119 
L 297.751802 145.95578 
L 299.581644 146.260843 
L 300.191591 146.217442 
L 300.801538 145.886953 
L 302.63138 145.760981 
L 303.241327 146.003796 
L 304.461221 145.636931 
L 305.681116 145.836767 
L 306.291063 145.655148 
L 307.510957 145.853385 
L 308.730851 145.493694 
L 309.340799 145.731116 
L 310.560693 145.374706 
L 311.17064 145.47305 
L 311.780587 145.433641 
L 312.390534 145.257482 
L 313.000482 145.218794 
L 313.610429 145.31655 
L 314.220376 145.006043 
L 314.830323 144.96825 
L 316.660165 145.259802 
L 317.270112 145.22176 
L 317.880059 145.451833 
L 318.490006 145.146223 
L 319.7099 145.337418 
L 320.319848 145.299641 
L 320.929795 144.997303 
L 321.539742 144.828468 
L 322.149689 145.05565 
L 322.759636 145.150332 
L 323.979531 144.815105 
L 324.589478 144.51816 
L 325.199425 144.352813 
L 326.419319 144.542806 
L 327.029266 144.507846 
L 327.639214 144.731027 
L 328.249161 144.695794 
L 329.469055 144.882018 
L 333.738685 144.638018 
L 334.348632 144.855351 
L 335.568527 144.786226 
L 336.178474 144.626967 
L 336.788421 144.094456 
L 338.008315 143.781158 
L 339.22821 143.964822 
L 340.448104 143.900859 
L 341.667998 144.327288 
L 342.887893 144.262306 
L 343.49784 144.108374 
L 344.717734 144.529253 
L 345.937629 144.222897 
L 346.547576 144.431721 
L 348.377417 144.335457 
L 351.427153 144.769177 
L 352.0371 144.972856 
L 352.647048 144.9401 
L 353.256995 144.672399 
L 353.866942 144.640413 
L 354.476889 144.491509 
L 355.086836 144.576838 
L 355.696783 144.54525 
L 356.306731 144.281178 
L 356.916678 144.250343 
L 357.526625 144.451281 
L 358.136572 144.304631 
L 359.356466 144.473582 
L 360.576361 144.411872 
L 361.186308 144.49561 
L 361.796255 144.464834 
L 362.406202 144.548116 
L 363.016149 144.062595 
L 363.626097 144.032895 
L 364.845991 143.860862 
L 365.455938 143.831751 
L 366.065885 143.577677 
L 366.675832 143.549254 
L 368.505674 143.241407 
L 369.115621 143.436719 
L 369.725568 143.186481 
L 369.725568 143.186481 
" style="fill:none;stroke:#d62728;stroke-linecap:square;stroke-width:1.5;"/>
   </g>
   <g id="line2d_20">
    <path clip-path="url(#p6edf36f10c)" d="M 65.361932 18.319091 
L 65.971879 101.712275 
L 66.581826 129.51 
L 67.191773 129.51 
L 67.80172 107.271823 
L 68.411668 101.712275 
L 69.021615 105.683378 
L 69.631562 108.661708 
L 70.241509 110.978183 
L 70.851456 112.831363 
L 71.461403 119.401737 
L 72.071351 110.978183 
L 72.681298 112.403708 
L 73.291245 109.654482 
L 73.901192 114.684543 
L 74.511139 115.611142 
L 75.121086 119.699038 
L 75.731034 120.244092 
L 76.340981 126.583928 
L 77.560875 132.157402 
L 78.170822 134.564136 
L 78.780769 134.344393 
L 79.390717 129.51 
L 80.000664 129.51 
L 80.610611 131.648287 
L 81.220558 135.687272 
L 81.830505 137.452207 
L 82.440452 135.261257 
L 83.0504 138.775908 
L 83.660347 138.477008 
L 84.270294 136.459433 
L 84.880241 136.248845 
L 85.490188 137.685802 
L 86.100135 140.629088 
L 86.710083 141.864545 
L 87.32003 141.530643 
L 89.149871 144.798752 
L 90.369766 146.718116 
L 90.979713 146.317931 
L 91.58966 147.199462 
L 92.199607 146.806369 
L 92.809554 147.638956 
L 94.639396 143.125218 
L 96.469237 145.547153 
L 97.079185 145.244567 
L 97.689132 145.982729 
L 98.299079 147.704875 
L 99.518973 149.017177 
L 100.12892 147.722305 
L 100.738868 148.355919 
L 102.568709 147.444017 
L 103.178656 148.041817 
L 103.788603 147.752262 
L 105.618445 149.424793 
L 106.228392 149.131924 
L 106.838339 149.653284 
L 107.448286 147.777082 
L 108.058234 148.302832 
L 108.668181 149.586139 
L 109.278128 149.311123 
L 109.888075 148.292253 
L 110.498022 148.783094 
L 111.107969 148.529501 
L 111.717917 149.00451 
L 112.937811 148.510977 
L 113.547758 148.968407 
L 114.157705 150.100913 
L 114.767652 150.527798 
L 116.597494 149.785991 
L 117.207441 150.19668 
L 117.817388 149.958902 
L 118.427335 150.990066 
L 119.64723 149.277273 
L 120.257177 149.670988 
L 120.867124 149.451849 
L 121.477071 148.041817 
L 123.306913 147.462698 
L 123.91686 146.704471 
L 124.526807 146.529017 
L 125.746701 147.300548 
L 127.576543 146.782377 
L 128.18649 146.081727 
L 128.796437 145.923902 
L 129.406384 146.293533 
L 130.016332 146.136677 
L 131.236226 146.851701 
L 131.846173 146.188637 
L 133.066067 145.890805 
L 133.676015 146.237838 
L 134.895909 145.946915 
L 135.505856 145.325952 
L 136.115803 145.665943 
L 136.72575 145.529027 
L 137.335698 144.927226 
L 137.945645 145.262047 
L 139.165539 146.826616 
L 139.775486 146.685831 
L 141.605328 147.600583 
L 142.215275 147.020379 
L 142.825222 147.31792 
L 143.435169 148.041817 
L 144.045116 147.899268 
L 144.655064 146.910106 
L 145.265011 146.357108 
L 145.874958 145.394414 
L 146.484905 145.275873 
L 147.094852 145.570913 
L 147.704799 146.270395 
L 148.314747 145.74225 
L 148.924694 145.624629 
L 149.534641 145.108728 
L 150.144588 144.997303 
L 151.364482 145.562206 
L 151.97443 145.061176 
L 152.584377 145.725342 
L 153.194324 145.996928 
L 153.804271 145.884004 
L 154.414218 146.150819 
L 155.634113 145.1812 
L 156.24406 145.076725 
L 157.463954 145.603421 
L 158.073901 146.224972 
L 158.683848 145.755422 
L 161.123637 145.344153 
L 161.733584 145.594225 
L 162.343531 146.188637 
L 162.953479 146.430358 
L 165.393267 146.020166 
L 166.003214 146.255624 
L 167.223109 146.056269 
L 168.443003 146.51567 
L 169.05295 147.066457 
L 169.662897 146.641162 
L 171.492739 148.253615 
L 172.102686 148.462994 
L 172.712633 148.355919 
L 173.32258 147.937707 
L 173.932528 147.834757 
L 174.542475 148.041817 
L 175.152422 147.93943 
L 175.762369 147.227231 
L 176.372316 147.434216 
L 176.982263 147.941104 
L 177.592211 147.54096 
L 179.422052 148.140392 
L 180.641946 147.944285 
L 181.251894 148.429923 
L 181.861841 148.041817 
L 182.471788 147.945801 
L 183.691682 148.897136 
L 184.301629 148.798221 
L 184.911577 149.26473 
L 185.521524 149.164962 
L 186.741418 149.524362 
L 187.351365 149.424793 
L 187.961312 149.050977 
L 188.57126 149.228586 
L 189.181207 149.676977 
L 189.791154 149.578609 
L 190.401101 149.211304 
L 191.620995 149.55644 
L 192.230943 149.460523 
L 192.84089 149.100783 
L 193.450837 149.271416 
L 194.670731 148.041817 
L 195.280678 148.215018 
L 198.330414 147.787959 
L 198.940361 147.452169 
L 199.550309 147.370982 
L 200.160256 147.791389 
L 200.770203 147.460105 
L 201.38015 147.37997 
L 202.600044 147.713822 
L 203.209992 147.1438 
L 203.819939 147.554141 
L 204.429886 147.718122 
L 205.039833 148.122391 
L 205.64978 148.282494 
L 206.259727 148.201573 
L 206.869675 147.644142 
L 207.479622 147.804229 
L 209.309463 147.572656 
L 209.91941 147.029575 
L 210.529358 147.421508 
L 211.749252 147.272862 
L 212.359199 147.429196 
L 213.579093 147.282322 
L 214.189041 146.982859 
L 214.798988 146.911829 
L 216.018882 147.668192 
L 217.238776 146.6334 
L 217.848724 146.565178 
L 218.458671 146.938737 
L 219.678565 146.801498 
L 220.898459 147.100754 
L 221.508407 147.464951 
L 222.118354 147.610847 
L 222.728301 147.54096 
L 223.338248 147.257784 
L 223.948195 147.402794 
L 224.558142 147.122302 
L 225.16809 146.632555 
L 226.387984 146.08374 
L 227.607878 145.959591 
L 228.217825 146.313101 
L 228.827773 146.457315 
L 229.43772 146.806369 
L 230.047667 146.332246 
L 230.657614 146.270395 
L 231.877508 146.553861 
L 232.487456 145.885387 
L 233.70735 145.767153 
L 234.317297 145.508697 
L 234.927244 145.052817 
L 235.537191 145.195863 
L 236.147139 144.942196 
L 236.757086 145.281764 
L 237.367033 145.226035 
L 238.586927 145.505889 
L 239.196874 145.061176 
L 239.806822 145.006996 
L 241.026716 144.515004 
L 242.24661 144.793972 
L 242.856557 144.55124 
L 244.076452 144.827117 
L 244.686399 144.586738 
L 245.906293 145.233971 
L 246.51624 145.1812 
L 247.126188 145.314727 
L 247.736135 145.632681 
L 248.346082 145.394414 
L 248.956029 145.709999 
L 249.565976 145.840022 
L 250.175923 145.420543 
L 252.005765 146.351623 
L 252.615712 146.116439 
L 253.225659 146.06269 
L 253.835606 146.188637 
L 254.445554 146.492532 
L 255.055501 146.438104 
L 256.275395 145.976168 
L 257.495289 145.871959 
L 258.715184 145.419392 
L 259.325131 145.36952 
L 259.935078 145.146223 
L 260.545025 145.097511 
L 261.154972 145.22176 
L 261.76492 145.000998 
L 262.374867 145.296369 
L 262.984814 145.247789 
L 263.594761 144.687899 
L 264.204708 144.811501 
L 264.814655 144.256358 
L 265.424603 144.042555 
L 266.644497 144.626594 
L 267.254444 144.581055 
L 267.864391 144.368843 
L 268.474338 144.490814 
L 269.084286 144.280134 
L 270.30418 144.192477 
L 272.743969 144.672399 
L 273.353916 144.628061 
L 273.963863 144.746071 
L 274.57381 144.701783 
L 275.183757 144.818891 
L 275.793704 144.774653 
L 276.403652 144.410223 
L 277.013599 144.527165 
L 277.623546 144.324836 
L 278.233493 144.441356 
L 278.84344 144.08203 
L 280.063335 144.314456 
L 280.673282 143.958535 
L 281.893176 144.189702 
L 282.503123 144.148578 
L 284.332965 144.489886 
L 284.942912 144.448389 
L 285.552859 144.560709 
L 286.162806 144.212931 
L 286.772753 144.478006 
L 287.992648 144.396214 
L 289.212542 144.013162 
L 289.822489 144.275188 
L 291.042384 144.195592 
L 291.652331 143.707767 
L 292.262278 143.818752 
L 294.702067 143.666933 
L 295.312014 143.77656 
L 296.531908 143.701471 
L 298.971697 144.132763 
L 299.581644 143.950383 
L 300.191591 144.057003 
L 300.801538 144.019408 
L 301.411485 143.69544 
L 302.021433 143.658972 
L 302.63138 143.765244 
L 303.851274 143.692515 
L 305.071168 143.902731 
L 305.681116 143.725545 
L 306.291063 143.970439 
L 306.90101 143.793974 
L 308.120904 144.00105 
L 308.730851 143.964822 
L 309.340799 143.79013 
L 309.950746 143.892906 
L 310.560693 144.133119 
L 311.780587 144.060913 
L 312.390534 144.298939 
L 314.220376 144.598253 
L 314.830323 144.832651 
L 315.44027 144.660105 
L 316.050217 144.89321 
L 317.880059 145.1839 
L 318.490006 145.41351 
L 319.099953 145.108728 
L 319.7099 145.071407 
L 320.929795 145.262047 
L 321.539742 145.48874 
L 322.149689 145.450881 
L 323.369583 145.900167 
L 323.979531 145.861603 
L 324.589478 146.084237 
L 325.199425 145.915219 
L 325.809372 145.617098 
L 326.419319 145.838738 
L 327.029266 145.671469 
L 328.249161 145.596652 
L 328.859108 145.687896 
L 329.469055 145.650617 
L 330.688949 145.831605 
L 331.298897 145.794251 
L 331.908844 145.884004 
L 332.518791 145.720065 
L 333.128738 145.683224 
L 333.738685 145.898684 
L 334.95858 145.824696 
L 335.568527 145.913165 
L 336.178474 146.126173 
L 336.788421 146.213564 
L 337.398368 146.176202 
L 338.008315 146.263097 
L 339.22821 146.188637 
L 339.838157 146.274927 
L 341.058051 146.200914 
L 341.667998 146.286599 
L 342.277946 146.249734 
L 342.887893 146.091105 
L 343.49784 146.176475 
L 344.107787 145.897309 
L 344.717734 145.861603 
L 345.327681 146.067776 
L 345.937629 146.152459 
L 346.547576 146.116439 
L 347.157523 145.960494 
L 347.76747 146.044853 
L 348.377417 145.889737 
L 349.597312 145.819585 
L 350.207259 146.022328 
L 350.817206 146.105661 
L 351.427153 145.95206 
L 352.0371 145.91715 
L 352.647048 146.117963 
L 353.256995 145.965315 
L 353.866942 146.165184 
L 354.476889 146.247158 
L 355.696783 146.176981 
L 356.306731 146.374729 
L 358.136572 146.269542 
L 358.746519 146.119429 
L 359.966414 146.050801 
L 360.576361 146.131326 
L 361.186308 145.982729 
L 361.796255 145.948904 
L 362.406202 145.801293 
L 364.236044 146.04144 
L 366.675832 145.907855 
L 367.28578 145.986879 
L 367.895727 145.953725 
L 369.725568 146.522207 
L 369.725568 146.522207 
" style="fill:none;stroke:#9467bd;stroke-linecap:square;stroke-width:1.5;"/>
   </g>
   <g id="line2d_21">
    <path clip-path="url(#p6edf36f10c)" d="M 65.361932 73.914541 
L 65.971879 101.712275 
L 66.581826 110.978183 
L 67.191773 129.51 
L 67.80172 151.748185 
L 68.411668 157.307725 
L 69.021615 161.278829 
L 69.631562 164.257159 
L 70.241509 160.396361 
L 70.851456 146.188637 
L 72.071351 143.408867 
L 73.291245 149.365518 
L 73.901192 140.629088 
L 74.511139 136.459433 
L 75.121086 136.050641 
L 75.731034 141.864545 
L 76.340981 141.214304 
L 76.950928 146.188637 
L 78.170822 144.672399 
L 78.780769 146.430358 
L 79.390717 145.725342 
L 80.000664 147.300548 
L 81.220558 141.864545 
L 81.830505 139.437763 
L 82.440452 139.095428 
L 83.0504 133.216368 
L 83.660347 134.890208 
L 84.270294 138.19679 
L 84.880241 136.248845 
L 85.490188 139.320962 
L 86.710083 135.687272 
L 87.32003 137.022903 
L 87.929977 139.751268 
L 88.539924 139.488671 
L 89.149871 137.849318 
L 89.759819 140.357891 
L 91.58966 143.408867 
L 92.809554 142.804564 
L 93.419502 140.155943 
L 94.029449 142.250629 
L 95.249343 143.964822 
L 96.469237 141.27058 
L 97.079185 142.09765 
L 98.299079 141.639922 
L 98.909026 138.444989 
L 100.12892 138.136885 
L 100.738868 137.048369 
L 101.348815 138.775908 
L 101.958762 138.624015 
L 102.568709 137.580308 
L 103.178656 138.334675 
L 105.008498 137.933554 
L 105.618445 139.467396 
L 106.228392 138.503386 
L 108.668181 138.003756 
L 109.888075 139.276773 
L 110.498022 138.405274 
L 111.107969 136.825197 
L 111.717917 136.008176 
L 112.327864 137.350384 
L 112.937811 137.954878 
L 113.547758 139.239203 
L 114.767652 137.645921 
L 115.3776 138.887549 
L 115.987547 138.775908 
L 116.597494 138.012835 
L 117.207441 139.206886 
L 117.817388 139.734451 
L 118.427335 138.986497 
L 119.037283 140.129359 
L 119.64723 140.011365 
L 120.257177 139.285024 
L 120.867124 139.178777 
L 123.306913 141.092392 
L 123.91686 140.972981 
L 124.526807 141.423311 
L 125.136754 140.741408 
L 125.746701 140.629088 
L 126.356649 141.619899 
L 126.966596 140.956122 
L 127.576543 140.844996 
L 128.796437 142.747012 
L 129.406384 142.09765 
L 130.016332 142.499591 
L 131.236226 141.241154 
L 131.846173 141.134509 
L 132.45612 140.028058 
L 133.066067 140.926928 
L 133.676015 140.825892 
L 135.505856 143.408867 
L 136.115803 143.290069 
L 136.72575 143.644441 
L 137.945645 143.408867 
L 139.165539 145.003815 
L 139.775486 144.425856 
L 140.385433 145.202267 
L 141.605328 144.953181 
L 142.215275 145.7071 
L 142.825222 145.146223 
L 143.435169 145.025014 
L 144.655064 145.636931 
L 145.265011 145.514753 
L 145.874958 146.23044 
L 146.484905 146.52055 
L 147.704799 146.270395 
L 148.314747 146.553861 
L 148.924694 147.236087 
L 149.534641 146.708597 
L 150.144588 146.585748 
L 151.364482 147.128283 
L 151.97443 146.616292 
L 152.584377 146.497503 
L 153.194324 147.14718 
L 153.804271 147.026377 
L 154.414218 146.150819 
L 155.634113 147.419942 
L 156.24406 147.300548 
L 156.854007 146.814546 
L 157.463954 147.43222 
L 158.683848 147.199462 
L 159.293796 146.726657 
L 159.903743 147.329055 
L 160.51369 146.861452 
L 161.123637 147.455366 
L 162.953479 148.156928 
L 163.563426 148.041817 
L 164.173373 148.269206 
L 164.78332 148.154816 
L 165.393267 148.378759 
L 166.003214 147.930185 
L 166.613162 148.152786 
L 167.223109 148.703672 
L 167.833056 148.590101 
L 168.443003 148.804898 
L 169.05295 148.366937 
L 170.272845 149.434386 
L 170.882792 149.00036 
L 172.712633 149.612309 
L 173.932528 150.630061 
L 175.152422 151.011009 
L 175.762369 150.281927 
L 176.982263 150.056144 
L 177.592211 150.546123 
L 178.202158 150.731925 
L 180.031999 150.395066 
L 180.641946 150.577753 
L 181.251894 150.176375 
L 181.861841 150.3583 
L 182.471788 149.962216 
L 183.081735 150.143362 
L 183.691682 150.037554 
L 184.301629 150.216472 
L 184.911577 149.829153 
L 186.131471 150.18369 
L 186.741418 149.802344 
L 187.351365 150.254572 
L 187.961312 150.151879 
L 188.57126 150.324061 
L 189.791154 150.121003 
L 191.011048 150.459013 
L 191.620995 150.3583 
L 192.230943 149.992537 
L 194.670731 150.651931 
L 195.890626 151.489597 
L 198.330414 152.103585 
L 198.940361 152.000891 
L 199.550309 152.402244 
L 200.160256 151.798272 
L 200.770203 152.196933 
L 201.990097 152.489454 
L 202.600044 151.895779 
L 203.209992 152.286992 
L 203.819939 151.943257 
L 204.429886 151.845294 
L 205.039833 152.231619 
L 206.259727 152.515019 
L 206.869675 152.893499 
L 208.699516 153.30297 
L 209.91941 152.635839 
L 210.529358 152.539077 
L 211.139305 152.21148 
L 213.579093 152.750726 
L 214.189041 152.428945 
L 214.798988 152.335779 
L 216.018882 152.60005 
L 216.628829 152.507315 
L 217.848724 153.210053 
L 218.458671 153.116009 
L 219.068618 152.802959 
L 220.288512 153.056312 
L 222.118354 152.782513 
L 222.728301 152.907317 
L 223.338248 153.24498 
L 225.16809 152.974238 
L 225.778037 153.306541 
L 226.387984 152.797152 
L 226.997931 152.709611 
L 227.607878 153.039163 
L 228.827773 152.864222 
L 229.43772 152.365909 
L 230.047667 152.691866 
L 231.267561 152.522036 
L 232.487456 152.759011 
L 233.097403 152.473341 
L 233.70735 152.390439 
L 234.317297 152.708103 
L 235.537191 152.93951 
L 236.147139 152.658289 
L 236.757086 151.984762 
L 237.367033 152.101795 
L 237.97698 151.630729 
L 238.586927 151.943257 
L 239.196874 151.864821 
L 240.416769 151.323495 
L 241.026716 151.248016 
L 241.636663 150.981351 
L 242.24661 151.098616 
L 243.466505 150.571763 
L 244.076452 150.50012 
L 245.296346 150.733938 
L 245.906293 150.475292 
L 246.51624 150.031813 
L 247.736135 150.636274 
L 248.346082 150.566089 
L 248.956029 150.680454 
L 250.785871 150.472218 
L 251.395818 150.585399 
L 252.005765 150.516755 
L 252.615712 150.62905 
L 253.225659 150.380784 
L 253.835606 150.492805 
L 254.445554 150.067809 
L 255.665448 150.646928 
L 256.275395 150.579617 
L 257.495289 150.094393 
L 258.715184 149.964933 
L 259.325131 149.726534 
L 260.545025 149.60057 
L 261.154972 149.365518 
L 261.76492 149.476172 
L 262.984814 150.037554 
L 263.594761 150.145127 
L 264.814655 150.019304 
L 265.424603 150.294925 
L 266.03455 150.400418 
L 266.644497 150.169342 
L 267.254444 150.27457 
L 267.864391 150.045259 
L 269.084286 149.922658 
L 269.694233 150.192836 
L 270.30418 149.966491 
L 272.134021 149.785991 
L 273.353916 149.017177 
L 273.963863 148.960305 
L 274.57381 149.065375 
L 275.183757 148.847554 
L 275.793704 148.952343 
L 276.403652 149.216747 
L 277.623546 149.103815 
L 278.233493 149.206674 
L 278.84344 149.150564 
L 279.453387 148.936819 
L 280.063335 148.566797 
L 280.673282 148.512965 
L 281.283229 148.302832 
L 281.893176 148.250044 
L 284.942912 148.760502 
L 285.552859 148.553749 
L 286.162806 148.807599 
L 286.772753 148.907318 
L 287.382701 148.854174 
L 289.212542 149.149702 
L 289.822489 148.945807 
L 293.482172 149.524362 
L 294.092119 149.766854 
L 294.702067 149.56566 
L 295.312014 149.806752 
L 295.921961 149.899893 
L 296.531908 149.846235 
L 297.141855 150.084701 
L 297.751802 150.176375 
L 298.36175 149.977261 
L 298.971697 149.923959 
L 300.191591 149.242064 
L 300.801538 149.191082 
L 301.411485 149.42693 
L 302.021433 149.518646 
L 302.63138 149.182243 
L 303.241327 148.989739 
L 304.461221 149.456464 
L 305.071168 149.26473 
L 306.291063 149.164962 
L 306.90101 148.835376 
L 307.510957 148.786813 
L 308.120904 148.599164 
L 308.730851 148.690433 
L 309.950746 148.595005 
L 310.560693 148.685603 
L 311.17064 148.362919 
L 311.780587 148.453641 
L 312.390534 148.680848 
L 313.000482 148.770344 
L 313.610429 148.58687 
L 314.220376 148.676159 
L 314.830323 148.62941 
L 316.050217 148.806481 
L 316.660165 149.02899 
L 317.270112 149.116125 
L 317.880059 148.533022 
L 320.319848 148.35142 
L 320.929795 148.571304 
L 321.539742 148.526022 
L 322.149689 148.612701 
L 323.369583 148.5226 
L 323.979531 148.608675 
L 325.199425 149.040017 
L 325.809372 148.994387 
L 326.419319 148.819379 
L 327.029266 148.903764 
L 327.639214 149.116755 
L 328.249161 149.200054 
L 328.859108 149.154581 
L 329.469055 148.981223 
L 330.079002 149.064265 
L 330.688949 149.019414 
L 331.298897 149.229215 
L 333.128738 149.47382 
L 334.95858 149.338627 
L 335.568527 149.168756 
L 336.178474 149.124575 
L 336.788421 149.329904 
L 337.398368 149.285566 
L 338.008315 149.117327 
L 339.22821 149.030183 
L 339.838157 149.110169 
L 340.448104 149.066809 
L 341.667998 148.49083 
L 343.49784 149.096143 
L 344.107787 148.931997 
L 344.717734 148.88968 
L 345.327681 148.968407 
L 347.76747 149.759208 
L 349.597312 149.986274 
L 350.207259 150.180103 
L 350.817206 150.017489 
L 351.427153 149.973864 
L 352.0371 149.812377 
L 352.647048 149.887152 
L 354.476889 149.758454 
L 355.086836 149.832707 
L 355.696783 149.673556 
L 356.916678 150.053626 
L 357.526625 149.779181 
L 358.136572 149.968206 
L 358.746519 149.925757 
L 359.356466 149.768387 
L 359.966414 149.726534 
L 360.576361 149.570216 
L 361.186308 149.528944 
L 363.626097 150.273203 
L 365.455938 150.485159 
L 366.065885 150.217623 
L 367.895727 150.540076 
L 369.115621 150.121541 
L 369.725568 150.191511 
L 369.725568 150.191511 
" style="fill:none;stroke:#8c564b;stroke-linecap:square;stroke-width:1.5;"/>
   </g>
   <g id="line2d_22">
    <path clip-path="url(#p6edf36f10c)" d="M 50.14375 147.856501 
L 384.94375 147.856501 
" style="fill:none;stroke:#000000;stroke-dasharray:5.55,2.4;stroke-dashoffset:0;stroke-width:1.5;"/>
   </g>
   <g id="patch_3">
    <path d="M 50.14375 251.82 
L 50.14375 7.2 
" style="fill:none;stroke:#000000;stroke-linecap:square;stroke-linejoin:miter;stroke-width:0.8;"/>
   </g>
   <g id="patch_4">
    <path d="M 384.94375 251.82 
L 384.94375 7.2 
" style="fill:none;stroke:#000000;stroke-linecap:square;stroke-linejoin:miter;stroke-width:0.8;"/>
   </g>
   <g id="patch_5">
    <path d="M 50.14375 251.82 
L 384.94375 251.82 
" style="fill:none;stroke:#000000;stroke-linecap:square;stroke-linejoin:miter;stroke-width:0.8;"/>
   </g>
   <g id="patch_6">
    <path d="M 50.14375 7.2 
L 384.94375 7.2 
" style="fill:none;stroke:#000000;stroke-linecap:square;stroke-linejoin:miter;stroke-width:0.8;"/>
   </g>
   <g id="legend_1">
    <g id="patch_7">
     <path d="M 302.089063 103.26875 
L 377.94375 103.26875 
Q 379.94375 103.26875 379.94375 101.26875 
L 379.94375 14.2 
Q 379.94375 12.2 377.94375 12.2 
L 302.089063 12.2 
Q 300.089063 12.2 300.089063 14.2 
L 300.089063 101.26875 
Q 300.089063 103.26875 302.089063 103.26875 
z
" style="fill:#ffffff;opacity:0.8;stroke:#cccccc;stroke-linejoin:miter;"/>
    </g>
    <g id="line2d_23">
     <path d="M 304.089063 20.298437 
L 324.089063 20.298437 
" style="fill:none;stroke:#1f77b4;stroke-linecap:square;stroke-width:1.5;"/>
    </g>
    <g id="line2d_24"/>
    <g id="text_18">
     <!-- P(die=1) -->
     <g transform="translate(332.089063 23.798437)scale(0.1 -0.1)">
      <defs>
       <path d="M 19.671875 64.796875 
L 19.671875 37.40625 
L 32.078125 37.40625 
Q 38.96875 37.40625 42.71875 40.96875 
Q 46.484375 44.53125 46.484375 51.125 
Q 46.484375 57.671875 42.71875 61.234375 
Q 38.96875 64.796875 32.078125 64.796875 
z
M 9.8125 72.90625 
L 32.078125 72.90625 
Q 44.34375 72.90625 50.609375 67.359375 
Q 56.890625 61.8125 56.890625 51.125 
Q 56.890625 40.328125 50.609375 34.8125 
Q 44.34375 29.296875 32.078125 29.296875 
L 19.671875 29.296875 
L 19.671875 0 
L 9.8125 0 
z
" id="DejaVuSans-80"/>
       <path d="M 31 75.875 
Q 24.46875 64.65625 21.28125 53.65625 
Q 18.109375 42.671875 18.109375 31.390625 
Q 18.109375 20.125 21.3125 9.0625 
Q 24.515625 -2 31 -13.1875 
L 23.1875 -13.1875 
Q 15.875 -1.703125 12.234375 9.375 
Q 8.59375 20.453125 8.59375 31.390625 
Q 8.59375 42.28125 12.203125 53.3125 
Q 15.828125 64.359375 23.1875 75.875 
z
" id="DejaVuSans-40"/>
       <path d="M 10.59375 45.40625 
L 73.1875 45.40625 
L 73.1875 37.203125 
L 10.59375 37.203125 
z
M 10.59375 25.484375 
L 73.1875 25.484375 
L 73.1875 17.1875 
L 10.59375 17.1875 
z
" id="DejaVuSans-61"/>
       <path d="M 8.015625 75.875 
L 15.828125 75.875 
Q 23.140625 64.359375 26.78125 53.3125 
Q 30.421875 42.28125 30.421875 31.390625 
Q 30.421875 20.453125 26.78125 9.375 
Q 23.140625 -1.703125 15.828125 -13.1875 
L 8.015625 -13.1875 
Q 14.5 -2 17.703125 9.0625 
Q 20.90625 20.125 20.90625 31.390625 
Q 20.90625 42.671875 17.703125 53.65625 
Q 14.5 64.65625 8.015625 75.875 
z
" id="DejaVuSans-41"/>
      </defs>
      <use xlink:href="#DejaVuSans-80"/>
      <use x="60.302734" xlink:href="#DejaVuSans-40"/>
      <use x="99.316406" xlink:href="#DejaVuSans-100"/>
      <use x="162.792969" xlink:href="#DejaVuSans-105"/>
      <use x="190.576172" xlink:href="#DejaVuSans-101"/>
      <use x="252.099609" xlink:href="#DejaVuSans-61"/>
      <use x="335.888672" xlink:href="#DejaVuSans-49"/>
      <use x="399.511719" xlink:href="#DejaVuSans-41"/>
     </g>
    </g>
    <g id="line2d_25">
     <path d="M 304.089063 34.976562 
L 324.089063 34.976562 
" style="fill:none;stroke:#ff7f0e;stroke-linecap:square;stroke-width:1.5;"/>
    </g>
    <g id="line2d_26"/>
    <g id="text_19">
     <!-- P(die=2) -->
     <g transform="translate(332.089063 38.476562)scale(0.1 -0.1)">
      <use xlink:href="#DejaVuSans-80"/>
      <use x="60.302734" xlink:href="#DejaVuSans-40"/>
      <use x="99.316406" xlink:href="#DejaVuSans-100"/>
      <use x="162.792969" xlink:href="#DejaVuSans-105"/>
      <use x="190.576172" xlink:href="#DejaVuSans-101"/>
      <use x="252.099609" xlink:href="#DejaVuSans-61"/>
      <use x="335.888672" xlink:href="#DejaVuSans-50"/>
      <use x="399.511719" xlink:href="#DejaVuSans-41"/>
     </g>
    </g>
    <g id="line2d_27">
     <path d="M 304.089063 49.654687 
L 324.089063 49.654687 
" style="fill:none;stroke:#2ca02c;stroke-linecap:square;stroke-width:1.5;"/>
    </g>
    <g id="line2d_28"/>
    <g id="text_20">
     <!-- P(die=3) -->
     <g transform="translate(332.089063 53.154687)scale(0.1 -0.1)">
      <use xlink:href="#DejaVuSans-80"/>
      <use x="60.302734" xlink:href="#DejaVuSans-40"/>
      <use x="99.316406" xlink:href="#DejaVuSans-100"/>
      <use x="162.792969" xlink:href="#DejaVuSans-105"/>
      <use x="190.576172" xlink:href="#DejaVuSans-101"/>
      <use x="252.099609" xlink:href="#DejaVuSans-61"/>
      <use x="335.888672" xlink:href="#DejaVuSans-51"/>
      <use x="399.511719" xlink:href="#DejaVuSans-41"/>
     </g>
    </g>
    <g id="line2d_29">
     <path d="M 304.089063 64.332812 
L 324.089063 64.332812 
" style="fill:none;stroke:#d62728;stroke-linecap:square;stroke-width:1.5;"/>
    </g>
    <g id="line2d_30"/>
    <g id="text_21">
     <!-- P(die=4) -->
     <g transform="translate(332.089063 67.832812)scale(0.1 -0.1)">
      <use xlink:href="#DejaVuSans-80"/>
      <use x="60.302734" xlink:href="#DejaVuSans-40"/>
      <use x="99.316406" xlink:href="#DejaVuSans-100"/>
      <use x="162.792969" xlink:href="#DejaVuSans-105"/>
      <use x="190.576172" xlink:href="#DejaVuSans-101"/>
      <use x="252.099609" xlink:href="#DejaVuSans-61"/>
      <use x="335.888672" xlink:href="#DejaVuSans-52"/>
      <use x="399.511719" xlink:href="#DejaVuSans-41"/>
     </g>
    </g>
    <g id="line2d_31">
     <path d="M 304.089063 79.010937 
L 324.089063 79.010937 
" style="fill:none;stroke:#9467bd;stroke-linecap:square;stroke-width:1.5;"/>
    </g>
    <g id="line2d_32"/>
    <g id="text_22">
     <!-- P(die=5) -->
     <g transform="translate(332.089063 82.510937)scale(0.1 -0.1)">
      <use xlink:href="#DejaVuSans-80"/>
      <use x="60.302734" xlink:href="#DejaVuSans-40"/>
      <use x="99.316406" xlink:href="#DejaVuSans-100"/>
      <use x="162.792969" xlink:href="#DejaVuSans-105"/>
      <use x="190.576172" xlink:href="#DejaVuSans-101"/>
      <use x="252.099609" xlink:href="#DejaVuSans-61"/>
      <use x="335.888672" xlink:href="#DejaVuSans-53"/>
      <use x="399.511719" xlink:href="#DejaVuSans-41"/>
     </g>
    </g>
    <g id="line2d_33">
     <path d="M 304.089063 93.689062 
L 324.089063 93.689062 
" style="fill:none;stroke:#8c564b;stroke-linecap:square;stroke-width:1.5;"/>
    </g>
    <g id="line2d_34"/>
    <g id="text_23">
     <!-- P(die=6) -->
     <g transform="translate(332.089063 97.189062)scale(0.1 -0.1)">
      <defs>
       <path d="M 33.015625 40.375 
Q 26.375 40.375 22.484375 35.828125 
Q 18.609375 31.296875 18.609375 23.390625 
Q 18.609375 15.53125 22.484375 10.953125 
Q 26.375 6.390625 33.015625 6.390625 
Q 39.65625 6.390625 43.53125 10.953125 
Q 47.40625 15.53125 47.40625 23.390625 
Q 47.40625 31.296875 43.53125 35.828125 
Q 39.65625 40.375 33.015625 40.375 
z
M 52.59375 71.296875 
L 52.59375 62.3125 
Q 48.875 64.0625 45.09375 64.984375 
Q 41.3125 65.921875 37.59375 65.921875 
Q 27.828125 65.921875 22.671875 59.328125 
Q 17.53125 52.734375 16.796875 39.40625 
Q 19.671875 43.65625 24.015625 45.921875 
Q 28.375 48.1875 33.59375 48.1875 
Q 44.578125 48.1875 50.953125 41.515625 
Q 57.328125 34.859375 57.328125 23.390625 
Q 57.328125 12.15625 50.6875 5.359375 
Q 44.046875 -1.421875 33.015625 -1.421875 
Q 20.359375 -1.421875 13.671875 8.265625 
Q 6.984375 17.96875 6.984375 36.375 
Q 6.984375 53.65625 15.1875 63.9375 
Q 23.390625 74.21875 37.203125 74.21875 
Q 40.921875 74.21875 44.703125 73.484375 
Q 48.484375 72.75 52.59375 71.296875 
z
" id="DejaVuSans-54"/>
      </defs>
      <use xlink:href="#DejaVuSans-80"/>
      <use x="60.302734" xlink:href="#DejaVuSans-40"/>
      <use x="99.316406" xlink:href="#DejaVuSans-100"/>
      <use x="162.792969" xlink:href="#DejaVuSans-105"/>
      <use x="190.576172" xlink:href="#DejaVuSans-101"/>
      <use x="252.099609" xlink:href="#DejaVuSans-61"/>
      <use x="335.888672" xlink:href="#DejaVuSans-54"/>
      <use x="399.511719" xlink:href="#DejaVuSans-41"/>
     </g>
    </g>
   </g>
  </g>
 </g>
 <defs>
  <clipPath id="p6edf36f10c">
   <rect height="244.62" width="334.8" x="50.14375" y="7.2"/>
  </clipPath>
 </defs>
</svg>
