<?xml version="1.0" encoding="utf-8" standalone="no"?>
<!DOCTYPE svg PUBLIC "-//W3C//DTD SVG 1.1//EN"
  "http://www.w3.org/Graphics/SVG/1.1/DTD/svg11.dtd">
<!-- Created with matplotlib (https://matplotlib.org/) -->
<svg height="289.37625pt" version="1.1" viewBox="0 0 392.14375 289.37625" width="392.14375pt" xmlns="http://www.w3.org/2000/svg" xmlns:xlink="http://www.w3.org/1999/xlink">
 <metadata>
  <rdf:RDF xmlns:cc="http://creativecommons.org/ns#" xmlns:dc="http://purl.org/dc/elements/1.1/" xmlns:rdf="http://www.w3.org/1999/02/22-rdf-syntax-ns#">
   <cc:Work>
    <dc:type rdf:resource="http://purl.org/dc/dcmitype/StillImage"/>
    <dc:date>2022-01-22T16:08:59.526173</dc:date>
    <dc:format>image/svg+xml</dc:format>
    <dc:creator>
     <cc:Agent>
      <dc:title>Matplotlib v3.3.3, https://matplotlib.org/</dc:title>
     </cc:Agent>
    </dc:creator>
   </cc:Work>
  </rdf:RDF>
 </metadata>
 <defs>
  <style type="text/css">*{stroke-linecap:butt;stroke-linejoin:round;}</style>
 </defs>
 <g id="figure_1">
  <g id="patch_1">
   <path d="M 0 289.37625 
L 392.14375 289.37625 
L 392.14375 0 
L 0 0 
z
" style="fill:none;"/>
  </g>
  <g id="axes_1">
   <g id="patch_2">
    <path d="M 50.14375 251.82 
L 384.94375 251.82 
L 384.94375 7.2 
L 50.14375 7.2 
z
" style="fill:#ffffff;"/>
   </g>
   <g id="matplotlib.axis_1">
    <g id="xtick_1">
     <g id="line2d_1">
      <defs>
       <path d="M 0 0 
L 0 3.5 
" id="mb02c4556ef" style="stroke:#000000;stroke-width:0.8;"/>
      </defs>
      <g>
       <use style="stroke:#000000;stroke-width:0.8;" x="65.361932" xlink:href="#mb02c4556ef" y="251.82"/>
      </g>
     </g>
     <g id="text_1">
      <!-- 0 -->
      <g transform="translate(62.180682 266.418437)scale(0.1 -0.1)">
       <defs>
        <path d="M 31.78125 66.40625 
Q 24.171875 66.40625 20.328125 58.90625 
Q 16.5 51.421875 16.5 36.375 
Q 16.5 21.390625 20.328125 13.890625 
Q 24.171875 6.390625 31.78125 6.390625 
Q 39.453125 6.390625 43.28125 13.890625 
Q 47.125 21.390625 47.125 36.375 
Q 47.125 51.421875 43.28125 58.90625 
Q 39.453125 66.40625 31.78125 66.40625 
z
M 31.78125 74.21875 
Q 44.046875 74.21875 50.515625 64.515625 
Q 56.984375 54.828125 56.984375 36.375 
Q 56.984375 17.96875 50.515625 8.265625 
Q 44.046875 -1.421875 31.78125 -1.421875 
Q 19.53125 -1.421875 13.0625 8.265625 
Q 6.59375 17.96875 6.59375 36.375 
Q 6.59375 54.828125 13.0625 64.515625 
Q 19.53125 74.21875 31.78125 74.21875 
z
" id="DejaVuSans-48"/>
       </defs>
       <use xlink:href="#DejaVuSans-48"/>
      </g>
     </g>
    </g>
    <g id="xtick_2">
     <g id="line2d_2">
      <g>
       <use style="stroke:#000000;stroke-width:0.8;" x="126.356649" xlink:href="#mb02c4556ef" y="251.82"/>
      </g>
     </g>
     <g id="text_2">
      <!-- 100 -->
      <g transform="translate(116.812899 266.418437)scale(0.1 -0.1)">
       <defs>
        <path d="M 12.40625 8.296875 
L 28.515625 8.296875 
L 28.515625 63.921875 
L 10.984375 60.40625 
L 10.984375 69.390625 
L 28.421875 72.90625 
L 38.28125 72.90625 
L 38.28125 8.296875 
L 54.390625 8.296875 
L 54.390625 0 
L 12.40625 0 
z
" id="DejaVuSans-49"/>
       </defs>
       <use xlink:href="#DejaVuSans-49"/>
       <use x="63.623047" xlink:href="#DejaVuSans-48"/>
       <use x="127.246094" xlink:href="#DejaVuSans-48"/>
      </g>
     </g>
    </g>
    <g id="xtick_3">
     <g id="line2d_3">
      <g>
       <use style="stroke:#000000;stroke-width:0.8;" x="187.351365" xlink:href="#mb02c4556ef" y="251.82"/>
      </g>
     </g>
     <g id="text_3">
      <!-- 200 -->
      <g transform="translate(177.807615 266.418437)scale(0.1 -0.1)">
       <defs>
        <path d="M 19.1875 8.296875 
L 53.609375 8.296875 
L 53.609375 0 
L 7.328125 0 
L 7.328125 8.296875 
Q 12.9375 14.109375 22.625 23.890625 
Q 32.328125 33.6875 34.8125 36.53125 
Q 39.546875 41.84375 41.421875 45.53125 
Q 43.3125 49.21875 43.3125 52.78125 
Q 43.3125 58.59375 39.234375 62.25 
Q 35.15625 65.921875 28.609375 65.921875 
Q 23.96875 65.921875 18.8125 64.3125 
Q 13.671875 62.703125 7.8125 59.421875 
L 7.8125 69.390625 
Q 13.765625 71.78125 18.9375 73 
Q 24.125 74.21875 28.421875 74.21875 
Q 39.75 74.21875 46.484375 68.546875 
Q 53.21875 62.890625 53.21875 53.421875 
Q 53.21875 48.921875 51.53125 44.890625 
Q 49.859375 40.875 45.40625 35.40625 
Q 44.1875 33.984375 37.640625 27.21875 
Q 31.109375 20.453125 19.1875 8.296875 
z
" id="DejaVuSans-50"/>
       </defs>
       <use xlink:href="#DejaVuSans-50"/>
       <use x="63.623047" xlink:href="#DejaVuSans-48"/>
       <use x="127.246094" xlink:href="#DejaVuSans-48"/>
      </g>
     </g>
    </g>
    <g id="xtick_4">
     <g id="line2d_4">
      <g>
       <use style="stroke:#000000;stroke-width:0.8;" x="248.346082" xlink:href="#mb02c4556ef" y="251.82"/>
      </g>
     </g>
     <g id="text_4">
      <!-- 300 -->
      <g transform="translate(238.802332 266.418437)scale(0.1 -0.1)">
       <defs>
        <path d="M 40.578125 39.3125 
Q 47.65625 37.796875 51.625 33 
Q 55.609375 28.21875 55.609375 21.1875 
Q 55.609375 10.40625 48.1875 4.484375 
Q 40.765625 -1.421875 27.09375 -1.421875 
Q 22.515625 -1.421875 17.65625 -0.515625 
Q 12.796875 0.390625 7.625 2.203125 
L 7.625 11.71875 
Q 11.71875 9.328125 16.59375 8.109375 
Q 21.484375 6.890625 26.8125 6.890625 
Q 36.078125 6.890625 40.9375 10.546875 
Q 45.796875 14.203125 45.796875 21.1875 
Q 45.796875 27.640625 41.28125 31.265625 
Q 36.765625 34.90625 28.71875 34.90625 
L 20.21875 34.90625 
L 20.21875 43.015625 
L 29.109375 43.015625 
Q 36.375 43.015625 40.234375 45.921875 
Q 44.09375 48.828125 44.09375 54.296875 
Q 44.09375 59.90625 40.109375 62.90625 
Q 36.140625 65.921875 28.71875 65.921875 
Q 24.65625 65.921875 20.015625 65.03125 
Q 15.375 64.15625 9.8125 62.3125 
L 9.8125 71.09375 
Q 15.4375 72.65625 20.34375 73.4375 
Q 25.25 74.21875 29.59375 74.21875 
Q 40.828125 74.21875 47.359375 69.109375 
Q 53.90625 64.015625 53.90625 55.328125 
Q 53.90625 49.265625 50.4375 45.09375 
Q 46.96875 40.921875 40.578125 39.3125 
z
" id="DejaVuSans-51"/>
       </defs>
       <use xlink:href="#DejaVuSans-51"/>
       <use x="63.623047" xlink:href="#DejaVuSans-48"/>
       <use x="127.246094" xlink:href="#DejaVuSans-48"/>
      </g>
     </g>
    </g>
    <g id="xtick_5">
     <g id="line2d_5">
      <g>
       <use style="stroke:#000000;stroke-width:0.8;" x="309.340799" xlink:href="#mb02c4556ef" y="251.82"/>
      </g>
     </g>
     <g id="text_5">
      <!-- 400 -->
      <g transform="translate(299.797049 266.418437)scale(0.1 -0.1)">
       <defs>
        <path d="M 37.796875 64.3125 
L 12.890625 25.390625 
L 37.796875 25.390625 
z
M 35.203125 72.90625 
L 47.609375 72.90625 
L 47.609375 25.390625 
L 58.015625 25.390625 
L 58.015625 17.1875 
L 47.609375 17.1875 
L 47.609375 0 
L 37.796875 0 
L 37.796875 17.1875 
L 4.890625 17.1875 
L 4.890625 26.703125 
z
" id="DejaVuSans-52"/>
       </defs>
       <use xlink:href="#DejaVuSans-52"/>
       <use x="63.623047" xlink:href="#DejaVuSans-48"/>
       <use x="127.246094" xlink:href="#DejaVuSans-48"/>
      </g>
     </g>
    </g>
    <g id="xtick_6">
     <g id="line2d_6">
      <g>
       <use style="stroke:#000000;stroke-width:0.8;" x="370.335515" xlink:href="#mb02c4556ef" y="251.82"/>
      </g>
     </g>
     <g id="text_6">
      <!-- 500 -->
      <g transform="translate(360.791765 266.418437)scale(0.1 -0.1)">
       <defs>
        <path d="M 10.796875 72.90625 
L 49.515625 72.90625 
L 49.515625 64.59375 
L 19.828125 64.59375 
L 19.828125 46.734375 
Q 21.96875 47.46875 24.109375 47.828125 
Q 26.265625 48.1875 28.421875 48.1875 
Q 40.625 48.1875 47.75 41.5 
Q 54.890625 34.8125 54.890625 23.390625 
Q 54.890625 11.625 47.5625 5.09375 
Q 40.234375 -1.421875 26.90625 -1.421875 
Q 22.3125 -1.421875 17.546875 -0.640625 
Q 12.796875 0.140625 7.71875 1.703125 
L 7.71875 11.625 
Q 12.109375 9.234375 16.796875 8.0625 
Q 21.484375 6.890625 26.703125 6.890625 
Q 35.15625 6.890625 40.078125 11.328125 
Q 45.015625 15.765625 45.015625 23.390625 
Q 45.015625 31 40.078125 35.4375 
Q 35.15625 39.890625 26.703125 39.890625 
Q 22.75 39.890625 18.8125 39.015625 
Q 14.890625 38.140625 10.796875 36.28125 
z
" id="DejaVuSans-53"/>
       </defs>
       <use xlink:href="#DejaVuSans-53"/>
       <use x="63.623047" xlink:href="#DejaVuSans-48"/>
       <use x="127.246094" xlink:href="#DejaVuSans-48"/>
      </g>
     </g>
    </g>
    <g id="text_7">
     <!-- Groups of experiments -->
     <g transform="translate(160.397656 280.096562)scale(0.1 -0.1)">
      <defs>
       <path d="M 59.515625 10.40625 
L 59.515625 29.984375 
L 43.40625 29.984375 
L 43.40625 38.09375 
L 69.28125 38.09375 
L 69.28125 6.78125 
Q 63.578125 2.734375 56.6875 0.65625 
Q 49.8125 -1.421875 42 -1.421875 
Q 24.90625 -1.421875 15.25 8.5625 
Q 5.609375 18.5625 5.609375 36.375 
Q 5.609375 54.25 15.25 64.234375 
Q 24.90625 74.21875 42 74.21875 
Q 49.125 74.21875 55.546875 72.453125 
Q 61.96875 70.703125 67.390625 67.28125 
L 67.390625 56.78125 
Q 61.921875 61.421875 55.765625 63.765625 
Q 49.609375 66.109375 42.828125 66.109375 
Q 29.4375 66.109375 22.71875 58.640625 
Q 16.015625 51.171875 16.015625 36.375 
Q 16.015625 21.625 22.71875 14.15625 
Q 29.4375 6.6875 42.828125 6.6875 
Q 48.046875 6.6875 52.140625 7.59375 
Q 56.25 8.5 59.515625 10.40625 
z
" id="DejaVuSans-71"/>
       <path d="M 41.109375 46.296875 
Q 39.59375 47.171875 37.8125 47.578125 
Q 36.03125 48 33.890625 48 
Q 26.265625 48 22.1875 43.046875 
Q 18.109375 38.09375 18.109375 28.8125 
L 18.109375 0 
L 9.078125 0 
L 9.078125 54.6875 
L 18.109375 54.6875 
L 18.109375 46.1875 
Q 20.953125 51.171875 25.484375 53.578125 
Q 30.03125 56 36.53125 56 
Q 37.453125 56 38.578125 55.875 
Q 39.703125 55.765625 41.0625 55.515625 
z
" id="DejaVuSans-114"/>
       <path d="M 30.609375 48.390625 
Q 23.390625 48.390625 19.1875 42.75 
Q 14.984375 37.109375 14.984375 27.296875 
Q 14.984375 17.484375 19.15625 11.84375 
Q 23.34375 6.203125 30.609375 6.203125 
Q 37.796875 6.203125 41.984375 11.859375 
Q 46.1875 17.53125 46.1875 27.296875 
Q 46.1875 37.015625 41.984375 42.703125 
Q 37.796875 48.390625 30.609375 48.390625 
z
M 30.609375 56 
Q 42.328125 56 49.015625 48.375 
Q 55.71875 40.765625 55.71875 27.296875 
Q 55.71875 13.875 49.015625 6.21875 
Q 42.328125 -1.421875 30.609375 -1.421875 
Q 18.84375 -1.421875 12.171875 6.21875 
Q 5.515625 13.875 5.515625 27.296875 
Q 5.515625 40.765625 12.171875 48.375 
Q 18.84375 56 30.609375 56 
z
" id="DejaVuSans-111"/>
       <path d="M 8.5 21.578125 
L 8.5 54.6875 
L 17.484375 54.6875 
L 17.484375 21.921875 
Q 17.484375 14.15625 20.5 10.265625 
Q 23.53125 6.390625 29.59375 6.390625 
Q 36.859375 6.390625 41.078125 11.03125 
Q 45.3125 15.671875 45.3125 23.6875 
L 45.3125 54.6875 
L 54.296875 54.6875 
L 54.296875 0 
L 45.3125 0 
L 45.3125 8.40625 
Q 42.046875 3.421875 37.71875 1 
Q 33.40625 -1.421875 27.6875 -1.421875 
Q 18.265625 -1.421875 13.375 4.4375 
Q 8.5 10.296875 8.5 21.578125 
z
M 31.109375 56 
z
" id="DejaVuSans-117"/>
       <path d="M 18.109375 8.203125 
L 18.109375 -20.796875 
L 9.078125 -20.796875 
L 9.078125 54.6875 
L 18.109375 54.6875 
L 18.109375 46.390625 
Q 20.953125 51.265625 25.265625 53.625 
Q 29.59375 56 35.59375 56 
Q 45.5625 56 51.78125 48.09375 
Q 58.015625 40.1875 58.015625 27.296875 
Q 58.015625 14.40625 51.78125 6.484375 
Q 45.5625 -1.421875 35.59375 -1.421875 
Q 29.59375 -1.421875 25.265625 0.953125 
Q 20.953125 3.328125 18.109375 8.203125 
z
M 48.6875 27.296875 
Q 48.6875 37.203125 44.609375 42.84375 
Q 40.53125 48.484375 33.40625 48.484375 
Q 26.265625 48.484375 22.1875 42.84375 
Q 18.109375 37.203125 18.109375 27.296875 
Q 18.109375 17.390625 22.1875 11.75 
Q 26.265625 6.109375 33.40625 6.109375 
Q 40.53125 6.109375 44.609375 11.75 
Q 48.6875 17.390625 48.6875 27.296875 
z
" id="DejaVuSans-112"/>
       <path d="M 44.28125 53.078125 
L 44.28125 44.578125 
Q 40.484375 46.53125 36.375 47.5 
Q 32.28125 48.484375 27.875 48.484375 
Q 21.1875 48.484375 17.84375 46.4375 
Q 14.5 44.390625 14.5 40.28125 
Q 14.5 37.15625 16.890625 35.375 
Q 19.28125 33.59375 26.515625 31.984375 
L 29.59375 31.296875 
Q 39.15625 29.25 43.1875 25.515625 
Q 47.21875 21.78125 47.21875 15.09375 
Q 47.21875 7.46875 41.1875 3.015625 
Q 35.15625 -1.421875 24.609375 -1.421875 
Q 20.21875 -1.421875 15.453125 -0.5625 
Q 10.6875 0.296875 5.421875 2 
L 5.421875 11.28125 
Q 10.40625 8.6875 15.234375 7.390625 
Q 20.0625 6.109375 24.8125 6.109375 
Q 31.15625 6.109375 34.5625 8.28125 
Q 37.984375 10.453125 37.984375 14.40625 
Q 37.984375 18.0625 35.515625 20.015625 
Q 33.0625 21.96875 24.703125 23.78125 
L 21.578125 24.515625 
Q 13.234375 26.265625 9.515625 29.90625 
Q 5.8125 33.546875 5.8125 39.890625 
Q 5.8125 47.609375 11.28125 51.796875 
Q 16.75 56 26.8125 56 
Q 31.78125 56 36.171875 55.265625 
Q 40.578125 54.546875 44.28125 53.078125 
z
" id="DejaVuSans-115"/>
       <path id="DejaVuSans-32"/>
       <path d="M 37.109375 75.984375 
L 37.109375 68.5 
L 28.515625 68.5 
Q 23.6875 68.5 21.796875 66.546875 
Q 19.921875 64.59375 19.921875 59.515625 
L 19.921875 54.6875 
L 34.71875 54.6875 
L 34.71875 47.703125 
L 19.921875 47.703125 
L 19.921875 0 
L 10.890625 0 
L 10.890625 47.703125 
L 2.296875 47.703125 
L 2.296875 54.6875 
L 10.890625 54.6875 
L 10.890625 58.5 
Q 10.890625 67.625 15.140625 71.796875 
Q 19.390625 75.984375 28.609375 75.984375 
z
" id="DejaVuSans-102"/>
       <path d="M 56.203125 29.59375 
L 56.203125 25.203125 
L 14.890625 25.203125 
Q 15.484375 15.921875 20.484375 11.0625 
Q 25.484375 6.203125 34.421875 6.203125 
Q 39.59375 6.203125 44.453125 7.46875 
Q 49.3125 8.734375 54.109375 11.28125 
L 54.109375 2.78125 
Q 49.265625 0.734375 44.1875 -0.34375 
Q 39.109375 -1.421875 33.890625 -1.421875 
Q 20.796875 -1.421875 13.15625 6.1875 
Q 5.515625 13.8125 5.515625 26.8125 
Q 5.515625 40.234375 12.765625 48.109375 
Q 20.015625 56 32.328125 56 
Q 43.359375 56 49.78125 48.890625 
Q 56.203125 41.796875 56.203125 29.59375 
z
M 47.21875 32.234375 
Q 47.125 39.59375 43.09375 43.984375 
Q 39.0625 48.390625 32.421875 48.390625 
Q 24.90625 48.390625 20.390625 44.140625 
Q 15.875 39.890625 15.1875 32.171875 
z
" id="DejaVuSans-101"/>
       <path d="M 54.890625 54.6875 
L 35.109375 28.078125 
L 55.90625 0 
L 45.3125 0 
L 29.390625 21.484375 
L 13.484375 0 
L 2.875 0 
L 24.125 28.609375 
L 4.6875 54.6875 
L 15.28125 54.6875 
L 29.78125 35.203125 
L 44.28125 54.6875 
z
" id="DejaVuSans-120"/>
       <path d="M 9.421875 54.6875 
L 18.40625 54.6875 
L 18.40625 0 
L 9.421875 0 
z
M 9.421875 75.984375 
L 18.40625 75.984375 
L 18.40625 64.59375 
L 9.421875 64.59375 
z
" id="DejaVuSans-105"/>
       <path d="M 52 44.1875 
Q 55.375 50.25 60.0625 53.125 
Q 64.75 56 71.09375 56 
Q 79.640625 56 84.28125 50.015625 
Q 88.921875 44.046875 88.921875 33.015625 
L 88.921875 0 
L 79.890625 0 
L 79.890625 32.71875 
Q 79.890625 40.578125 77.09375 44.375 
Q 74.3125 48.1875 68.609375 48.1875 
Q 61.625 48.1875 57.5625 43.546875 
Q 53.515625 38.921875 53.515625 30.90625 
L 53.515625 0 
L 44.484375 0 
L 44.484375 32.71875 
Q 44.484375 40.625 41.703125 44.40625 
Q 38.921875 48.1875 33.109375 48.1875 
Q 26.21875 48.1875 22.15625 43.53125 
Q 18.109375 38.875 18.109375 30.90625 
L 18.109375 0 
L 9.078125 0 
L 9.078125 54.6875 
L 18.109375 54.6875 
L 18.109375 46.1875 
Q 21.1875 51.21875 25.484375 53.609375 
Q 29.78125 56 35.6875 56 
Q 41.65625 56 45.828125 52.96875 
Q 50 49.953125 52 44.1875 
z
" id="DejaVuSans-109"/>
       <path d="M 54.890625 33.015625 
L 54.890625 0 
L 45.90625 0 
L 45.90625 32.71875 
Q 45.90625 40.484375 42.875 44.328125 
Q 39.84375 48.1875 33.796875 48.1875 
Q 26.515625 48.1875 22.3125 43.546875 
Q 18.109375 38.921875 18.109375 30.90625 
L 18.109375 0 
L 9.078125 0 
L 9.078125 54.6875 
L 18.109375 54.6875 
L 18.109375 46.1875 
Q 21.34375 51.125 25.703125 53.5625 
Q 30.078125 56 35.796875 56 
Q 45.21875 56 50.046875 50.171875 
Q 54.890625 44.34375 54.890625 33.015625 
z
" id="DejaVuSans-110"/>
       <path d="M 18.3125 70.21875 
L 18.3125 54.6875 
L 36.8125 54.6875 
L 36.8125 47.703125 
L 18.3125 47.703125 
L 18.3125 18.015625 
Q 18.3125 11.328125 20.140625 9.421875 
Q 21.96875 7.515625 27.59375 7.515625 
L 36.8125 7.515625 
L 36.8125 0 
L 27.59375 0 
Q 17.1875 0 13.234375 3.875 
Q 9.28125 7.765625 9.28125 18.015625 
L 9.28125 47.703125 
L 2.6875 47.703125 
L 2.6875 54.6875 
L 9.28125 54.6875 
L 9.28125 70.21875 
z
" id="DejaVuSans-116"/>
      </defs>
      <use xlink:href="#DejaVuSans-71"/>
      <use x="77.490234" xlink:href="#DejaVuSans-114"/>
      <use x="116.353516" xlink:href="#DejaVuSans-111"/>
      <use x="177.535156" xlink:href="#DejaVuSans-117"/>
      <use x="240.914062" xlink:href="#DejaVuSans-112"/>
      <use x="304.390625" xlink:href="#DejaVuSans-115"/>
      <use x="356.490234" xlink:href="#DejaVuSans-32"/>
      <use x="388.277344" xlink:href="#DejaVuSans-111"/>
      <use x="449.458984" xlink:href="#DejaVuSans-102"/>
      <use x="484.664062" xlink:href="#DejaVuSans-32"/>
      <use x="516.451172" xlink:href="#DejaVuSans-101"/>
      <use x="576.224609" xlink:href="#DejaVuSans-120"/>
      <use x="635.404297" xlink:href="#DejaVuSans-112"/>
      <use x="698.880859" xlink:href="#DejaVuSans-101"/>
      <use x="760.404297" xlink:href="#DejaVuSans-114"/>
      <use x="801.517578" xlink:href="#DejaVuSans-105"/>
      <use x="829.300781" xlink:href="#DejaVuSans-109"/>
      <use x="926.712891" xlink:href="#DejaVuSans-101"/>
      <use x="988.236328" xlink:href="#DejaVuSans-110"/>
      <use x="1051.615234" xlink:href="#DejaVuSans-116"/>
      <use x="1090.824219" xlink:href="#DejaVuSans-115"/>
     </g>
    </g>
   </g>
   <g id="matplotlib.axis_2">
    <g id="ytick_1">
     <g id="line2d_7">
      <defs>
       <path d="M 0 0 
L -3.5 0 
" id="m9c6f1b43de" style="stroke:#000000;stroke-width:0.8;"/>
      </defs>
      <g>
       <use style="stroke:#000000;stroke-width:0.8;" x="50.14375" xlink:href="#m9c6f1b43de" y="240.700909"/>
      </g>
     </g>
     <g id="text_8">
      <!-- 0.00 -->
      <g transform="translate(20.878125 244.500128)scale(0.1 -0.1)">
       <defs>
        <path d="M 10.6875 12.40625 
L 21 12.40625 
L 21 0 
L 10.6875 0 
z
" id="DejaVuSans-46"/>
       </defs>
       <use xlink:href="#DejaVuSans-48"/>
       <use x="63.623047" xlink:href="#DejaVuSans-46"/>
       <use x="95.410156" xlink:href="#DejaVuSans-48"/>
       <use x="159.033203" xlink:href="#DejaVuSans-48"/>
      </g>
     </g>
    </g>
    <g id="ytick_2">
     <g id="line2d_8">
      <g>
       <use style="stroke:#000000;stroke-width:0.8;" x="50.14375" xlink:href="#m9c6f1b43de" y="212.903182"/>
      </g>
     </g>
     <g id="text_9">
      <!-- 0.05 -->
      <g transform="translate(20.878125 216.702401)scale(0.1 -0.1)">
       <use xlink:href="#DejaVuSans-48"/>
       <use x="63.623047" xlink:href="#DejaVuSans-46"/>
       <use x="95.410156" xlink:href="#DejaVuSans-48"/>
       <use x="159.033203" xlink:href="#DejaVuSans-53"/>
      </g>
     </g>
    </g>
    <g id="ytick_3">
     <g id="line2d_9">
      <g>
       <use style="stroke:#000000;stroke-width:0.8;" x="50.14375" xlink:href="#m9c6f1b43de" y="185.105455"/>
      </g>
     </g>
     <g id="text_10">
      <!-- 0.10 -->
      <g transform="translate(20.878125 188.904674)scale(0.1 -0.1)">
       <use xlink:href="#DejaVuSans-48"/>
       <use x="63.623047" xlink:href="#DejaVuSans-46"/>
       <use x="95.410156" xlink:href="#DejaVuSans-49"/>
       <use x="159.033203" xlink:href="#DejaVuSans-48"/>
      </g>
     </g>
    </g>
    <g id="ytick_4">
     <g id="line2d_10">
      <g>
       <use style="stroke:#000000;stroke-width:0.8;" x="50.14375" xlink:href="#m9c6f1b43de" y="157.307729"/>
      </g>
     </g>
     <g id="text_11">
      <!-- 0.15 -->
      <g transform="translate(20.878125 161.106947)scale(0.1 -0.1)">
       <use xlink:href="#DejaVuSans-48"/>
       <use x="63.623047" xlink:href="#DejaVuSans-46"/>
       <use x="95.410156" xlink:href="#DejaVuSans-49"/>
       <use x="159.033203" xlink:href="#DejaVuSans-53"/>
      </g>
     </g>
    </g>
    <g id="ytick_5">
     <g id="line2d_11">
      <g>
       <use style="stroke:#000000;stroke-width:0.8;" x="50.14375" xlink:href="#m9c6f1b43de" y="129.510002"/>
      </g>
     </g>
     <g id="text_12">
      <!-- 0.20 -->
      <g transform="translate(20.878125 133.30922)scale(0.1 -0.1)">
       <use xlink:href="#DejaVuSans-48"/>
       <use x="63.623047" xlink:href="#DejaVuSans-46"/>
       <use x="95.410156" xlink:href="#DejaVuSans-50"/>
       <use x="159.033203" xlink:href="#DejaVuSans-48"/>
      </g>
     </g>
    </g>
    <g id="ytick_6">
     <g id="line2d_12">
      <g>
       <use style="stroke:#000000;stroke-width:0.8;" x="50.14375" xlink:href="#m9c6f1b43de" y="101.712275"/>
      </g>
     </g>
     <g id="text_13">
      <!-- 0.25 -->
      <g transform="translate(20.878125 105.511494)scale(0.1 -0.1)">
       <use xlink:href="#DejaVuSans-48"/>
       <use x="63.623047" xlink:href="#DejaVuSans-46"/>
       <use x="95.410156" xlink:href="#DejaVuSans-50"/>
       <use x="159.033203" xlink:href="#DejaVuSans-53"/>
      </g>
     </g>
    </g>
    <g id="ytick_7">
     <g id="line2d_13">
      <g>
       <use style="stroke:#000000;stroke-width:0.8;" x="50.14375" xlink:href="#m9c6f1b43de" y="73.914548"/>
      </g>
     </g>
     <g id="text_14">
      <!-- 0.30 -->
      <g transform="translate(20.878125 77.713767)scale(0.1 -0.1)">
       <use xlink:href="#DejaVuSans-48"/>
       <use x="63.623047" xlink:href="#DejaVuSans-46"/>
       <use x="95.410156" xlink:href="#DejaVuSans-51"/>
       <use x="159.033203" xlink:href="#DejaVuSans-48"/>
      </g>
     </g>
    </g>
    <g id="ytick_8">
     <g id="line2d_14">
      <g>
       <use style="stroke:#000000;stroke-width:0.8;" x="50.14375" xlink:href="#m9c6f1b43de" y="46.116821"/>
      </g>
     </g>
     <g id="text_15">
      <!-- 0.35 -->
      <g transform="translate(20.878125 49.91604)scale(0.1 -0.1)">
       <use xlink:href="#DejaVuSans-48"/>
       <use x="63.623047" xlink:href="#DejaVuSans-46"/>
       <use x="95.410156" xlink:href="#DejaVuSans-51"/>
       <use x="159.033203" xlink:href="#DejaVuSans-53"/>
      </g>
     </g>
    </g>
    <g id="ytick_9">
     <g id="line2d_15">
      <g>
       <use style="stroke:#000000;stroke-width:0.8;" x="50.14375" xlink:href="#m9c6f1b43de" y="18.319094"/>
      </g>
     </g>
     <g id="text_16">
      <!-- 0.40 -->
      <g transform="translate(20.878125 22.118313)scale(0.1 -0.1)">
       <use xlink:href="#DejaVuSans-48"/>
       <use x="63.623047" xlink:href="#DejaVuSans-46"/>
       <use x="95.410156" xlink:href="#DejaVuSans-52"/>
       <use x="159.033203" xlink:href="#DejaVuSans-48"/>
      </g>
     </g>
    </g>
    <g id="text_17">
     <!-- Estimated probability -->
     <g transform="translate(14.798438 183.033437)rotate(-90)scale(0.1 -0.1)">
      <defs>
       <path d="M 9.8125 72.90625 
L 55.90625 72.90625 
L 55.90625 64.59375 
L 19.671875 64.59375 
L 19.671875 43.015625 
L 54.390625 43.015625 
L 54.390625 34.71875 
L 19.671875 34.71875 
L 19.671875 8.296875 
L 56.78125 8.296875 
L 56.78125 0 
L 9.8125 0 
z
" id="DejaVuSans-69"/>
       <path d="M 34.28125 27.484375 
Q 23.390625 27.484375 19.1875 25 
Q 14.984375 22.515625 14.984375 16.5 
Q 14.984375 11.71875 18.140625 8.90625 
Q 21.296875 6.109375 26.703125 6.109375 
Q 34.1875 6.109375 38.703125 11.40625 
Q 43.21875 16.703125 43.21875 25.484375 
L 43.21875 27.484375 
z
M 52.203125 31.203125 
L 52.203125 0 
L 43.21875 0 
L 43.21875 8.296875 
Q 40.140625 3.328125 35.546875 0.953125 
Q 30.953125 -1.421875 24.3125 -1.421875 
Q 15.921875 -1.421875 10.953125 3.296875 
Q 6 8.015625 6 15.921875 
Q 6 25.140625 12.171875 29.828125 
Q 18.359375 34.515625 30.609375 34.515625 
L 43.21875 34.515625 
L 43.21875 35.40625 
Q 43.21875 41.609375 39.140625 45 
Q 35.0625 48.390625 27.6875 48.390625 
Q 23 48.390625 18.546875 47.265625 
Q 14.109375 46.140625 10.015625 43.890625 
L 10.015625 52.203125 
Q 14.9375 54.109375 19.578125 55.046875 
Q 24.21875 56 28.609375 56 
Q 40.484375 56 46.34375 49.84375 
Q 52.203125 43.703125 52.203125 31.203125 
z
" id="DejaVuSans-97"/>
       <path d="M 45.40625 46.390625 
L 45.40625 75.984375 
L 54.390625 75.984375 
L 54.390625 0 
L 45.40625 0 
L 45.40625 8.203125 
Q 42.578125 3.328125 38.25 0.953125 
Q 33.9375 -1.421875 27.875 -1.421875 
Q 17.96875 -1.421875 11.734375 6.484375 
Q 5.515625 14.40625 5.515625 27.296875 
Q 5.515625 40.1875 11.734375 48.09375 
Q 17.96875 56 27.875 56 
Q 33.9375 56 38.25 53.625 
Q 42.578125 51.265625 45.40625 46.390625 
z
M 14.796875 27.296875 
Q 14.796875 17.390625 18.875 11.75 
Q 22.953125 6.109375 30.078125 6.109375 
Q 37.203125 6.109375 41.296875 11.75 
Q 45.40625 17.390625 45.40625 27.296875 
Q 45.40625 37.203125 41.296875 42.84375 
Q 37.203125 48.484375 30.078125 48.484375 
Q 22.953125 48.484375 18.875 42.84375 
Q 14.796875 37.203125 14.796875 27.296875 
z
" id="DejaVuSans-100"/>
       <path d="M 48.6875 27.296875 
Q 48.6875 37.203125 44.609375 42.84375 
Q 40.53125 48.484375 33.40625 48.484375 
Q 26.265625 48.484375 22.1875 42.84375 
Q 18.109375 37.203125 18.109375 27.296875 
Q 18.109375 17.390625 22.1875 11.75 
Q 26.265625 6.109375 33.40625 6.109375 
Q 40.53125 6.109375 44.609375 11.75 
Q 48.6875 17.390625 48.6875 27.296875 
z
M 18.109375 46.390625 
Q 20.953125 51.265625 25.265625 53.625 
Q 29.59375 56 35.59375 56 
Q 45.5625 56 51.78125 48.09375 
Q 58.015625 40.1875 58.015625 27.296875 
Q 58.015625 14.40625 51.78125 6.484375 
Q 45.5625 -1.421875 35.59375 -1.421875 
Q 29.59375 -1.421875 25.265625 0.953125 
Q 20.953125 3.328125 18.109375 8.203125 
L 18.109375 0 
L 9.078125 0 
L 9.078125 75.984375 
L 18.109375 75.984375 
z
" id="DejaVuSans-98"/>
       <path d="M 9.421875 75.984375 
L 18.40625 75.984375 
L 18.40625 0 
L 9.421875 0 
z
" id="DejaVuSans-108"/>
       <path d="M 32.171875 -5.078125 
Q 28.375 -14.84375 24.75 -17.8125 
Q 21.140625 -20.796875 15.09375 -20.796875 
L 7.90625 -20.796875 
L 7.90625 -13.28125 
L 13.1875 -13.28125 
Q 16.890625 -13.28125 18.9375 -11.515625 
Q 21 -9.765625 23.484375 -3.21875 
L 25.09375 0.875 
L 2.984375 54.6875 
L 12.5 54.6875 
L 29.59375 11.921875 
L 46.6875 54.6875 
L 56.203125 54.6875 
z
" id="DejaVuSans-121"/>
      </defs>
      <use xlink:href="#DejaVuSans-69"/>
      <use x="63.183594" xlink:href="#DejaVuSans-115"/>
      <use x="115.283203" xlink:href="#DejaVuSans-116"/>
      <use x="154.492188" xlink:href="#DejaVuSans-105"/>
      <use x="182.275391" xlink:href="#DejaVuSans-109"/>
      <use x="279.6875" xlink:href="#DejaVuSans-97"/>
      <use x="340.966797" xlink:href="#DejaVuSans-116"/>
      <use x="380.175781" xlink:href="#DejaVuSans-101"/>
      <use x="441.699219" xlink:href="#DejaVuSans-100"/>
      <use x="505.175781" xlink:href="#DejaVuSans-32"/>
      <use x="536.962891" xlink:href="#DejaVuSans-112"/>
      <use x="600.439453" xlink:href="#DejaVuSans-114"/>
      <use x="639.302734" xlink:href="#DejaVuSans-111"/>
      <use x="700.484375" xlink:href="#DejaVuSans-98"/>
      <use x="763.960938" xlink:href="#DejaVuSans-97"/>
      <use x="825.240234" xlink:href="#DejaVuSans-98"/>
      <use x="888.716797" xlink:href="#DejaVuSans-105"/>
      <use x="916.5" xlink:href="#DejaVuSans-108"/>
      <use x="944.283203" xlink:href="#DejaVuSans-105"/>
      <use x="972.066406" xlink:href="#DejaVuSans-116"/>
      <use x="1011.275391" xlink:href="#DejaVuSans-121"/>
     </g>
    </g>
   </g>
   <g id="line2d_16">
    <path clip-path="url(#p33208dd9a6)" d="M 65.361932 185.105455 
L 65.971879 185.105455 
L 66.581826 148.041817 
L 67.191773 143.408867 
L 67.80172 129.51 
L 68.411668 148.041817 
L 69.021615 129.51 
L 69.631562 136.459433 
L 70.241509 141.864545 
L 71.461403 149.726534 
L 72.681298 146.616292 
L 73.291245 137.452207 
L 73.901192 140.629088 
L 74.511139 146.883579 
L 75.121086 145.861603 
L 75.731034 151.130453 
L 76.340981 141.214304 
L 76.950928 140.629088 
L 77.560875 137.452207 
L 78.170822 142.145335 
L 78.780769 141.595974 
L 79.390717 143.408867 
L 80.000664 142.852911 
L 81.220558 145.982729 
L 81.830505 147.37997 
L 82.440452 146.763762 
L 83.0504 148.041817 
L 83.660347 147.444017 
L 84.880241 142.987689 
L 86.710083 146.497503 
L 87.32003 146.038383 
L 89.149871 140.629088 
L 90.369766 142.747012 
L 90.979713 141.146257 
L 91.58966 142.145335 
L 92.199607 139.393641 
L 92.809554 141.595974 
L 95.249343 140.629088 
L 95.85929 141.501176 
L 97.079185 141.048683 
L 98.909026 143.408867 
L 100.12892 142.929591 
L 100.738868 140.81755 
L 101.348815 141.555687 
L 102.568709 141.167117 
L 103.178656 141.864545 
L 103.788603 141.67151 
L 104.398551 142.339719 
L 105.008498 140.460618 
L 105.618445 139.467396 
L 106.838339 140.790236 
L 108.058234 140.472489 
L 108.668181 139.54807 
L 109.278128 139.410566 
L 109.888075 140.028058 
L 110.498022 141.370365 
L 111.717917 142.506343 
L 112.937811 144.992283 
L 113.547758 144.798752 
L 114.157705 145.296369 
L 114.767652 144.425856 
L 115.3776 144.246143 
L 115.987547 142.747012 
L 116.597494 143.899417 
L 117.207441 143.085636 
L 117.817388 141.651537 
L 118.427335 141.513569 
L 120.257177 142.950658 
L 120.867124 142.200269 
L 121.477071 142.063817 
L 122.087018 143.113148 
L 123.306913 143.987986 
L 123.91686 141.546135 
L 124.526807 141.423311 
L 125.136754 142.426117 
L 125.746701 141.185044 
L 126.356649 141.069452 
L 126.966596 142.046229 
L 127.576543 142.464283 
L 128.18649 142.339719 
L 128.796437 140.629088 
L 129.406384 141.048683 
L 130.016332 141.980012 
L 130.626279 142.379319 
L 132.45612 142.031499 
L 134.285962 143.165025 
L 135.505856 142.929591 
L 136.115803 143.290069 
L 136.72575 144.11559 
L 137.945645 144.798752 
L 138.555592 144.672399 
L 139.165539 145.459513 
L 140.385433 146.098967 
L 140.995381 146.855785 
L 142.825222 147.752262 
L 144.045116 147.471612 
L 144.655064 146.910106 
L 145.265011 147.199462 
L 145.874958 147.066457 
L 146.484905 147.765227 
L 147.094852 147.218185 
L 147.704799 147.905556 
L 148.314747 148.177092 
L 148.924694 148.041817 
L 149.534641 147.108566 
L 150.754535 147.647522 
L 151.364482 148.302832 
L 151.97443 147.782632 
L 152.584377 147.65574 
L 153.194324 146.380345 
L 153.804271 146.645586 
L 154.414218 146.529017 
L 155.024165 146.789668 
L 155.634113 146.300575 
L 156.24406 146.559271 
L 157.463954 147.797983 
L 159.293796 148.520057 
L 159.903743 149.110964 
L 160.51369 148.986119 
L 161.123637 149.566588 
L 162.343531 147.925993 
L 162.953479 148.156928 
L 163.563426 147.355457 
L 164.173373 147.587055 
L 164.78332 148.154816 
L 166.613162 146.821165 
L 167.223109 147.049043 
L 170.882792 146.444251 
L 171.492739 146.029792 
L 172.102686 146.567696 
L 173.32258 146.376037 
L 173.932528 146.90299 
L 175.762369 147.532701 
L 176.372316 147.13042 
L 176.982263 147.336809 
L 178.202158 146.547317 
L 180.031999 147.159349 
L 180.641946 146.773853 
L 181.251894 147.265621 
L 181.861841 147.462698 
L 182.471788 147.945801 
L 183.081735 146.991044 
L 184.911577 146.724834 
L 185.521524 146.357108 
L 186.131471 145.713702 
L 187.351365 145.552472 
L 187.961312 145.197826 
L 188.57126 145.668287 
L 189.181207 145.31655 
L 189.791154 145.510644 
L 190.401101 145.97273 
L 191.620995 145.279866 
L 192.84089 145.659158 
L 193.450837 145.319134 
L 194.060784 144.457833 
L 194.670731 144.909679 
L 195.280678 144.837721 
L 196.500573 145.210568 
L 197.11052 145.650617 
L 197.720467 145.831605 
L 198.330414 145.757071 
L 198.940361 145.177811 
L 199.550309 145.358477 
L 200.160256 145.787947 
L 200.770203 145.964263 
L 201.38015 145.394414 
L 202.600044 145.253845 
L 203.209992 145.429408 
L 203.819939 145.359579 
L 204.429886 145.533144 
L 205.039833 145.22176 
L 205.64978 145.153745 
L 206.259727 144.607043 
L 206.869675 144.780858 
L 207.479622 144.715593 
L 208.089569 144.414316 
L 208.699516 144.351164 
L 209.309463 144.523123 
L 209.91941 144.927226 
L 210.529358 144.630107 
L 211.139305 144.567104 
L 211.749252 144.73531 
L 212.359199 144.672399 
L 213.579093 145.003815 
L 215.408935 144.815635 
L 216.018882 144.978092 
L 217.848724 146.122188 
L 219.068618 146.430358 
L 220.288512 146.297651 
L 220.898459 146.014905 
L 222.118354 146.317931 
L 222.728301 146.253031 
L 223.338248 146.402465 
L 224.558142 145.849127 
L 225.16809 145.998386 
L 225.778037 146.357108 
L 226.387984 146.293533 
L 226.997931 146.439446 
L 227.607878 146.792484 
L 228.217825 146.935439 
L 228.827773 146.663986 
L 229.43772 146.600453 
L 230.657614 146.883579 
L 231.267561 146.412646 
L 231.877508 146.75677 
L 232.487456 146.896213 
L 233.097403 146.833219 
L 233.70735 146.971394 
L 234.317297 146.708597 
L 234.927244 147.045489 
L 235.537191 146.982859 
L 236.147139 147.118524 
L 236.757086 147.450379 
L 237.367033 147.386987 
L 238.586927 148.041817 
L 239.196874 147.977025 
L 239.806822 147.718967 
L 240.416769 148.041817 
L 241.636663 148.297431 
L 242.24661 148.041817 
L 244.076452 147.852718 
L 244.686399 147.978996 
L 245.296346 147.728784 
L 245.906293 148.041817 
L 246.51624 147.606506 
L 247.736135 148.227138 
L 248.346082 148.164956 
L 248.956029 148.287274 
L 250.785871 148.102583 
L 251.395818 148.405186 
L 252.005765 148.524737 
L 252.615712 148.82401 
L 254.445554 149.173992 
L 255.665448 149.048343 
L 256.275395 149.340226 
L 256.885342 149.277273 
L 257.495289 149.390653 
L 258.105237 149.6787 
L 259.325131 149.552248 
L 261.154972 148.847554 
L 262.374867 148.728185 
L 262.984814 148.840115 
L 263.594761 148.780816 
L 264.204708 149.061921 
L 264.814655 148.832808 
L 265.424603 148.943065 
L 266.03455 149.221113 
L 267.254444 149.102373 
L 267.864391 149.377447 
L 268.474338 149.484415 
L 269.084286 149.258832 
L 269.694233 148.703672 
L 270.30418 148.811691 
L 272.743969 148.585271 
L 273.353916 148.204381 
L 274.57381 148.418921 
L 276.403652 148.255446 
L 277.013599 148.521092 
L 277.623546 148.625914 
L 278.233493 148.888985 
L 278.84344 148.833778 
L 279.453387 148.620936 
L 280.673282 149.141161 
L 281.283229 149.24247 
L 281.893176 149.187048 
L 282.503123 148.820465 
L 283.11307 148.611235 
L 284.332965 148.505112 
L 284.942912 148.144485 
L 285.552859 148.093014 
L 286.162806 148.194978 
L 286.772753 148.14364 
L 287.382701 148.244908 
L 287.992648 147.889923 
L 288.602595 147.839836 
L 289.212542 147.941104 
L 289.822489 147.891157 
L 291.042384 148.091772 
L 291.652331 148.041817 
L 292.262278 148.290232 
L 292.872225 148.091374 
L 293.482172 148.190074 
L 294.092119 147.992533 
L 294.702067 148.238446 
L 295.312014 148.188897 
L 295.921961 148.432996 
L 296.531908 148.529501 
L 297.751802 148.429923 
L 298.36175 148.670841 
L 299.581644 148.282494 
L 300.801538 148.185476 
L 302.021433 148.375296 
L 302.63138 148.184374 
L 303.241327 148.278799 
L 303.851274 148.089096 
L 304.461221 148.183281 
L 305.071168 148.418101 
L 306.291063 148.603389 
L 306.90101 148.41526 
L 307.510957 148.50744 
L 309.340799 148.365321 
L 309.950746 148.456715 
L 310.560693 148.409701 
L 311.780587 148.865457 
L 312.390534 148.954721 
L 313.610429 148.58687 
L 314.220376 148.676159 
L 314.830323 148.62941 
L 315.44027 148.853428 
L 316.050217 148.941425 
L 316.660165 149.163603 
L 317.270112 148.981836 
L 318.490006 149.155509 
L 319.099953 149.375045 
L 319.7099 149.327518 
L 320.319848 149.412905 
L 320.929795 149.365518 
L 321.539742 149.582469 
L 322.149689 149.139678 
L 322.759636 149.093269 
L 323.369583 149.309325 
L 323.979531 149.131924 
L 324.589478 149.085863 
L 325.199425 149.170222 
L 325.809372 148.864496 
L 326.419319 149.078564 
L 327.639214 149.245743 
L 328.249161 148.942676 
L 328.859108 149.02619 
L 329.469055 148.853122 
L 330.079002 148.936462 
L 330.688949 149.146927 
L 331.298897 148.974769 
L 331.908844 149.18419 
L 332.518791 149.13938 
L 333.128738 149.347466 
L 334.348632 149.509268 
L 334.95858 149.464127 
L 335.568527 149.293966 
L 336.178474 149.249512 
L 336.788421 149.454558 
L 338.618263 149.321296 
L 339.22821 149.400818 
L 339.838157 149.356712 
L 340.448104 149.189807 
L 341.667998 149.103111 
L 342.277946 149.304429 
L 344.107787 149.17477 
L 344.717734 148.88968 
L 345.937629 149.046802 
L 346.547576 149.00451 
L 347.157523 149.202556 
L 347.76747 149.160115 
L 348.377417 149.237417 
L 349.597312 149.152933 
L 350.207259 148.873377 
L 350.817206 148.950629 
L 351.427153 148.909265 
L 352.0371 149.104154 
L 352.647048 149.062642 
L 353.256995 148.903764 
L 353.866942 148.980137 
L 354.476889 148.822105 
L 355.086836 148.898329 
L 355.696783 148.624581 
L 356.916678 148.776905 
L 357.526625 148.736759 
L 358.136572 148.812371 
L 358.746519 148.772324 
L 359.356466 148.847554 
L 359.966414 149.037333 
L 360.576361 148.88244 
L 361.796255 149.031194 
L 363.016149 149.406128 
L 363.626097 149.138601 
L 365.455938 149.583008 
L 366.675832 149.389584 
L 367.28578 149.573688 
L 368.505674 149.493106 
L 369.725568 149.746748 
L 369.725568 149.746748 
" style="fill:none;stroke:#1f77b4;stroke-linecap:square;stroke-width:1.5;"/>
   </g>
   <g id="line2d_17">
    <path clip-path="url(#p33208dd9a6)" d="M 65.361932 73.914541 
L 65.971879 18.319091 
L 66.581826 73.914541 
L 67.191773 101.712275 
L 67.80172 118.390912 
L 68.411668 110.978183 
L 69.021615 121.567793 
L 69.631562 129.51 
L 70.241509 123.332728 
L 70.851456 112.831363 
L 71.461403 114.347601 
L 72.071351 106.345233 
L 72.681298 112.403708 
L 73.291245 121.567793 
L 73.901192 125.80364 
L 74.511139 126.035287 
L 75.121086 129.51 
L 75.731034 129.51 
L 76.340981 135.362152 
L 77.560875 140.09961 
L 78.170822 134.564136 
L 78.780769 136.761581 
L 79.390717 134.142958 
L 80.000664 133.957637 
L 80.610611 129.51 
L 81.220558 133.628184 
L 81.830505 131.495556 
L 83.0504 131.36318 
L 83.660347 129.51 
L 84.270294 131.247356 
L 86.100135 140.629088 
L 86.710083 141.864545 
L 87.32003 141.530643 
L 87.929977 144.140385 
L 88.539924 143.765244 
L 89.149871 144.798752 
L 89.759819 144.425856 
L 90.369766 142.747012 
L 90.979713 142.439173 
L 91.58966 140.881803 
L 92.199607 141.864545 
L 92.809554 140.387375 
L 94.029449 142.250629 
L 94.639396 141.990616 
L 95.249343 142.852911 
L 95.85929 144.771496 
L 96.469237 144.478006 
L 97.079185 145.244567 
L 97.689132 144.953181 
L 98.299079 145.683224 
L 98.909026 143.408867 
L 99.518973 143.165025 
L 100.12892 143.888134 
L 100.738868 145.529027 
L 101.958762 145.003815 
L 102.568709 146.547317 
L 103.178656 146.276882 
L 104.398551 149.182243 
L 105.618445 150.254572 
L 106.228392 149.949508 
L 106.838339 150.459013 
L 107.448286 150.15974 
L 108.058234 149.085863 
L 109.278128 150.072705 
L 109.888075 148.292253 
L 110.498022 148.041817 
L 111.717917 150.44855 
L 112.327864 150.180103 
L 112.937811 150.622199 
L 113.547758 148.273464 
L 114.157705 148.728185 
L 114.767652 149.849806 
L 115.987547 150.689219 
L 116.597494 151.748185 
L 117.817388 152.515019 
L 118.427335 150.990066 
L 119.037283 150.124043 
L 119.64723 151.130453 
L 120.257177 150.281927 
L 120.867124 150.056144 
L 121.477071 151.030825 
L 122.087018 151.393316 
L 122.696966 151.162969 
L 123.91686 151.862816 
L 125.746701 151.192229 
L 126.356649 152.07845 
L 126.966596 151.312137 
L 127.576543 151.640232 
L 128.18649 150.892866 
L 129.406384 151.538392 
L 130.016332 150.81293 
L 130.626279 151.130453 
L 131.236226 150.9321 
L 131.846173 151.242772 
L 132.45612 152.048701 
L 133.066067 151.351074 
L 133.676015 151.649783 
L 134.285962 151.455573 
L 134.895909 152.231619 
L 135.505856 151.556477 
L 136.115803 151.36804 
L 136.72575 151.65395 
L 137.335698 151.000678 
L 140.385433 152.375875 
L 140.995381 152.192948 
L 142.825222 150.3583 
L 144.045116 150.892866 
L 144.655064 150.729639 
L 145.265011 150.147711 
L 146.484905 151.499248 
L 148.314747 149.800315 
L 148.924694 149.653284 
L 149.534641 149.908335 
L 150.754535 149.618995 
L 151.97443 150.115311 
L 152.584377 149.972215 
L 153.194324 150.214517 
L 154.414218 149.932823 
L 155.024165 149.419184 
L 155.634113 149.658694 
L 156.24406 148.783094 
L 156.854007 149.023639 
L 157.463954 148.895256 
L 158.073901 149.131924 
L 158.683848 148.282494 
L 159.903743 148.041817 
L 160.51369 147.215559 
L 161.123637 147.103496 
L 162.343531 147.578522 
L 163.563426 148.728185 
L 164.78332 149.171805 
L 165.393267 149.726534 
L 166.003214 149.939658 
L 166.613162 149.484415 
L 167.223109 149.365518 
L 167.833056 149.577001 
L 169.662897 149.226995 
L 170.272845 149.755745 
L 171.492739 148.888985 
L 172.102686 149.09476 
L 172.712633 148.67002 
L 173.32258 149.187048 
L 173.932528 148.766525 
L 174.542475 149.277273 
L 175.762369 149.060048 
L 176.372316 149.257018 
L 176.982263 148.243251 
L 177.592211 147.841476 
L 178.202158 147.742917 
L 179.422052 148.73183 
L 180.031999 148.630131 
L 180.641946 148.236889 
L 181.251894 148.138843 
L 181.861841 148.33138 
L 182.471788 148.233857 
L 183.081735 148.71049 
L 184.301629 149.08187 
L 184.911577 149.546946 
L 185.521524 149.726534 
L 186.131471 149.624943 
L 186.741418 149.802344 
L 187.351365 150.254572 
L 189.181207 149.949508 
L 189.791154 150.3922 
L 190.401101 150.560704 
L 191.011048 150.190434 
L 191.620995 150.3583 
L 192.230943 150.258548 
L 192.84089 149.895005 
L 194.060784 150.751658 
L 194.670731 150.651931 
L 195.280678 150.81293 
L 195.890626 150.713849 
L 196.500573 150.3583 
L 197.11052 150.51842 
L 198.330414 149.818847 
L 199.550309 150.138176 
L 200.160256 149.544402 
L 200.770203 149.205249 
L 201.38015 149.117327 
L 201.990097 149.524362 
L 202.600044 149.189807 
L 204.429886 149.660317 
L 205.039833 149.57271 
L 205.64978 149.726534 
L 206.259727 150.118658 
L 206.869675 149.791608 
L 207.479622 149.942516 
L 208.089569 149.855572 
L 208.699516 150.004939 
L 209.309463 150.387618 
L 209.91941 150.299895 
L 210.529358 149.747676 
L 211.139305 150.126653 
L 211.749252 150.0411 
L 212.359199 149.726534 
L 212.969146 149.872124 
L 213.579093 150.244373 
L 214.189041 150.386666 
L 214.798988 150.301801 
L 215.408935 150.667788 
L 216.018882 150.80665 
L 216.628829 150.27457 
L 217.238776 149.524362 
L 217.848724 149.223135 
L 218.458671 148.262438 
L 220.288512 148.695884 
L 221.508407 149.411877 
L 222.118354 149.550226 
L 222.728301 149.47285 
L 223.338248 149.182243 
L 223.948195 149.319879 
L 225.778037 149.09476 
L 226.387984 149.230657 
L 226.997931 149.574524 
L 227.607878 148.666491 
L 228.217825 149.009903 
L 228.827773 149.144085 
L 230.047667 148.999183 
L 231.267561 149.263695 
L 231.877508 148.988704 
L 233.097403 148.847554 
L 234.317297 149.508365 
L 235.537191 149.365518 
L 236.757086 149.618995 
L 237.367033 149.54794 
L 237.97698 149.085863 
L 238.586927 149.212249 
L 239.196874 149.143364 
L 239.806822 149.268665 
L 241.636663 149.064265 
L 242.24661 148.806017 
L 242.856557 148.739932 
L 244.076452 148.98732 
L 244.686399 149.298216 
L 245.296346 149.419184 
L 245.906293 149.726534 
L 247.126188 149.5913 
L 248.346082 148.719064 
L 248.956029 148.655457 
L 249.565976 148.959236 
L 250.785871 148.831698 
L 251.395818 148.223501 
L 252.005765 147.981457 
L 252.615712 147.921486 
L 253.225659 147.502057 
L 253.835606 147.623357 
L 256.275395 147.392612 
L 256.885342 147.159349 
L 257.495289 147.455366 
L 258.105237 147.398759 
L 259.325131 146.938041 
L 259.935078 147.231051 
L 260.545025 147.349045 
L 261.154972 147.638956 
L 261.76492 147.754946 
L 262.374867 147.698637 
L 263.594761 146.904895 
L 264.204708 146.851701 
L 264.814655 147.137827 
L 265.424603 146.915267 
L 266.03455 146.525579 
L 267.254444 147.0929 
L 268.474338 146.987614 
L 269.084286 147.1014 
L 269.694233 147.37997 
L 270.30418 147.326942 
L 270.914127 147.438715 
L 271.524074 147.385827 
L 272.134021 147.66028 
L 272.743969 147.444017 
L 273.353916 147.554141 
L 273.963863 147.339451 
L 274.57381 147.449236 
L 275.793704 147.024173 
L 276.403652 147.133925 
L 277.013599 147.083274 
L 277.623546 146.873621 
L 278.233493 146.506326 
L 278.84344 146.299515 
L 279.453387 146.567696 
L 280.063335 146.676868 
L 280.673282 146.471324 
L 281.893176 146.376037 
L 283.11307 146.90299 
L 283.723018 146.854543 
L 284.332965 146.960798 
L 285.552859 146.864384 
L 286.162806 146.663422 
L 286.772753 146.921762 
L 287.382701 146.874061 
L 288.602595 147.082404 
L 290.432436 146.93993 
L 291.042384 146.443389 
L 291.652331 146.397867 
L 292.262278 146.054496 
L 292.872225 146.158904 
L 293.482172 145.966259 
L 294.092119 146.070353 
L 294.702067 146.026421 
L 295.312014 145.835648 
L 295.921961 145.499195 
L 296.531908 145.457119 
L 297.141855 145.561179 
L 297.751802 145.51916 
L 298.36175 145.332207 
L 299.581644 145.827629 
L 300.801538 145.455984 
L 301.411485 145.558172 
L 302.021433 145.23108 
L 302.63138 145.475875 
L 303.241327 145.577234 
L 303.851274 145.394414 
L 304.461221 145.495459 
L 305.071168 145.313783 
L 305.681116 145.414521 
L 306.291063 145.655148 
L 307.510957 145.574011 
L 308.120904 145.673092 
L 308.730851 145.910663 
L 309.340799 145.731116 
L 309.950746 145.829062 
L 310.560693 145.788568 
L 311.780587 146.257273 
L 312.390534 146.079093 
L 313.610429 146.542926 
L 314.220376 146.501281 
L 314.830323 146.324235 
L 315.44027 146.553861 
L 316.050217 146.512498 
L 316.660165 146.740558 
L 317.270112 146.564648 
L 317.880059 146.523549 
L 319.099953 146.975238 
L 319.7099 147.066457 
L 320.319848 147.024563 
L 322.149689 147.295279 
L 322.759636 147.253228 
L 323.369583 147.342508 
L 323.979531 147.300548 
L 324.589478 147.38929 
L 325.199425 147.347421 
L 327.029266 147.610847 
L 328.249161 148.041817 
L 328.859108 147.99902 
L 329.469055 148.084523 
L 330.079002 148.297431 
L 330.688949 148.254344 
L 331.298897 148.084224 
L 333.128738 148.336641 
L 333.738685 148.546086 
L 334.95858 148.209153 
L 335.568527 148.167035 
L 336.178474 148.000171 
L 336.788421 147.958716 
L 337.398368 148.041817 
L 338.008315 147.876353 
L 338.618263 147.959271 
L 340.448104 147.83682 
L 341.058051 148.041817 
L 342.277946 148.204737 
L 342.887893 147.919896 
L 344.107787 147.839504 
L 344.717734 148.041817 
L 345.327681 147.880669 
L 345.937629 147.840821 
L 346.547576 147.921486 
L 348.377417 148.520057 
L 348.987365 148.598568 
L 349.597312 148.438646 
L 350.207259 148.635789 
L 350.817206 148.595005 
L 351.427153 148.672688 
L 352.0371 148.632003 
L 352.647048 148.473706 
L 353.866942 148.628267 
L 356.306731 149.398755 
L 357.526625 149.547534 
L 358.136572 149.505872 
L 359.356466 149.653284 
L 359.966414 149.611663 
L 360.576361 149.684847 
L 361.186308 149.643334 
L 361.796255 149.373678 
L 362.406202 149.560822 
L 363.016149 149.519814 
L 364.236044 149.211851 
L 365.455938 149.131924 
L 366.065885 149.204743 
L 366.675832 149.164962 
L 367.28578 149.349504 
L 367.895727 149.30959 
L 368.505674 149.381465 
L 369.115621 149.230234 
L 369.725568 149.413178 
L 369.725568 149.413178 
" style="fill:none;stroke:#ff7f0e;stroke-linecap:square;stroke-width:1.5;"/>
   </g>
   <g id="line2d_18">
    <path clip-path="url(#p33208dd9a6)" d="M 65.361932 73.914541 
L 66.581826 73.914541 
L 67.191773 115.611142 
L 67.80172 129.51 
L 68.411668 120.244092 
L 69.021615 137.452207 
L 69.631562 136.459433 
L 70.851456 135.069548 
L 71.461403 129.51 
L 72.681298 138.063146 
L 73.291245 137.452207 
L 73.901192 140.629088 
L 75.121086 152.402244 
L 75.731034 151.130453 
L 76.340981 152.918617 
L 77.560875 150.689219 
L 78.170822 149.726534 
L 78.780769 151.264743 
L 79.390717 154.99125 
L 80.000664 156.195822 
L 80.610611 155.169439 
L 81.220558 150.100913 
L 82.440452 156.349182 
L 83.0504 155.454545 
L 83.660347 156.411025 
L 84.880241 154.780662 
L 85.490188 157.307725 
L 86.100135 156.513511 
L 86.710083 154.219089 
L 87.32003 156.556441 
L 87.929977 154.381653 
L 88.539924 156.594963 
L 89.759819 157.985718 
L 90.369766 157.307725 
L 91.58966 161.098329 
L 92.809554 157.307725 
L 93.419502 157.899171 
L 94.029449 156.149488 
L 94.639396 156.740428 
L 95.249343 158.419637 
L 95.85929 156.762672 
L 97.079185 155.734275 
L 97.689132 152.160001 
L 100.12892 150.597934 
L 100.738868 149.298216 
L 101.348815 150.821595 
L 101.958762 151.383623 
L 102.568709 151.030825 
L 103.178656 151.571687 
L 103.788603 151.226974 
L 104.398551 151.748185 
L 105.618445 149.424793 
L 106.228392 149.949508 
L 106.838339 148.847554 
L 107.448286 150.15974 
L 108.058234 149.085863 
L 108.668181 149.586139 
L 109.278128 148.549541 
L 109.888075 149.043538 
L 110.498022 147.300548 
L 113.547758 149.663358 
L 114.157705 148.728185 
L 114.767652 149.171805 
L 115.3776 150.27457 
L 115.987547 150.027373 
L 116.597494 148.477865 
L 118.427335 149.726534 
L 119.037283 150.748718 
L 119.64723 150.512729 
L 120.257177 150.892866 
L 122.087018 150.210432 
L 123.306913 150.937419 
L 123.91686 151.862816 
L 124.526807 151.634722 
L 125.136754 150.849671 
L 125.746701 151.748185 
L 126.356649 150.977557 
L 126.966596 151.857191 
L 128.18649 151.427439 
L 128.796437 152.277664 
L 130.016332 151.852096 
L 130.626279 151.130453 
L 131.236226 151.442152 
L 133.066067 150.854683 
L 133.676015 150.173799 
L 134.285962 150.480213 
L 134.895909 150.297866 
L 135.505856 149.639391 
L 136.115803 149.942516 
L 136.72575 149.769364 
L 137.335698 150.066301 
L 137.945645 148.968407 
L 138.555592 148.807599 
L 139.165539 147.738021 
L 140.995381 148.634837 
L 142.215275 148.333659 
L 143.435169 148.903764 
L 144.045116 148.754579 
L 145.265011 149.305349 
L 145.874958 149.156512 
L 146.484905 148.595005 
L 147.094852 148.453641 
L 147.704799 148.72314 
L 148.314747 148.582894 
L 148.924694 148.041817 
L 149.534641 148.308466 
L 150.144588 147.777082 
L 150.754535 148.436111 
L 152.584377 149.200054 
L 153.194324 149.831099 
L 153.804271 149.311123 
L 154.414218 149.176419 
L 155.024165 149.419184 
L 155.634113 150.031813 
L 156.854007 149.760003 
L 158.073901 148.768555 
L 158.683848 148.643502 
L 159.903743 146.972678 
L 161.123637 148.159107 
L 161.733584 147.692167 
L 162.343531 147.925993 
L 162.953479 147.120984 
L 163.563426 147.355457 
L 164.173373 147.245971 
L 164.78332 146.120838 
L 166.003214 145.920704 
L 167.223109 147.049043 
L 167.833056 147.274229 
L 168.443003 147.823797 
L 169.05295 148.041817 
L 169.662897 148.580533 
L 170.882792 149.00036 
L 171.492739 149.524362 
L 172.102686 149.09476 
L 174.542475 149.895005 
L 175.762369 149.670988 
L 177.592211 151.147154 
L 178.202158 151.030825 
L 178.812105 151.21304 
L 179.422052 150.50616 
L 180.031999 150.983381 
L 181.251894 151.340677 
L 181.861841 150.937419 
L 182.471788 150.826392 
L 185.521524 151.692025 
L 186.131471 151.580559 
L 186.741418 151.192229 
L 187.351365 151.084359 
L 187.961312 151.25278 
L 188.57126 151.693409 
L 189.791154 151.476988 
L 190.401101 150.830592 
L 191.011048 150.727592 
L 191.620995 150.3583 
L 192.230943 150.258548 
L 192.84089 150.424484 
L 193.450837 149.798393 
L 194.060784 149.964933 
L 194.670731 149.868901 
L 195.280678 149.254184 
L 195.890626 148.903764 
L 196.500573 149.071365 
L 197.11052 148.468818 
L 197.720467 148.381857 
L 199.550309 148.880361 
L 200.770203 149.703868 
L 201.38015 149.861909 
L 201.990097 149.771452 
L 202.600044 149.927803 
L 203.209992 149.837851 
L 205.039833 150.297866 
L 206.259727 150.118658 
L 207.479622 150.417691 
L 208.089569 150.801878 
L 208.699516 150.947228 
L 209.309463 150.387618 
L 209.91941 150.53349 
L 210.529358 150.91076 
L 211.749252 150.271786 
L 212.359199 150.185994 
L 212.969146 150.329694 
L 214.189041 150.15974 
L 214.798988 150.527798 
L 215.408935 150.442701 
L 216.018882 150.582475 
L 216.628829 150.944394 
L 217.238776 150.858659 
L 217.848724 150.552105 
L 219.068618 150.825257 
L 219.678565 150.741336 
L 220.288512 150.222031 
L 220.898459 150.575467 
L 222.118354 150.843143 
L 222.728301 150.546123 
L 223.948195 151.236957 
L 225.778037 151.621832 
L 226.387984 151.538392 
L 226.997931 150.828562 
L 227.607878 150.748718 
L 228.827773 150.177461 
L 230.047667 150.024929 
L 230.657614 150.1539 
L 231.877508 150.003216 
L 233.097403 150.660448 
L 233.70735 150.784796 
L 234.317297 151.108234 
L 235.537191 151.351074 
L 236.147139 151.669045 
L 237.367033 151.119542 
L 238.586927 151.358041 
L 239.196874 151.281651 
L 240.416769 151.516538 
L 241.636663 152.131602 
L 242.24661 152.244916 
L 242.856557 151.97666 
L 243.466505 152.27947 
L 244.076452 152.202028 
L 245.296346 152.424347 
L 245.906293 151.972807 
L 246.51624 152.270556 
L 247.736135 152.118819 
L 248.346082 152.413113 
L 248.956029 152.153183 
L 249.565976 152.26194 
L 250.175923 152.552854 
L 250.785871 152.659582 
L 251.395818 152.947298 
L 252.005765 152.689861 
L 253.225659 152.539831 
L 253.835606 152.824225 
L 255.665448 152.067904 
L 256.275395 152.173115 
L 256.885342 152.454154 
L 257.495289 152.38155 
L 258.105237 151.607881 
L 258.715184 151.538392 
L 259.325131 151.643612 
L 260.545025 151.50571 
L 261.154972 151.264743 
L 262.374867 151.816821 
L 264.204708 152.122216 
L 264.814655 151.883784 
L 266.03455 152.422069 
L 266.644497 152.184887 
L 267.864391 152.048701 
L 268.474338 151.814767 
L 269.084286 152.080098 
L 269.694233 152.178384 
L 270.914127 152.044252 
L 272.134021 152.238727 
L 273.353916 152.756053 
L 274.57381 152.620902 
L 275.793704 152.808675 
L 276.403652 152.741531 
L 278.233493 153.495466 
L 278.84344 153.427137 
L 279.453387 153.201247 
L 280.063335 153.291629 
L 280.673282 153.067396 
L 281.893176 153.247382 
L 282.503123 153.492351 
L 283.11307 153.580663 
L 283.723018 153.358749 
L 284.332965 153.601365 
L 284.942912 153.534626 
L 285.552859 153.77542 
L 286.162806 153.55542 
L 286.772753 153.48936 
L 287.382701 153.575982 
L 288.602595 153.444832 
L 289.212542 153.228718 
L 289.822489 152.863104 
L 290.432436 152.649731 
L 291.042384 152.887062 
L 291.652331 152.973675 
L 292.262278 153.208868 
L 293.482172 152.785968 
L 294.092119 152.871918 
L 294.702067 152.662481 
L 295.312014 152.748315 
L 295.921961 152.540312 
L 296.531908 152.626005 
L 297.141855 152.419418 
L 297.751802 152.359439 
L 298.36175 152.154625 
L 298.971697 152.385212 
L 299.581644 152.325796 
L 300.191591 152.410719 
L 300.801538 152.638862 
L 301.411485 152.292675 
L 302.021433 152.377027 
L 302.63138 152.31839 
L 303.851274 152.769325 
L 305.071168 152.933463 
L 305.681116 152.874163 
L 306.291063 152.674775 
L 306.90101 152.896506 
L 307.510957 152.837745 
L 309.340799 153.079143 
L 309.950746 152.882216 
L 310.560693 152.962176 
L 311.17064 152.904128 
L 311.780587 152.571817 
L 313.000482 153.004882 
L 314.220376 152.889995 
L 314.830323 152.968572 
L 315.44027 152.776226 
L 316.050217 152.854695 
L 316.660165 152.798171 
L 317.270112 152.87621 
L 317.880059 153.087834 
L 318.490006 153.164796 
L 319.099953 152.974752 
L 319.7099 153.051614 
L 320.929795 152.93951 
L 321.539742 152.61975 
L 322.149689 152.696729 
L 322.759636 152.641919 
L 323.369583 152.456242 
L 323.979531 152.663873 
L 324.589478 152.609519 
L 325.199425 152.425225 
L 326.419319 152.577583 
L 327.029266 152.523933 
L 327.639214 152.212557 
L 328.249161 152.28869 
L 328.859108 152.236085 
L 329.469055 152.31182 
L 330.079002 152.515019 
L 330.688949 152.462256 
L 331.298897 152.536948 
L 331.908844 152.484376 
L 332.518791 152.3054 
L 333.738685 152.454154 
L 334.348632 152.402244 
L 336.178474 152.622716 
L 336.788421 152.446243 
L 337.398368 152.394929 
L 338.008315 152.467948 
L 338.618263 152.29299 
L 339.22821 152.365909 
L 340.448104 152.264782 
L 341.058051 152.33727 
L 342.277946 151.625999 
L 342.887893 151.699415 
L 343.49784 151.65086 
L 344.107787 151.845294 
L 344.717734 151.675506 
L 345.937629 151.820541 
L 346.547576 151.772251 
L 347.157523 151.604095 
L 347.76747 151.676293 
L 348.377417 151.509065 
L 348.987365 151.461853 
L 349.597312 151.533893 
L 350.207259 151.486838 
L 350.817206 151.558515 
L 351.427153 151.511608 
L 352.647048 151.65395 
L 353.256995 151.607135 
L 353.866942 151.677809 
L 355.086836 151.351074 
L 355.696783 151.421839 
L 356.306731 151.60861 
L 356.916678 151.44641 
L 357.526625 151.169066 
L 358.136572 151.239616 
L 358.746519 151.194533 
L 359.356466 151.264743 
L 360.576361 150.945778 
L 361.186308 150.901672 
L 361.796255 150.971898 
L 363.016149 150.54305 
L 363.626097 150.613583 
L 364.236044 150.570604 
L 364.845991 150.640797 
L 366.675832 151.074301 
L 367.28578 151.030825 
L 368.505674 150.609482 
L 369.725568 150.858659 
L 369.725568 150.858659 
" style="fill:none;stroke:#2ca02c;stroke-linecap:square;stroke-width:1.5;"/>
   </g>
   <g id="line2d_19">
    <path clip-path="url(#p33208dd9a6)" d="M 65.361932 185.105455 
L 65.971879 185.105455 
L 66.581826 203.637271 
L 67.191773 157.307725 
L 67.80172 162.867274 
L 68.411668 175.839546 
L 69.021615 177.163247 
L 69.631562 178.156025 
L 70.241509 178.928182 
L 70.851456 185.105455 
L 71.461403 185.105455 
L 72.071351 189.738409 
L 73.291245 189.076558 
L 73.901192 181.39909 
L 74.511139 185.105455 
L 75.121086 181.835134 
L 75.731034 175.839546 
L 76.340981 179.253302 
L 77.560875 174.515845 
L 78.170822 169.94306 
L 78.780769 173.019489 
L 80.000664 165.091088 
L 80.610611 165.860871 
L 81.220558 168.63273 
L 81.830505 167.235488 
L 82.440452 162.100439 
L 83.0504 159.160914 
L 83.660347 158.204433 
L 84.270294 153.833013 
L 84.880241 153.095952 
L 86.100135 154.925066 
L 87.32003 150.546123 
L 88.539924 152.31839 
L 89.149871 154.527955 
L 89.759819 151.205791 
L 90.369766 152.01292 
L 90.979713 150.19668 
L 91.58966 150.990066 
L 92.809554 150.056144 
L 94.029449 153.833013 
L 94.639396 153.336622 
L 95.249343 153.972 
L 95.85929 155.672565 
L 96.469237 155.169439 
L 97.689132 156.278185 
L 98.299079 155.791487 
L 98.909026 156.314951 
L 100.12892 153.473562 
L 100.738868 154.951991 
L 101.348815 154.527955 
L 101.958762 153.206424 
L 102.568709 153.720925 
L 103.178656 153.336622 
L 103.788603 153.833013 
L 104.398551 151.748185 
L 105.618445 152.743925 
L 106.228392 152.402244 
L 106.838339 151.264743 
L 108.058234 150.651931 
L 109.278128 148.549541 
L 111.107969 147.797983 
L 111.717917 148.282494 
L 112.327864 145.190768 
L 113.547758 146.188637 
L 114.157705 145.982729 
L 114.767652 145.103848 
L 115.3776 143.576319 
L 115.987547 144.732568 
L 116.597494 144.553476 
L 118.427335 147.831228 
L 119.037283 148.250044 
L 120.257177 147.83817 
L 120.867124 148.243251 
L 121.477071 146.846217 
L 122.087018 147.253228 
L 122.696966 148.236889 
L 123.306913 146.883579 
L 123.91686 147.850771 
L 124.526807 148.230916 
L 125.136754 148.041817 
L 125.746701 148.412459 
L 126.356649 147.674852 
L 126.966596 146.406656 
L 127.576543 147.322137 
L 128.796437 148.041817 
L 129.406384 147.342508 
L 130.016332 146.136677 
L 130.626279 146.497503 
L 131.236226 145.831605 
L 131.846173 146.188637 
L 133.066067 145.890805 
L 133.676015 146.72983 
L 134.285962 146.091105 
L 134.895909 144.980039 
L 135.505856 145.80522 
L 136.115803 145.665943 
L 136.72575 144.586738 
L 137.335698 143.992848 
L 137.945645 144.335457 
L 138.555592 145.131866 
L 139.165539 145.459513 
L 139.775486 144.877851 
L 140.385433 145.650617 
L 140.995381 145.521488 
L 141.605328 146.276882 
L 143.435169 147.179878 
L 144.045116 146.616292 
L 144.655064 147.334497 
L 145.265011 147.62064 
L 145.874958 147.484469 
L 146.484905 148.180116 
L 147.094852 148.453641 
L 147.704799 147.08798 
L 148.314747 147.365473 
L 148.924694 148.041817 
L 149.534641 148.308466 
L 150.144588 148.968407 
L 150.754535 149.2247 
L 151.364482 148.694352 
L 151.97443 148.948972 
L 153.804271 148.549541 
L 154.414218 149.176419 
L 155.024165 148.667891 
L 155.634113 148.539318 
L 156.24406 149.153728 
L 157.463954 147.43222 
L 158.073901 147.315079 
L 158.683848 147.921486 
L 159.903743 148.398202 
L 160.51369 148.986119 
L 161.123637 148.510977 
L 161.733584 149.090792 
L 162.343531 149.315878 
L 163.563426 148.385005 
L 165.393267 149.052642 
L 166.003214 148.600009 
L 166.613162 149.151508 
L 167.833056 148.261129 
L 169.05295 148.041817 
L 169.662897 148.25731 
L 170.272845 147.506216 
L 170.882792 147.722305 
L 171.492739 147.618237 
L 172.102686 147.831228 
L 172.712633 147.413621 
L 173.932528 147.834757 
L 174.542475 147.424093 
L 175.152422 147.32512 
L 176.372316 147.738021 
L 176.982263 147.638956 
L 177.592211 147.240445 
L 178.202158 147.742917 
L 178.812105 147.645418 
L 179.422052 147.844674 
L 180.031999 147.453511 
L 180.641946 147.651673 
L 181.251894 146.974542 
L 181.861841 146.594024 
L 182.471788 147.081625 
L 183.081735 147.277617 
L 183.691682 146.616292 
L 184.911577 147.00705 
L 185.521524 146.357108 
L 186.131471 146.831197 
L 187.961312 147.399629 
L 188.57126 147.3115 
L 189.791154 148.222615 
L 190.401101 147.592017 
L 191.011048 147.504667 
L 191.620995 147.68544 
L 192.230943 147.598471 
L 193.450837 148.480963 
L 194.060784 148.391475 
L 195.890626 148.903764 
L 196.500573 148.556591 
L 197.720467 148.381857 
L 198.940361 148.7157 
L 199.550309 148.125671 
L 200.770203 147.958716 
L 201.38015 148.372744 
L 201.990097 147.794727 
L 202.600044 147.713822 
L 203.209992 147.87854 
L 204.429886 147.718122 
L 205.039833 147.880669 
L 205.64978 148.282494 
L 206.259727 148.441214 
L 206.869675 148.359961 
L 207.479622 148.516992 
L 208.089569 148.436111 
L 209.309463 148.745557 
L 210.529358 148.119358 
L 211.139305 148.273464 
L 212.359199 149.037333 
L 212.969146 148.728185 
L 213.579093 149.105124 
L 214.798988 149.397802 
L 215.408935 149.092208 
L 216.018882 148.564892 
L 216.628829 148.488369 
L 217.238776 148.634837 
L 218.458671 149.365518 
L 219.068618 149.28704 
L 220.288512 150.004011 
L 220.898459 150.141125 
L 221.508407 149.628199 
L 222.118354 149.550226 
L 222.728301 149.687498 
L 223.338248 150.037554 
L 224.558142 150.305247 
L 225.16809 150.014789 
L 225.778037 149.937123 
L 226.387984 149.650243 
L 226.997931 149.574524 
L 228.827773 149.970782 
L 229.43772 149.689089 
L 230.657614 149.949508 
L 231.877508 149.800315 
L 232.487456 149.928698 
L 233.097403 149.653284 
L 233.70735 149.580564 
L 235.537191 148.174193 
L 236.147139 147.909921 
L 236.757086 147.450379 
L 238.586927 146.676321 
L 239.806822 146.556695 
L 240.416769 146.690545 
L 241.026716 146.631097 
L 241.636663 146.380345 
L 242.24661 146.704471 
L 242.856557 146.645586 
L 243.466505 146.397361 
L 244.686399 146.282871 
L 245.296346 146.414021 
L 246.51624 145.927447 
L 247.126188 145.872547 
L 247.736135 146.003315 
L 248.346082 145.948523 
L 248.956029 146.078181 
L 249.565976 145.840022 
L 250.175923 145.786298 
L 250.785871 146.0975 
L 251.395818 146.224972 
L 252.005765 146.532711 
L 252.615712 146.116439 
L 253.835606 146.726657 
L 255.665448 146.56164 
L 256.275395 146.330283 
L 256.885342 146.629871 
L 257.495289 146.399756 
L 258.105237 146.697239 
L 258.715184 146.818017 
L 259.325131 146.763762 
L 259.935078 146.536108 
L 260.545025 146.829458 
L 261.154972 146.94833 
L 261.76492 146.722216 
L 262.374867 146.325909 
L 262.984814 146.274173 
L 265.424603 146.746282 
L 266.644497 146.642131 
L 267.254444 146.255624 
L 268.474338 146.15535 
L 269.084286 145.773747 
L 270.914127 146.122842 
L 271.524074 145.909843 
L 272.134021 145.861603 
L 273.963863 146.204849 
L 274.57381 146.156311 
L 275.793704 146.381455 
L 276.403652 146.172615 
L 277.013599 145.645464 
L 278.233493 145.870948 
L 278.84344 146.141118 
L 279.453387 146.251813 
L 282.503123 146.017333 
L 285.552859 146.557225 
L 286.162806 146.816575 
L 286.772753 146.616292 
L 287.382701 146.569428 
L 287.992648 146.826616 
L 289.212542 147.034653 
L 290.432436 147.54096 
L 291.652331 147.742917 
L 292.262278 147.395943 
L 292.872225 147.348117 
L 293.482172 147.152291 
L 294.092119 147.253228 
L 295.921961 147.112783 
L 296.531908 146.773853 
L 297.141855 146.874458 
L 297.751802 146.829002 
L 298.36175 147.074103 
L 298.971697 147.173143 
L 299.581644 147.127264 
L 302.63138 147.614161 
L 303.241327 147.283482 
L 303.851274 147.37997 
L 304.461221 147.334497 
L 305.071168 147.430364 
L 305.681116 147.666494 
L 306.90101 147.855104 
L 307.510957 148.088383 
L 308.120904 147.902482 
L 308.730851 147.995491 
L 309.340799 148.226674 
L 309.950746 148.180116 
L 310.560693 148.409701 
L 311.17064 148.500531 
L 312.390534 148.406975 
L 313.000482 148.223949 
L 313.610429 148.178086 
L 315.44027 148.447627 
L 316.050217 148.671545 
L 317.270112 148.847554 
L 317.880059 148.666988 
L 318.490006 148.220014 
L 319.099953 148.175145 
L 319.7099 148.26349 
L 320.319848 148.086047 
L 320.929795 148.174193 
L 322.149689 148.612701 
L 322.759636 148.567543 
L 323.369583 148.391475 
L 324.589478 148.302832 
L 326.419319 148.560195 
L 327.639214 148.987759 
L 328.249161 148.942676 
L 328.859108 149.02619 
L 330.079002 148.936462 
L 330.688949 149.019414 
L 331.298897 149.229215 
L 331.908844 148.930332 
L 332.518791 149.012736 
L 333.128738 149.221113 
L 333.738685 149.302491 
L 334.348632 149.131924 
L 334.95858 149.338627 
L 335.568527 149.419184 
L 336.178474 149.624313 
L 338.008315 149.489618 
L 338.618263 149.568941 
L 339.22821 149.400818 
L 340.448104 149.558801 
L 341.058051 149.391821 
L 342.277946 149.793182 
L 342.887893 149.870616 
L 343.49784 150.069374 
L 344.107787 150.145872 
L 344.717734 149.979787 
L 345.937629 150.132178 
L 346.547576 150.328211 
L 347.157523 150.16317 
L 347.76747 150.238475 
L 348.377417 150.193905 
L 348.987365 150.030214 
L 349.597312 149.986274 
L 350.207259 150.061314 
L 350.817206 149.898957 
L 352.0371 149.812377 
L 352.647048 149.651577 
L 353.256995 149.726534 
L 353.866942 149.683878 
L 354.476889 149.758454 
L 355.086836 149.599112 
L 355.696783 149.673556 
L 356.306731 149.515059 
L 356.916678 149.589362 
L 357.526625 149.547534 
L 358.746519 149.69507 
L 359.356466 149.538181 
L 359.966414 149.4968 
L 360.576361 149.570216 
L 361.796255 149.487837 
L 362.406202 149.560822 
L 363.626097 149.819361 
L 364.845991 149.623808 
L 365.455938 149.583008 
L 367.28578 149.125329 
L 367.895727 149.085863 
L 369.115621 149.118818 
L 369.725568 149.0796 
L 369.725568 149.0796 
" style="fill:none;stroke:#d62728;stroke-linecap:square;stroke-width:1.5;"/>
   </g>
   <g id="line2d_20">
    <path clip-path="url(#p33208dd9a6)" d="M 65.361932 240.700909 
L 65.971879 240.700909 
L 66.581826 222.16909 
L 67.191773 199.004317 
L 67.80172 185.105455 
L 68.411668 185.105455 
L 69.021615 177.163247 
L 69.631562 171.206592 
L 70.241509 172.75091 
L 71.461403 164.888924 
L 72.681298 159.446012 
L 73.291245 161.278829 
L 73.901192 155.454545 
L 75.121086 132.780321 
L 75.731034 129.51 
L 76.340981 132.43608 
L 76.950928 137.849318 
L 77.560875 137.452207 
L 78.170822 142.145335 
L 78.780769 139.178777 
L 80.000664 147.300548 
L 80.610611 150.892866 
L 81.220558 150.100913 
L 81.830505 147.37997 
L 82.440452 146.763762 
L 83.0504 149.895005 
L 83.660347 151.030825 
L 84.270294 153.833013 
L 84.880241 151.411243 
L 85.490188 145.861603 
L 86.100135 143.805978 
L 87.32003 143.03322 
L 88.539924 145.190768 
L 89.149871 144.798752 
L 89.759819 147.137827 
L 90.369766 146.718116 
L 90.979713 148.903764 
L 91.58966 147.199462 
L 92.199607 149.277273 
L 92.809554 150.056144 
L 94.029449 146.883579 
L 94.639396 147.663619 
L 95.249343 143.964822 
L 95.85929 141.501176 
L 97.079185 141.048683 
L 97.689132 142.894093 
L 98.299079 141.639922 
L 98.909026 141.423311 
L 100.12892 142.929591 
L 101.348815 140.629088 
L 101.958762 142.269617 
L 102.568709 142.063817 
L 103.178656 142.747012 
L 104.398551 142.339719 
L 105.008498 143.830044 
L 106.228392 143.408867 
L 106.838339 144.013162 
L 108.058234 146.736764 
L 109.888075 148.292253 
L 111.717917 147.56047 
L 112.327864 148.041817 
L 112.937811 147.807237 
L 114.157705 150.100913 
L 114.767652 149.849806 
L 115.3776 150.27457 
L 115.987547 149.365518 
L 116.597494 149.785991 
L 117.817388 148.041817 
L 118.427335 148.462994 
L 119.037283 147.625378 
L 119.64723 146.188637 
L 120.257177 146.005353 
L 120.867124 147.034653 
L 121.477071 147.444017 
L 122.087018 145.478907 
L 122.696966 144.140385 
L 123.91686 144.985026 
L 124.526807 145.96172 
L 126.356649 145.47305 
L 126.966596 144.771496 
L 128.18649 144.478006 
L 128.796437 143.805978 
L 129.406384 144.195592 
L 130.016332 145.097511 
L 130.626279 144.953181 
L 131.236226 145.321553 
L 131.846173 145.177811 
L 132.45612 144.535798 
L 133.676015 145.253845 
L 134.285962 145.115745 
L 134.895909 145.946915 
L 135.505856 146.284495 
L 136.115803 145.665943 
L 136.72575 145.529027 
L 137.335698 145.861603 
L 137.945645 146.651932 
L 139.165539 146.370918 
L 139.775486 146.685831 
L 140.385433 144.753917 
L 141.605328 144.511947 
L 142.215275 144.831583 
L 142.825222 144.277541 
L 143.435169 144.163067 
L 144.045116 144.478006 
L 144.655064 144.363748 
L 145.265011 143.830044 
L 145.874958 143.722372 
L 146.484905 142.786528 
L 147.704799 144.226443 
L 148.924694 144.818891 
L 149.534641 144.708759 
L 150.144588 144.203089 
L 150.754535 144.09888 
L 151.364482 144.387657 
L 151.97443 143.506059 
L 152.584377 143.408867 
L 153.194324 143.696425 
L 154.414218 145.016216 
L 155.024165 144.911444 
L 155.634113 145.1812 
L 156.854007 144.973635 
L 159.903743 146.259915 
L 160.51369 145.445007 
L 161.123637 145.696023 
L 161.733584 146.293533 
L 162.343531 146.536108 
L 162.953479 147.120984 
L 164.173373 147.587055 
L 165.393267 147.367933 
L 166.613162 147.819879 
L 168.443003 147.496763 
L 169.05295 148.041817 
L 169.662897 147.934079 
L 170.882792 149.00036 
L 171.492739 149.206674 
L 172.102686 149.09476 
L 172.712633 149.612309 
L 173.32258 149.187048 
L 173.932528 149.077114 
L 174.542475 148.659549 
L 175.152422 148.860909 
L 175.762369 148.449109 
L 176.372316 148.649417 
L 176.982263 148.545399 
L 177.592211 149.043538 
L 178.202158 148.639617 
L 178.812105 148.537321 
L 179.422052 148.140392 
L 181.251894 148.720994 
L 181.861841 149.200054 
L 182.471788 148.809977 
L 183.691682 148.61203 
L 184.301629 147.947267 
L 184.911577 147.853679 
L 185.521524 148.322607 
L 186.131471 148.50744 
L 186.741418 148.412459 
L 187.351365 148.041817 
L 187.961312 147.950076 
L 188.57126 147.3115 
L 189.181207 147.769294 
L 189.791154 147.409024 
L 191.011048 148.310396 
L 191.620995 148.487292 
L 192.230943 148.130493 
L 193.450837 147.953994 
L 194.670731 148.302832 
L 195.890626 148.128016 
L 196.500573 148.556591 
L 197.720467 148.891901 
L 198.940361 148.7157 
L 199.550309 148.880361 
L 201.38015 148.620936 
L 203.819939 149.261019 
L 205.039833 149.089267 
L 205.64978 148.523163 
L 206.869675 148.837174 
L 207.479622 148.516992 
L 208.089569 148.672688 
L 208.699516 148.355919 
L 209.91941 148.197546 
L 210.529358 148.584592 
L 211.139305 148.273464 
L 211.749252 148.195608 
L 212.359199 147.888664 
L 212.969146 147.813036 
L 213.579093 147.510167 
L 214.189041 147.663619 
L 214.798988 147.363824 
L 216.018882 147.668192 
L 217.238776 147.522925 
L 217.848724 147.229667 
L 218.458671 147.159349 
L 219.068618 146.650101 
L 219.678565 146.582625 
L 220.288512 146.73369 
L 220.898459 146.449238 
L 221.508407 146.383328 
L 222.118354 146.102446 
L 222.728301 146.253031 
L 223.338248 145.547153 
L 224.558142 145.424727 
L 225.16809 145.786994 
L 225.778037 145.304164 
L 226.387984 145.664153 
L 227.607878 145.959591 
L 228.827773 145.837288 
L 230.047667 146.127092 
L 230.657614 146.066003 
L 231.267561 146.412646 
L 231.877508 146.553861 
L 233.097403 146.430358 
L 233.70735 145.967858 
L 234.317297 146.108643 
L 234.927244 146.049153 
L 235.537191 146.387197 
L 236.757086 146.267496 
L 237.367033 146.601182 
L 237.97698 146.541004 
L 238.586927 146.286177 
L 239.806822 146.556695 
L 240.416769 145.918384 
L 241.026716 145.669232 
L 242.856557 146.074404 
L 243.466505 146.017863 
L 244.076452 145.772621 
L 244.686399 145.717488 
L 245.296346 146.038383 
L 245.906293 145.982729 
L 246.51624 146.300575 
L 248.346082 146.687331 
L 248.956029 146.446363 
L 249.565976 146.390469 
L 250.175923 146.517824 
L 250.785871 146.462054 
L 251.395818 146.043288 
L 252.005765 146.170527 
L 252.615712 146.477446 
L 253.225659 146.422538 
L 253.835606 145.829957 
L 254.445554 145.956244 
L 255.055501 146.259915 
L 255.665448 146.384024 
L 256.275395 146.153229 
L 258.105237 147.047999 
L 259.935078 147.40479 
L 261.154972 147.293639 
L 261.76492 147.066457 
L 262.984814 147.642676 
L 263.594761 147.587055 
L 264.204708 147.361753 
L 264.814655 147.476823 
L 265.424603 147.253228 
L 266.03455 147.199462 
L 267.254444 147.427813 
L 267.864391 147.207051 
L 269.084286 147.433313 
L 269.694233 147.710898 
L 270.30418 147.821859 
L 271.524074 148.36982 
L 272.134021 147.987314 
L 272.743969 148.259199 
L 273.353916 147.879261 
L 273.963863 148.149878 
L 274.57381 148.25731 
L 275.183757 148.202964 
L 275.793704 148.309617 
L 277.013599 148.201573 
L 277.623546 148.307323 
L 278.233493 148.09477 
L 279.453387 147.98917 
L 280.063335 147.779327 
L 280.673282 147.727723 
L 281.283229 147.519794 
L 281.893176 147.46921 
L 283.11307 146.747699 
L 283.723018 146.854543 
L 284.332965 146.806369 
L 284.942912 146.912459 
L 285.552859 146.864384 
L 286.772753 147.074501 
L 287.992648 146.978518 
L 291.042384 147.492356 
L 291.652331 147.444017 
L 293.482172 148.190074 
L 294.702067 148.090976 
L 295.312014 148.188897 
L 296.531908 148.675803 
L 297.751802 148.575454 
L 298.36175 148.670841 
L 299.581644 148.282494 
L 300.801538 148.185476 
L 303.241327 148.563177 
L 303.851274 148.798221 
L 304.461221 148.324745 
L 305.681116 147.666494 
L 306.291063 147.761035 
L 306.90101 147.715065 
L 307.510957 147.389945 
L 308.120904 147.2058 
L 309.340799 147.117538 
L 309.950746 147.212038 
L 310.560693 147.168114 
L 311.17064 146.986794 
L 311.780587 147.218185 
L 312.390534 147.3115 
L 313.000482 147.131166 
L 314.830323 147.409024 
L 316.660165 146.875171 
L 317.270112 146.967508 
L 317.880059 146.925448 
L 318.490006 146.749936 
L 319.099953 146.708597 
L 319.7099 146.534443 
L 321.539742 146.413135 
L 322.149689 146.504818 
L 323.979531 146.38486 
L 324.589478 146.475748 
L 325.199425 146.436016 
L 326.419319 146.097923 
L 327.029266 145.800763 
L 327.639214 145.762961 
L 328.249161 145.854039 
L 328.859108 145.687896 
L 329.469055 145.778718 
L 330.688949 145.704092 
L 331.298897 145.539813 
L 332.518791 145.466787 
L 333.128738 144.925105 
L 333.738685 144.890153 
L 334.348632 145.106914 
L 334.95858 144.946214 
L 335.568527 145.036662 
L 336.178474 145.251633 
L 336.788421 145.340997 
L 337.398368 145.554328 
L 338.008315 145.518514 
L 340.448104 145.868844 
L 341.058051 145.832732 
L 341.667998 146.041689 
L 342.277946 146.005353 
L 342.887893 146.213018 
L 344.107787 146.140082 
L 344.717734 146.346098 
L 345.327681 146.430358 
L 345.937629 146.273054 
L 347.157523 146.200649 
L 347.76747 146.284495 
L 348.377417 146.248417 
L 349.597312 146.414833 
L 350.207259 146.378705 
L 350.817206 146.579825 
L 351.427153 146.543506 
L 352.0371 146.625372 
L 352.647048 146.824686 
L 353.256995 146.905616 
L 353.866942 146.868916 
L 354.476889 147.066457 
L 355.086836 147.146376 
L 356.306731 146.723658 
L 356.916678 146.68772 
L 357.526625 146.767756 
L 358.136572 146.731876 
L 358.746519 146.580802 
L 359.966414 146.510261 
L 360.576361 146.58984 
L 361.796255 146.862172 
L 362.406202 146.712689 
L 363.016149 146.336438 
L 364.236044 146.494355 
L 365.455938 146.087145 
L 366.675832 146.469419 
L 367.28578 146.435229 
L 369.115621 146.77913 
L 369.725568 146.6334 
L 369.725568 146.6334 
" style="fill:none;stroke:#9467bd;stroke-linecap:square;stroke-width:1.5;"/>
   </g>
   <g id="line2d_21">
    <path clip-path="url(#p33208dd9a6)" d="M 65.361932 129.51 
L 65.971879 185.105455 
L 66.581826 166.573634 
L 67.191773 171.206592 
L 67.80172 162.867274 
L 68.411668 148.041817 
L 69.021615 145.394414 
L 69.631562 136.459433 
L 70.241509 135.687272 
L 71.461403 144.672399 
L 72.071351 148.041817 
L 72.681298 142.339719 
L 73.291245 141.423311 
L 73.901192 144.335457 
L 74.511139 139.934146 
L 75.731034 151.130453 
L 76.950928 143.408867 
L 77.560875 148.041817 
L 78.170822 149.726534 
L 79.390717 143.408867 
L 80.610611 142.339719 
L 81.220558 139.805457 
L 81.830505 141.423311 
L 82.440452 144.846677 
L 83.0504 144.335457 
L 83.660347 145.650617 
L 84.880241 151.411243 
L 86.100135 146.982859 
L 86.710083 149.586139 
L 87.32003 150.546123 
L 87.929977 149.992537 
L 89.149871 146.188637 
L 89.759819 145.781841 
L 90.369766 146.718116 
L 91.58966 145.93593 
L 92.199607 148.041817 
L 92.809554 148.847554 
L 93.419502 147.253228 
L 94.029449 148.041817 
L 94.639396 147.663619 
L 95.249343 148.412459 
L 95.85929 148.041817 
L 96.469237 149.823726 
L 97.079185 149.44045 
L 98.299079 150.73736 
L 99.518973 153.893969 
L 100.12892 154.432105 
L 100.738868 155.894288 
L 101.958762 155.029226 
L 103.788603 151.226974 
L 104.398551 150.892866 
L 105.008498 151.411243 
L 105.618445 152.743925 
L 106.228392 152.402244 
L 106.838339 152.87621 
L 107.448286 150.953963 
L 108.058234 152.218 
L 108.668181 152.674775 
L 109.278128 153.880615 
L 109.888075 154.302571 
L 110.498022 155.454545 
L 111.107969 153.650135 
L 111.717917 151.170566 
L 112.327864 152.31839 
L 112.937811 149.918458 
L 113.547758 150.3583 
L 114.157705 149.414545 
L 114.767652 149.849806 
L 115.3776 149.604746 
L 115.987547 150.689219 
L 116.597494 149.785991 
L 117.207441 149.550226 
L 117.817388 149.958902 
L 119.037283 149.499377 
L 120.257177 150.281927 
L 120.867124 150.056144 
L 122.087018 150.801878 
L 123.91686 150.143362 
L 124.526807 149.365518 
L 125.746701 150.080318 
L 126.966596 151.857191 
L 127.576543 150.560704 
L 128.796437 152.277664 
L 129.406384 152.062875 
L 130.016332 152.371683 
L 130.626279 152.160001 
L 131.236226 152.462256 
L 131.846173 152.253598 
L 133.066067 152.840239 
L 133.676015 151.649783 
L 134.285962 151.943257 
L 134.895909 151.748185 
L 137.335698 152.869433 
L 138.555592 151.564396 
L 139.165539 151.383623 
L 139.775486 150.753796 
L 140.385433 151.030825 
L 140.995381 150.413888 
L 142.215275 150.084701 
L 142.825222 150.3583 
L 143.435169 149.765711 
L 144.045116 150.037554 
L 144.655064 149.880855 
L 145.265011 150.147711 
L 145.874958 149.992537 
L 146.484905 149.424793 
L 147.704799 149.949508 
L 148.924694 149.653284 
L 150.144588 150.15974 
L 151.364482 148.302832 
L 151.97443 148.948972 
L 153.194324 149.447682 
L 153.804271 149.311123 
L 154.414218 148.420023 
L 155.024165 149.043538 
L 155.634113 148.539318 
L 156.854007 149.023639 
L 157.463954 149.626774 
L 158.683848 149.365518 
L 159.293796 149.596105 
L 159.903743 149.467341 
L 160.51369 150.048448 
L 161.123637 149.214718 
L 162.953479 148.847554 
L 163.563426 149.071365 
L 164.173373 148.269206 
L 164.78332 148.493812 
L 165.393267 148.378759 
L 166.003214 148.934921 
L 166.613162 148.485693 
L 167.223109 148.372744 
L 167.833056 148.590101 
L 168.443003 148.477865 
L 170.882792 146.763762 
L 171.492739 146.982859 
L 172.102686 146.567696 
L 172.712633 146.785426 
L 173.932528 145.971222 
L 175.152422 145.78933 
L 175.762369 146.005353 
L 176.372316 145.307619 
L 176.982263 145.826055 
L 177.592211 146.038383 
L 178.202158 146.547317 
L 178.812105 145.861603 
L 179.422052 146.070353 
L 180.031999 145.688576 
L 180.641946 145.896033 
L 181.861841 145.725342 
L 182.471788 145.353266 
L 183.081735 145.558172 
L 183.691682 146.046088 
L 184.301629 146.245368 
L 184.911577 145.595998 
L 186.741418 146.188637 
L 187.351365 146.105661 
L 187.961312 146.298728 
L 188.57126 146.216025 
L 189.181207 145.861603 
L 189.791154 145.239447 
L 190.401101 145.43297 
L 191.011048 145.8932 
L 191.620995 146.081727 
L 192.230943 146.534443 
L 192.84089 146.188637 
L 194.060784 146.555775 
L 194.670731 145.953725 
L 195.280678 146.396475 
L 195.890626 146.576511 
L 197.11052 146.419216 
L 198.940361 146.946756 
L 200.770203 146.712184 
L 202.600044 147.22183 
L 203.209992 146.653978 
L 204.429886 146.018691 
L 205.64978 146.357108 
L 209.91941 145.861603 
L 210.529358 146.258424 
L 211.139305 146.420284 
L 211.749252 146.350116 
L 212.359199 146.739995 
L 212.969146 146.669089 
L 213.579093 146.143064 
L 214.189041 145.848257 
L 216.628829 145.585792 
L 217.238776 145.966259 
L 217.848724 146.122188 
L 218.458671 146.497503 
L 219.068618 146.650101 
L 219.678565 146.363743 
L 220.288512 146.297651 
L 220.898459 146.014905 
L 222.118354 145.886953 
L 223.338248 146.188637 
L 223.948195 145.911723 
L 224.558142 146.061323 
L 225.16809 145.786994 
L 225.778037 145.93593 
L 226.387984 145.873947 
L 226.997931 146.021433 
L 227.607878 146.376037 
L 228.217825 146.105661 
L 229.43772 146.806369 
L 230.047667 146.537392 
L 230.657614 146.066003 
L 231.267561 146.209 
L 231.877508 146.14806 
L 232.487456 145.683224 
L 233.097403 145.826055 
L 234.317297 145.708674 
L 235.537191 145.990085 
L 236.147139 145.733585 
L 237.97698 146.736764 
L 238.586927 146.676321 
L 239.196874 146.810685 
L 239.806822 146.7504 
L 240.416769 146.883579 
L 241.026716 146.823468 
L 241.636663 146.572054 
L 242.24661 146.513425 
L 242.856557 146.835986 
L 243.466505 146.776852 
L 244.076452 147.096322 
L 245.296346 146.226206 
L 246.51624 146.487139 
L 247.126188 146.244415 
L 247.736135 146.188637 
L 248.346082 146.317931 
L 248.956029 146.630459 
L 249.565976 146.573951 
L 250.785871 146.0975 
L 251.395818 146.406656 
L 252.615712 146.296938 
L 253.225659 146.422538 
L 253.835606 146.188637 
L 255.055501 146.438104 
L 255.665448 146.739266 
L 256.275395 146.861452 
L 256.885342 146.276882 
L 257.495289 145.871959 
L 258.105237 145.820339 
L 259.935078 146.188637 
L 260.545025 146.136677 
L 261.76492 146.377976 
L 262.984814 146.274173 
L 263.594761 146.563819 
L 264.204708 146.341649 
L 266.644497 146.138251 
L 269.084286 146.603526 
L 270.30418 146.172143 
L 270.914127 145.793878 
L 271.524074 145.745846 
L 272.134021 145.861603 
L 272.743969 145.48758 
L 273.353916 145.765985 
L 274.57381 145.348237 
L 275.183757 145.463481 
L 275.793704 145.41737 
L 276.403652 145.691964 
L 277.013599 145.80522 
L 277.623546 145.439929 
L 278.233493 145.394414 
L 279.453387 145.620047 
L 280.063335 145.416915 
L 280.673282 145.686082 
L 281.893176 145.90754 
L 282.503123 146.173062 
L 283.723018 146.389955 
L 284.332965 146.034208 
L 284.942912 146.296441 
L 285.552859 146.09649 
L 287.382701 145.960162 
L 287.992648 146.067122 
L 288.602595 145.870517 
L 289.212542 145.826055 
L 289.822489 145.932509 
L 290.432436 145.737868 
L 292.262278 145.607348 
L 292.872225 145.712957 
L 293.482172 145.966259 
L 294.092119 145.922493 
L 295.921961 146.232643 
L 296.531908 146.188637 
L 297.141855 146.290783 
L 297.751802 146.537931 
L 298.971697 146.159683 
L 299.581644 146.40524 
L 300.191591 146.505506 
L 302.021433 146.37443 
L 303.851274 145.819891 
L 304.461221 146.061323 
L 305.071168 146.16042 
L 305.681116 146.118261 
L 306.291063 145.795535 
L 306.90101 145.754519 
L 307.510957 145.853385 
L 308.120904 146.091105 
L 308.730851 145.771668 
L 309.950746 145.690771 
L 310.560693 145.512665 
L 311.780587 144.884545 
L 312.390534 144.709745 
L 313.000482 144.809 
L 313.610429 144.771496 
L 314.220376 144.598253 
L 314.830323 144.561454 
L 316.050217 144.218506 
L 316.660165 143.913666 
L 317.270112 144.013162 
L 317.880059 143.978218 
L 318.490006 144.210719 
L 319.099953 144.042149 
L 319.7099 144.007379 
L 320.319848 144.238157 
L 320.929795 144.203089 
L 321.539742 144.036126 
L 322.149689 144.001704 
L 322.759636 144.230312 
L 323.979531 144.422666 
L 324.589478 144.387657 
L 325.199425 144.483018 
L 325.809372 144.707823 
L 326.419319 144.413214 
L 327.029266 144.378552 
L 327.639214 144.21506 
L 328.249161 144.181028 
L 328.859108 144.275536 
L 329.469055 144.241512 
L 330.079002 143.824237 
L 330.688949 143.663893 
L 331.298897 143.885939 
L 332.518791 144.073729 
L 333.128738 144.040633 
L 333.738685 143.629479 
L 334.95858 143.816731 
L 335.568527 143.784513 
L 336.178474 143.502563 
L 336.788421 143.47119 
L 337.398368 143.315585 
L 338.008315 143.532958 
L 339.838157 143.439685 
L 340.448104 143.531865 
L 341.058051 143.500914 
L 341.667998 143.347637 
L 343.49784 143.256799 
L 344.107787 143.105394 
L 344.717734 143.31802 
L 345.327681 143.167145 
L 345.937629 143.137521 
L 346.547576 142.987689 
L 347.157523 142.958578 
L 347.76747 142.570141 
L 348.377417 142.542057 
L 350.207259 142.814894 
L 350.817206 142.667987 
L 351.427153 142.758279 
L 352.0371 142.494082 
L 352.647048 142.584357 
L 353.256995 142.556712 
L 354.476889 142.267695 
L 355.086836 142.240895 
L 355.696783 142.447308 
L 356.306731 142.303931 
L 356.916678 142.277222 
L 357.526625 142.482277 
L 358.136572 142.339719 
L 358.746519 142.428445 
L 359.356466 142.401703 
L 360.576361 142.577795 
L 361.186308 142.436514 
L 361.796255 142.524129 
L 362.406202 142.497462 
L 364.236044 142.98426 
L 364.845991 143.06987 
L 365.455938 143.042366 
L 367.28578 142.736342 
L 367.895727 142.933452 
L 368.505674 142.906494 
L 369.725568 142.519341 
L 369.725568 142.519341 
" style="fill:none;stroke:#8c564b;stroke-linecap:square;stroke-width:1.5;"/>
   </g>
   <g id="line2d_22">
    <path clip-path="url(#p33208dd9a6)" d="M 50.14375 147.856501 
L 384.94375 147.856501 
" style="fill:none;stroke:#000000;stroke-dasharray:5.55,2.4;stroke-dashoffset:0;stroke-width:1.5;"/>
   </g>
   <g id="patch_3">
    <path d="M 50.14375 251.82 
L 50.14375 7.2 
" style="fill:none;stroke:#000000;stroke-linecap:square;stroke-linejoin:miter;stroke-width:0.8;"/>
   </g>
   <g id="patch_4">
    <path d="M 384.94375 251.82 
L 384.94375 7.2 
" style="fill:none;stroke:#000000;stroke-linecap:square;stroke-linejoin:miter;stroke-width:0.8;"/>
   </g>
   <g id="patch_5">
    <path d="M 50.14375 251.82 
L 384.94375 251.82 
" style="fill:none;stroke:#000000;stroke-linecap:square;stroke-linejoin:miter;stroke-width:0.8;"/>
   </g>
   <g id="patch_6">
    <path d="M 50.14375 7.2 
L 384.94375 7.2 
" style="fill:none;stroke:#000000;stroke-linecap:square;stroke-linejoin:miter;stroke-width:0.8;"/>
   </g>
   <g id="legend_1">
    <g id="patch_7">
     <path d="M 302.089063 103.26875 
L 377.94375 103.26875 
Q 379.94375 103.26875 379.94375 101.26875 
L 379.94375 14.2 
Q 379.94375 12.2 377.94375 12.2 
L 302.089063 12.2 
Q 300.089063 12.2 300.089063 14.2 
L 300.089063 101.26875 
Q 300.089063 103.26875 302.089063 103.26875 
z
" style="fill:#ffffff;opacity:0.8;stroke:#cccccc;stroke-linejoin:miter;"/>
    </g>
    <g id="line2d_23">
     <path d="M 304.089063 20.298437 
L 324.089063 20.298437 
" style="fill:none;stroke:#1f77b4;stroke-linecap:square;stroke-width:1.5;"/>
    </g>
    <g id="line2d_24"/>
    <g id="text_18">
     <!-- P(die=1) -->
     <g transform="translate(332.089063 23.798437)scale(0.1 -0.1)">
      <defs>
       <path d="M 19.671875 64.796875 
L 19.671875 37.40625 
L 32.078125 37.40625 
Q 38.96875 37.40625 42.71875 40.96875 
Q 46.484375 44.53125 46.484375 51.125 
Q 46.484375 57.671875 42.71875 61.234375 
Q 38.96875 64.796875 32.078125 64.796875 
z
M 9.8125 72.90625 
L 32.078125 72.90625 
Q 44.34375 72.90625 50.609375 67.359375 
Q 56.890625 61.8125 56.890625 51.125 
Q 56.890625 40.328125 50.609375 34.8125 
Q 44.34375 29.296875 32.078125 29.296875 
L 19.671875 29.296875 
L 19.671875 0 
L 9.8125 0 
z
" id="DejaVuSans-80"/>
       <path d="M 31 75.875 
Q 24.46875 64.65625 21.28125 53.65625 
Q 18.109375 42.671875 18.109375 31.390625 
Q 18.109375 20.125 21.3125 9.0625 
Q 24.515625 -2 31 -13.1875 
L 23.1875 -13.1875 
Q 15.875 -1.703125 12.234375 9.375 
Q 8.59375 20.453125 8.59375 31.390625 
Q 8.59375 42.28125 12.203125 53.3125 
Q 15.828125 64.359375 23.1875 75.875 
z
" id="DejaVuSans-40"/>
       <path d="M 10.59375 45.40625 
L 73.1875 45.40625 
L 73.1875 37.203125 
L 10.59375 37.203125 
z
M 10.59375 25.484375 
L 73.1875 25.484375 
L 73.1875 17.1875 
L 10.59375 17.1875 
z
" id="DejaVuSans-61"/>
       <path d="M 8.015625 75.875 
L 15.828125 75.875 
Q 23.140625 64.359375 26.78125 53.3125 
Q 30.421875 42.28125 30.421875 31.390625 
Q 30.421875 20.453125 26.78125 9.375 
Q 23.140625 -1.703125 15.828125 -13.1875 
L 8.015625 -13.1875 
Q 14.5 -2 17.703125 9.0625 
Q 20.90625 20.125 20.90625 31.390625 
Q 20.90625 42.671875 17.703125 53.65625 
Q 14.5 64.65625 8.015625 75.875 
z
" id="DejaVuSans-41"/>
      </defs>
      <use xlink:href="#DejaVuSans-80"/>
      <use x="60.302734" xlink:href="#DejaVuSans-40"/>
      <use x="99.316406" xlink:href="#DejaVuSans-100"/>
      <use x="162.792969" xlink:href="#DejaVuSans-105"/>
      <use x="190.576172" xlink:href="#DejaVuSans-101"/>
      <use x="252.099609" xlink:href="#DejaVuSans-61"/>
      <use x="335.888672" xlink:href="#DejaVuSans-49"/>
      <use x="399.511719" xlink:href="#DejaVuSans-41"/>
     </g>
    </g>
    <g id="line2d_25">
     <path d="M 304.089063 34.976562 
L 324.089063 34.976562 
" style="fill:none;stroke:#ff7f0e;stroke-linecap:square;stroke-width:1.5;"/>
    </g>
    <g id="line2d_26"/>
    <g id="text_19">
     <!-- P(die=2) -->
     <g transform="translate(332.089063 38.476562)scale(0.1 -0.1)">
      <use xlink:href="#DejaVuSans-80"/>
      <use x="60.302734" xlink:href="#DejaVuSans-40"/>
      <use x="99.316406" xlink:href="#DejaVuSans-100"/>
      <use x="162.792969" xlink:href="#DejaVuSans-105"/>
      <use x="190.576172" xlink:href="#DejaVuSans-101"/>
      <use x="252.099609" xlink:href="#DejaVuSans-61"/>
      <use x="335.888672" xlink:href="#DejaVuSans-50"/>
      <use x="399.511719" xlink:href="#DejaVuSans-41"/>
     </g>
    </g>
    <g id="line2d_27">
     <path d="M 304.089063 49.654687 
L 324.089063 49.654687 
" style="fill:none;stroke:#2ca02c;stroke-linecap:square;stroke-width:1.5;"/>
    </g>
    <g id="line2d_28"/>
    <g id="text_20">
     <!-- P(die=3) -->
     <g transform="translate(332.089063 53.154687)scale(0.1 -0.1)">
      <use xlink:href="#DejaVuSans-80"/>
      <use x="60.302734" xlink:href="#DejaVuSans-40"/>
      <use x="99.316406" xlink:href="#DejaVuSans-100"/>
      <use x="162.792969" xlink:href="#DejaVuSans-105"/>
      <use x="190.576172" xlink:href="#DejaVuSans-101"/>
      <use x="252.099609" xlink:href="#DejaVuSans-61"/>
      <use x="335.888672" xlink:href="#DejaVuSans-51"/>
      <use x="399.511719" xlink:href="#DejaVuSans-41"/>
     </g>
    </g>
    <g id="line2d_29">
     <path d="M 304.089063 64.332812 
L 324.089063 64.332812 
" style="fill:none;stroke:#d62728;stroke-linecap:square;stroke-width:1.5;"/>
    </g>
    <g id="line2d_30"/>
    <g id="text_21">
     <!-- P(die=4) -->
     <g transform="translate(332.089063 67.832812)scale(0.1 -0.1)">
      <use xlink:href="#DejaVuSans-80"/>
      <use x="60.302734" xlink:href="#DejaVuSans-40"/>
      <use x="99.316406" xlink:href="#DejaVuSans-100"/>
      <use x="162.792969" xlink:href="#DejaVuSans-105"/>
      <use x="190.576172" xlink:href="#DejaVuSans-101"/>
      <use x="252.099609" xlink:href="#DejaVuSans-61"/>
      <use x="335.888672" xlink:href="#DejaVuSans-52"/>
      <use x="399.511719" xlink:href="#DejaVuSans-41"/>
     </g>
    </g>
    <g id="line2d_31">
     <path d="M 304.089063 79.010937 
L 324.089063 79.010937 
" style="fill:none;stroke:#9467bd;stroke-linecap:square;stroke-width:1.5;"/>
    </g>
    <g id="line2d_32"/>
    <g id="text_22">
     <!-- P(die=5) -->
     <g transform="translate(332.089063 82.510937)scale(0.1 -0.1)">
      <use xlink:href="#DejaVuSans-80"/>
      <use x="60.302734" xlink:href="#DejaVuSans-40"/>
      <use x="99.316406" xlink:href="#DejaVuSans-100"/>
      <use x="162.792969" xlink:href="#DejaVuSans-105"/>
      <use x="190.576172" xlink:href="#DejaVuSans-101"/>
      <use x="252.099609" xlink:href="#DejaVuSans-61"/>
      <use x="335.888672" xlink:href="#DejaVuSans-53"/>
      <use x="399.511719" xlink:href="#DejaVuSans-41"/>
     </g>
    </g>
    <g id="line2d_33">
     <path d="M 304.089063 93.689062 
L 324.089063 93.689062 
" style="fill:none;stroke:#8c564b;stroke-linecap:square;stroke-width:1.5;"/>
    </g>
    <g id="line2d_34"/>
    <g id="text_23">
     <!-- P(die=6) -->
     <g transform="translate(332.089063 97.189062)scale(0.1 -0.1)">
      <defs>
       <path d="M 33.015625 40.375 
Q 26.375 40.375 22.484375 35.828125 
Q 18.609375 31.296875 18.609375 23.390625 
Q 18.609375 15.53125 22.484375 10.953125 
Q 26.375 6.390625 33.015625 6.390625 
Q 39.65625 6.390625 43.53125 10.953125 
Q 47.40625 15.53125 47.40625 23.390625 
Q 47.40625 31.296875 43.53125 35.828125 
Q 39.65625 40.375 33.015625 40.375 
z
M 52.59375 71.296875 
L 52.59375 62.3125 
Q 48.875 64.0625 45.09375 64.984375 
Q 41.3125 65.921875 37.59375 65.921875 
Q 27.828125 65.921875 22.671875 59.328125 
Q 17.53125 52.734375 16.796875 39.40625 
Q 19.671875 43.65625 24.015625 45.921875 
Q 28.375 48.1875 33.59375 48.1875 
Q 44.578125 48.1875 50.953125 41.515625 
Q 57.328125 34.859375 57.328125 23.390625 
Q 57.328125 12.15625 50.6875 5.359375 
Q 44.046875 -1.421875 33.015625 -1.421875 
Q 20.359375 -1.421875 13.671875 8.265625 
Q 6.984375 17.96875 6.984375 36.375 
Q 6.984375 53.65625 15.1875 63.9375 
Q 23.390625 74.21875 37.203125 74.21875 
Q 40.921875 74.21875 44.703125 73.484375 
Q 48.484375 72.75 52.59375 71.296875 
z
" id="DejaVuSans-54"/>
      </defs>
      <use xlink:href="#DejaVuSans-80"/>
      <use x="60.302734" xlink:href="#DejaVuSans-40"/>
      <use x="99.316406" xlink:href="#DejaVuSans-100"/>
      <use x="162.792969" xlink:href="#DejaVuSans-105"/>
      <use x="190.576172" xlink:href="#DejaVuSans-101"/>
      <use x="252.099609" xlink:href="#DejaVuSans-61"/>
      <use x="335.888672" xlink:href="#DejaVuSans-54"/>
      <use x="399.511719" xlink:href="#DejaVuSans-41"/>
     </g>
    </g>
   </g>
  </g>
 </g>
 <defs>
  <clipPath id="p33208dd9a6">
   <rect height="244.62" width="334.8" x="50.14375" y="7.2"/>
  </clipPath>
 </defs>
</svg>
