<?xml version="1.0" encoding="utf-8" standalone="no"?>
<!DOCTYPE svg PUBLIC "-//W3C//DTD SVG 1.1//EN"
  "http://www.w3.org/Graphics/SVG/1.1/DTD/svg11.dtd">
<!-- Created with matplotlib (https://matplotlib.org/) -->
<svg height="289.37625pt" version="1.1" viewBox="0 0 392.14375 289.37625" width="392.14375pt" xmlns="http://www.w3.org/2000/svg" xmlns:xlink="http://www.w3.org/1999/xlink">
 <metadata>
  <rdf:RDF xmlns:cc="http://creativecommons.org/ns#" xmlns:dc="http://purl.org/dc/elements/1.1/" xmlns:rdf="http://www.w3.org/1999/02/22-rdf-syntax-ns#">
   <cc:Work>
    <dc:type rdf:resource="http://purl.org/dc/dcmitype/StillImage"/>
    <dc:date>2022-01-22T17:32:53.891948</dc:date>
    <dc:format>image/svg+xml</dc:format>
    <dc:creator>
     <cc:Agent>
      <dc:title>Matplotlib v3.3.3, https://matplotlib.org/</dc:title>
     </cc:Agent>
    </dc:creator>
   </cc:Work>
  </rdf:RDF>
 </metadata>
 <defs>
  <style type="text/css">*{stroke-linecap:butt;stroke-linejoin:round;}</style>
 </defs>
 <g id="figure_1">
  <g id="patch_1">
   <path d="M 0 289.37625 
L 392.14375 289.37625 
L 392.14375 0 
L 0 0 
z
" style="fill:none;"/>
  </g>
  <g id="axes_1">
   <g id="patch_2">
    <path d="M 50.14375 251.82 
L 384.94375 251.82 
L 384.94375 7.2 
L 50.14375 7.2 
z
" style="fill:#ffffff;"/>
   </g>
   <g id="matplotlib.axis_1">
    <g id="xtick_1">
     <g id="line2d_1">
      <defs>
       <path d="M 0 0 
L 0 3.5 
" id="m2c28b3330a" style="stroke:#000000;stroke-width:0.8;"/>
      </defs>
      <g>
       <use style="stroke:#000000;stroke-width:0.8;" x="65.361932" xlink:href="#m2c28b3330a" y="251.82"/>
      </g>
     </g>
     <g id="text_1">
      <!-- 0 -->
      <g transform="translate(62.180682 266.418437)scale(0.1 -0.1)">
       <defs>
        <path d="M 31.78125 66.40625 
Q 24.171875 66.40625 20.328125 58.90625 
Q 16.5 51.421875 16.5 36.375 
Q 16.5 21.390625 20.328125 13.890625 
Q 24.171875 6.390625 31.78125 6.390625 
Q 39.453125 6.390625 43.28125 13.890625 
Q 47.125 21.390625 47.125 36.375 
Q 47.125 51.421875 43.28125 58.90625 
Q 39.453125 66.40625 31.78125 66.40625 
z
M 31.78125 74.21875 
Q 44.046875 74.21875 50.515625 64.515625 
Q 56.984375 54.828125 56.984375 36.375 
Q 56.984375 17.96875 50.515625 8.265625 
Q 44.046875 -1.421875 31.78125 -1.421875 
Q 19.53125 -1.421875 13.0625 8.265625 
Q 6.59375 17.96875 6.59375 36.375 
Q 6.59375 54.828125 13.0625 64.515625 
Q 19.53125 74.21875 31.78125 74.21875 
z
" id="DejaVuSans-48"/>
       </defs>
       <use xlink:href="#DejaVuSans-48"/>
      </g>
     </g>
    </g>
    <g id="xtick_2">
     <g id="line2d_2">
      <g>
       <use style="stroke:#000000;stroke-width:0.8;" x="126.356649" xlink:href="#m2c28b3330a" y="251.82"/>
      </g>
     </g>
     <g id="text_2">
      <!-- 100 -->
      <g transform="translate(116.812899 266.418437)scale(0.1 -0.1)">
       <defs>
        <path d="M 12.40625 8.296875 
L 28.515625 8.296875 
L 28.515625 63.921875 
L 10.984375 60.40625 
L 10.984375 69.390625 
L 28.421875 72.90625 
L 38.28125 72.90625 
L 38.28125 8.296875 
L 54.390625 8.296875 
L 54.390625 0 
L 12.40625 0 
z
" id="DejaVuSans-49"/>
       </defs>
       <use xlink:href="#DejaVuSans-49"/>
       <use x="63.623047" xlink:href="#DejaVuSans-48"/>
       <use x="127.246094" xlink:href="#DejaVuSans-48"/>
      </g>
     </g>
    </g>
    <g id="xtick_3">
     <g id="line2d_3">
      <g>
       <use style="stroke:#000000;stroke-width:0.8;" x="187.351365" xlink:href="#m2c28b3330a" y="251.82"/>
      </g>
     </g>
     <g id="text_3">
      <!-- 200 -->
      <g transform="translate(177.807615 266.418437)scale(0.1 -0.1)">
       <defs>
        <path d="M 19.1875 8.296875 
L 53.609375 8.296875 
L 53.609375 0 
L 7.328125 0 
L 7.328125 8.296875 
Q 12.9375 14.109375 22.625 23.890625 
Q 32.328125 33.6875 34.8125 36.53125 
Q 39.546875 41.84375 41.421875 45.53125 
Q 43.3125 49.21875 43.3125 52.78125 
Q 43.3125 58.59375 39.234375 62.25 
Q 35.15625 65.921875 28.609375 65.921875 
Q 23.96875 65.921875 18.8125 64.3125 
Q 13.671875 62.703125 7.8125 59.421875 
L 7.8125 69.390625 
Q 13.765625 71.78125 18.9375 73 
Q 24.125 74.21875 28.421875 74.21875 
Q 39.75 74.21875 46.484375 68.546875 
Q 53.21875 62.890625 53.21875 53.421875 
Q 53.21875 48.921875 51.53125 44.890625 
Q 49.859375 40.875 45.40625 35.40625 
Q 44.1875 33.984375 37.640625 27.21875 
Q 31.109375 20.453125 19.1875 8.296875 
z
" id="DejaVuSans-50"/>
       </defs>
       <use xlink:href="#DejaVuSans-50"/>
       <use x="63.623047" xlink:href="#DejaVuSans-48"/>
       <use x="127.246094" xlink:href="#DejaVuSans-48"/>
      </g>
     </g>
    </g>
    <g id="xtick_4">
     <g id="line2d_4">
      <g>
       <use style="stroke:#000000;stroke-width:0.8;" x="248.346082" xlink:href="#m2c28b3330a" y="251.82"/>
      </g>
     </g>
     <g id="text_4">
      <!-- 300 -->
      <g transform="translate(238.802332 266.418437)scale(0.1 -0.1)">
       <defs>
        <path d="M 40.578125 39.3125 
Q 47.65625 37.796875 51.625 33 
Q 55.609375 28.21875 55.609375 21.1875 
Q 55.609375 10.40625 48.1875 4.484375 
Q 40.765625 -1.421875 27.09375 -1.421875 
Q 22.515625 -1.421875 17.65625 -0.515625 
Q 12.796875 0.390625 7.625 2.203125 
L 7.625 11.71875 
Q 11.71875 9.328125 16.59375 8.109375 
Q 21.484375 6.890625 26.8125 6.890625 
Q 36.078125 6.890625 40.9375 10.546875 
Q 45.796875 14.203125 45.796875 21.1875 
Q 45.796875 27.640625 41.28125 31.265625 
Q 36.765625 34.90625 28.71875 34.90625 
L 20.21875 34.90625 
L 20.21875 43.015625 
L 29.109375 43.015625 
Q 36.375 43.015625 40.234375 45.921875 
Q 44.09375 48.828125 44.09375 54.296875 
Q 44.09375 59.90625 40.109375 62.90625 
Q 36.140625 65.921875 28.71875 65.921875 
Q 24.65625 65.921875 20.015625 65.03125 
Q 15.375 64.15625 9.8125 62.3125 
L 9.8125 71.09375 
Q 15.4375 72.65625 20.34375 73.4375 
Q 25.25 74.21875 29.59375 74.21875 
Q 40.828125 74.21875 47.359375 69.109375 
Q 53.90625 64.015625 53.90625 55.328125 
Q 53.90625 49.265625 50.4375 45.09375 
Q 46.96875 40.921875 40.578125 39.3125 
z
" id="DejaVuSans-51"/>
       </defs>
       <use xlink:href="#DejaVuSans-51"/>
       <use x="63.623047" xlink:href="#DejaVuSans-48"/>
       <use x="127.246094" xlink:href="#DejaVuSans-48"/>
      </g>
     </g>
    </g>
    <g id="xtick_5">
     <g id="line2d_5">
      <g>
       <use style="stroke:#000000;stroke-width:0.8;" x="309.340799" xlink:href="#m2c28b3330a" y="251.82"/>
      </g>
     </g>
     <g id="text_5">
      <!-- 400 -->
      <g transform="translate(299.797049 266.418437)scale(0.1 -0.1)">
       <defs>
        <path d="M 37.796875 64.3125 
L 12.890625 25.390625 
L 37.796875 25.390625 
z
M 35.203125 72.90625 
L 47.609375 72.90625 
L 47.609375 25.390625 
L 58.015625 25.390625 
L 58.015625 17.1875 
L 47.609375 17.1875 
L 47.609375 0 
L 37.796875 0 
L 37.796875 17.1875 
L 4.890625 17.1875 
L 4.890625 26.703125 
z
" id="DejaVuSans-52"/>
       </defs>
       <use xlink:href="#DejaVuSans-52"/>
       <use x="63.623047" xlink:href="#DejaVuSans-48"/>
       <use x="127.246094" xlink:href="#DejaVuSans-48"/>
      </g>
     </g>
    </g>
    <g id="xtick_6">
     <g id="line2d_6">
      <g>
       <use style="stroke:#000000;stroke-width:0.8;" x="370.335515" xlink:href="#m2c28b3330a" y="251.82"/>
      </g>
     </g>
     <g id="text_6">
      <!-- 500 -->
      <g transform="translate(360.791765 266.418437)scale(0.1 -0.1)">
       <defs>
        <path d="M 10.796875 72.90625 
L 49.515625 72.90625 
L 49.515625 64.59375 
L 19.828125 64.59375 
L 19.828125 46.734375 
Q 21.96875 47.46875 24.109375 47.828125 
Q 26.265625 48.1875 28.421875 48.1875 
Q 40.625 48.1875 47.75 41.5 
Q 54.890625 34.8125 54.890625 23.390625 
Q 54.890625 11.625 47.5625 5.09375 
Q 40.234375 -1.421875 26.90625 -1.421875 
Q 22.3125 -1.421875 17.546875 -0.640625 
Q 12.796875 0.140625 7.71875 1.703125 
L 7.71875 11.625 
Q 12.109375 9.234375 16.796875 8.0625 
Q 21.484375 6.890625 26.703125 6.890625 
Q 35.15625 6.890625 40.078125 11.328125 
Q 45.015625 15.765625 45.015625 23.390625 
Q 45.015625 31 40.078125 35.4375 
Q 35.15625 39.890625 26.703125 39.890625 
Q 22.75 39.890625 18.8125 39.015625 
Q 14.890625 38.140625 10.796875 36.28125 
z
" id="DejaVuSans-53"/>
       </defs>
       <use xlink:href="#DejaVuSans-53"/>
       <use x="63.623047" xlink:href="#DejaVuSans-48"/>
       <use x="127.246094" xlink:href="#DejaVuSans-48"/>
      </g>
     </g>
    </g>
    <g id="text_7">
     <!-- Groups of experiments -->
     <g transform="translate(160.397656 280.096562)scale(0.1 -0.1)">
      <defs>
       <path d="M 59.515625 10.40625 
L 59.515625 29.984375 
L 43.40625 29.984375 
L 43.40625 38.09375 
L 69.28125 38.09375 
L 69.28125 6.78125 
Q 63.578125 2.734375 56.6875 0.65625 
Q 49.8125 -1.421875 42 -1.421875 
Q 24.90625 -1.421875 15.25 8.5625 
Q 5.609375 18.5625 5.609375 36.375 
Q 5.609375 54.25 15.25 64.234375 
Q 24.90625 74.21875 42 74.21875 
Q 49.125 74.21875 55.546875 72.453125 
Q 61.96875 70.703125 67.390625 67.28125 
L 67.390625 56.78125 
Q 61.921875 61.421875 55.765625 63.765625 
Q 49.609375 66.109375 42.828125 66.109375 
Q 29.4375 66.109375 22.71875 58.640625 
Q 16.015625 51.171875 16.015625 36.375 
Q 16.015625 21.625 22.71875 14.15625 
Q 29.4375 6.6875 42.828125 6.6875 
Q 48.046875 6.6875 52.140625 7.59375 
Q 56.25 8.5 59.515625 10.40625 
z
" id="DejaVuSans-71"/>
       <path d="M 41.109375 46.296875 
Q 39.59375 47.171875 37.8125 47.578125 
Q 36.03125 48 33.890625 48 
Q 26.265625 48 22.1875 43.046875 
Q 18.109375 38.09375 18.109375 28.8125 
L 18.109375 0 
L 9.078125 0 
L 9.078125 54.6875 
L 18.109375 54.6875 
L 18.109375 46.1875 
Q 20.953125 51.171875 25.484375 53.578125 
Q 30.03125 56 36.53125 56 
Q 37.453125 56 38.578125 55.875 
Q 39.703125 55.765625 41.0625 55.515625 
z
" id="DejaVuSans-114"/>
       <path d="M 30.609375 48.390625 
Q 23.390625 48.390625 19.1875 42.75 
Q 14.984375 37.109375 14.984375 27.296875 
Q 14.984375 17.484375 19.15625 11.84375 
Q 23.34375 6.203125 30.609375 6.203125 
Q 37.796875 6.203125 41.984375 11.859375 
Q 46.1875 17.53125 46.1875 27.296875 
Q 46.1875 37.015625 41.984375 42.703125 
Q 37.796875 48.390625 30.609375 48.390625 
z
M 30.609375 56 
Q 42.328125 56 49.015625 48.375 
Q 55.71875 40.765625 55.71875 27.296875 
Q 55.71875 13.875 49.015625 6.21875 
Q 42.328125 -1.421875 30.609375 -1.421875 
Q 18.84375 -1.421875 12.171875 6.21875 
Q 5.515625 13.875 5.515625 27.296875 
Q 5.515625 40.765625 12.171875 48.375 
Q 18.84375 56 30.609375 56 
z
" id="DejaVuSans-111"/>
       <path d="M 8.5 21.578125 
L 8.5 54.6875 
L 17.484375 54.6875 
L 17.484375 21.921875 
Q 17.484375 14.15625 20.5 10.265625 
Q 23.53125 6.390625 29.59375 6.390625 
Q 36.859375 6.390625 41.078125 11.03125 
Q 45.3125 15.671875 45.3125 23.6875 
L 45.3125 54.6875 
L 54.296875 54.6875 
L 54.296875 0 
L 45.3125 0 
L 45.3125 8.40625 
Q 42.046875 3.421875 37.71875 1 
Q 33.40625 -1.421875 27.6875 -1.421875 
Q 18.265625 -1.421875 13.375 4.4375 
Q 8.5 10.296875 8.5 21.578125 
z
M 31.109375 56 
z
" id="DejaVuSans-117"/>
       <path d="M 18.109375 8.203125 
L 18.109375 -20.796875 
L 9.078125 -20.796875 
L 9.078125 54.6875 
L 18.109375 54.6875 
L 18.109375 46.390625 
Q 20.953125 51.265625 25.265625 53.625 
Q 29.59375 56 35.59375 56 
Q 45.5625 56 51.78125 48.09375 
Q 58.015625 40.1875 58.015625 27.296875 
Q 58.015625 14.40625 51.78125 6.484375 
Q 45.5625 -1.421875 35.59375 -1.421875 
Q 29.59375 -1.421875 25.265625 0.953125 
Q 20.953125 3.328125 18.109375 8.203125 
z
M 48.6875 27.296875 
Q 48.6875 37.203125 44.609375 42.84375 
Q 40.53125 48.484375 33.40625 48.484375 
Q 26.265625 48.484375 22.1875 42.84375 
Q 18.109375 37.203125 18.109375 27.296875 
Q 18.109375 17.390625 22.1875 11.75 
Q 26.265625 6.109375 33.40625 6.109375 
Q 40.53125 6.109375 44.609375 11.75 
Q 48.6875 17.390625 48.6875 27.296875 
z
" id="DejaVuSans-112"/>
       <path d="M 44.28125 53.078125 
L 44.28125 44.578125 
Q 40.484375 46.53125 36.375 47.5 
Q 32.28125 48.484375 27.875 48.484375 
Q 21.1875 48.484375 17.84375 46.4375 
Q 14.5 44.390625 14.5 40.28125 
Q 14.5 37.15625 16.890625 35.375 
Q 19.28125 33.59375 26.515625 31.984375 
L 29.59375 31.296875 
Q 39.15625 29.25 43.1875 25.515625 
Q 47.21875 21.78125 47.21875 15.09375 
Q 47.21875 7.46875 41.1875 3.015625 
Q 35.15625 -1.421875 24.609375 -1.421875 
Q 20.21875 -1.421875 15.453125 -0.5625 
Q 10.6875 0.296875 5.421875 2 
L 5.421875 11.28125 
Q 10.40625 8.6875 15.234375 7.390625 
Q 20.0625 6.109375 24.8125 6.109375 
Q 31.15625 6.109375 34.5625 8.28125 
Q 37.984375 10.453125 37.984375 14.40625 
Q 37.984375 18.0625 35.515625 20.015625 
Q 33.0625 21.96875 24.703125 23.78125 
L 21.578125 24.515625 
Q 13.234375 26.265625 9.515625 29.90625 
Q 5.8125 33.546875 5.8125 39.890625 
Q 5.8125 47.609375 11.28125 51.796875 
Q 16.75 56 26.8125 56 
Q 31.78125 56 36.171875 55.265625 
Q 40.578125 54.546875 44.28125 53.078125 
z
" id="DejaVuSans-115"/>
       <path id="DejaVuSans-32"/>
       <path d="M 37.109375 75.984375 
L 37.109375 68.5 
L 28.515625 68.5 
Q 23.6875 68.5 21.796875 66.546875 
Q 19.921875 64.59375 19.921875 59.515625 
L 19.921875 54.6875 
L 34.71875 54.6875 
L 34.71875 47.703125 
L 19.921875 47.703125 
L 19.921875 0 
L 10.890625 0 
L 10.890625 47.703125 
L 2.296875 47.703125 
L 2.296875 54.6875 
L 10.890625 54.6875 
L 10.890625 58.5 
Q 10.890625 67.625 15.140625 71.796875 
Q 19.390625 75.984375 28.609375 75.984375 
z
" id="DejaVuSans-102"/>
       <path d="M 56.203125 29.59375 
L 56.203125 25.203125 
L 14.890625 25.203125 
Q 15.484375 15.921875 20.484375 11.0625 
Q 25.484375 6.203125 34.421875 6.203125 
Q 39.59375 6.203125 44.453125 7.46875 
Q 49.3125 8.734375 54.109375 11.28125 
L 54.109375 2.78125 
Q 49.265625 0.734375 44.1875 -0.34375 
Q 39.109375 -1.421875 33.890625 -1.421875 
Q 20.796875 -1.421875 13.15625 6.1875 
Q 5.515625 13.8125 5.515625 26.8125 
Q 5.515625 40.234375 12.765625 48.109375 
Q 20.015625 56 32.328125 56 
Q 43.359375 56 49.78125 48.890625 
Q 56.203125 41.796875 56.203125 29.59375 
z
M 47.21875 32.234375 
Q 47.125 39.59375 43.09375 43.984375 
Q 39.0625 48.390625 32.421875 48.390625 
Q 24.90625 48.390625 20.390625 44.140625 
Q 15.875 39.890625 15.1875 32.171875 
z
" id="DejaVuSans-101"/>
       <path d="M 54.890625 54.6875 
L 35.109375 28.078125 
L 55.90625 0 
L 45.3125 0 
L 29.390625 21.484375 
L 13.484375 0 
L 2.875 0 
L 24.125 28.609375 
L 4.6875 54.6875 
L 15.28125 54.6875 
L 29.78125 35.203125 
L 44.28125 54.6875 
z
" id="DejaVuSans-120"/>
       <path d="M 9.421875 54.6875 
L 18.40625 54.6875 
L 18.40625 0 
L 9.421875 0 
z
M 9.421875 75.984375 
L 18.40625 75.984375 
L 18.40625 64.59375 
L 9.421875 64.59375 
z
" id="DejaVuSans-105"/>
       <path d="M 52 44.1875 
Q 55.375 50.25 60.0625 53.125 
Q 64.75 56 71.09375 56 
Q 79.640625 56 84.28125 50.015625 
Q 88.921875 44.046875 88.921875 33.015625 
L 88.921875 0 
L 79.890625 0 
L 79.890625 32.71875 
Q 79.890625 40.578125 77.09375 44.375 
Q 74.3125 48.1875 68.609375 48.1875 
Q 61.625 48.1875 57.5625 43.546875 
Q 53.515625 38.921875 53.515625 30.90625 
L 53.515625 0 
L 44.484375 0 
L 44.484375 32.71875 
Q 44.484375 40.625 41.703125 44.40625 
Q 38.921875 48.1875 33.109375 48.1875 
Q 26.21875 48.1875 22.15625 43.53125 
Q 18.109375 38.875 18.109375 30.90625 
L 18.109375 0 
L 9.078125 0 
L 9.078125 54.6875 
L 18.109375 54.6875 
L 18.109375 46.1875 
Q 21.1875 51.21875 25.484375 53.609375 
Q 29.78125 56 35.6875 56 
Q 41.65625 56 45.828125 52.96875 
Q 50 49.953125 52 44.1875 
z
" id="DejaVuSans-109"/>
       <path d="M 54.890625 33.015625 
L 54.890625 0 
L 45.90625 0 
L 45.90625 32.71875 
Q 45.90625 40.484375 42.875 44.328125 
Q 39.84375 48.1875 33.796875 48.1875 
Q 26.515625 48.1875 22.3125 43.546875 
Q 18.109375 38.921875 18.109375 30.90625 
L 18.109375 0 
L 9.078125 0 
L 9.078125 54.6875 
L 18.109375 54.6875 
L 18.109375 46.1875 
Q 21.34375 51.125 25.703125 53.5625 
Q 30.078125 56 35.796875 56 
Q 45.21875 56 50.046875 50.171875 
Q 54.890625 44.34375 54.890625 33.015625 
z
" id="DejaVuSans-110"/>
       <path d="M 18.3125 70.21875 
L 18.3125 54.6875 
L 36.8125 54.6875 
L 36.8125 47.703125 
L 18.3125 47.703125 
L 18.3125 18.015625 
Q 18.3125 11.328125 20.140625 9.421875 
Q 21.96875 7.515625 27.59375 7.515625 
L 36.8125 7.515625 
L 36.8125 0 
L 27.59375 0 
Q 17.1875 0 13.234375 3.875 
Q 9.28125 7.765625 9.28125 18.015625 
L 9.28125 47.703125 
L 2.6875 47.703125 
L 2.6875 54.6875 
L 9.28125 54.6875 
L 9.28125 70.21875 
z
" id="DejaVuSans-116"/>
      </defs>
      <use xlink:href="#DejaVuSans-71"/>
      <use x="77.490234" xlink:href="#DejaVuSans-114"/>
      <use x="116.353516" xlink:href="#DejaVuSans-111"/>
      <use x="177.535156" xlink:href="#DejaVuSans-117"/>
      <use x="240.914062" xlink:href="#DejaVuSans-112"/>
      <use x="304.390625" xlink:href="#DejaVuSans-115"/>
      <use x="356.490234" xlink:href="#DejaVuSans-32"/>
      <use x="388.277344" xlink:href="#DejaVuSans-111"/>
      <use x="449.458984" xlink:href="#DejaVuSans-102"/>
      <use x="484.664062" xlink:href="#DejaVuSans-32"/>
      <use x="516.451172" xlink:href="#DejaVuSans-101"/>
      <use x="576.224609" xlink:href="#DejaVuSans-120"/>
      <use x="635.404297" xlink:href="#DejaVuSans-112"/>
      <use x="698.880859" xlink:href="#DejaVuSans-101"/>
      <use x="760.404297" xlink:href="#DejaVuSans-114"/>
      <use x="801.517578" xlink:href="#DejaVuSans-105"/>
      <use x="829.300781" xlink:href="#DejaVuSans-109"/>
      <use x="926.712891" xlink:href="#DejaVuSans-101"/>
      <use x="988.236328" xlink:href="#DejaVuSans-110"/>
      <use x="1051.615234" xlink:href="#DejaVuSans-116"/>
      <use x="1090.824219" xlink:href="#DejaVuSans-115"/>
     </g>
    </g>
   </g>
   <g id="matplotlib.axis_2">
    <g id="ytick_1">
     <g id="line2d_7">
      <defs>
       <path d="M 0 0 
L -3.5 0 
" id="m3d7b916a78" style="stroke:#000000;stroke-width:0.8;"/>
      </defs>
      <g>
       <use style="stroke:#000000;stroke-width:0.8;" x="50.14375" xlink:href="#m3d7b916a78" y="240.700909"/>
      </g>
     </g>
     <g id="text_8">
      <!-- 0.00 -->
      <g transform="translate(20.878125 244.500128)scale(0.1 -0.1)">
       <defs>
        <path d="M 10.6875 12.40625 
L 21 12.40625 
L 21 0 
L 10.6875 0 
z
" id="DejaVuSans-46"/>
       </defs>
       <use xlink:href="#DejaVuSans-48"/>
       <use x="63.623047" xlink:href="#DejaVuSans-46"/>
       <use x="95.410156" xlink:href="#DejaVuSans-48"/>
       <use x="159.033203" xlink:href="#DejaVuSans-48"/>
      </g>
     </g>
    </g>
    <g id="ytick_2">
     <g id="line2d_8">
      <g>
       <use style="stroke:#000000;stroke-width:0.8;" x="50.14375" xlink:href="#m3d7b916a78" y="212.903182"/>
      </g>
     </g>
     <g id="text_9">
      <!-- 0.05 -->
      <g transform="translate(20.878125 216.702401)scale(0.1 -0.1)">
       <use xlink:href="#DejaVuSans-48"/>
       <use x="63.623047" xlink:href="#DejaVuSans-46"/>
       <use x="95.410156" xlink:href="#DejaVuSans-48"/>
       <use x="159.033203" xlink:href="#DejaVuSans-53"/>
      </g>
     </g>
    </g>
    <g id="ytick_3">
     <g id="line2d_9">
      <g>
       <use style="stroke:#000000;stroke-width:0.8;" x="50.14375" xlink:href="#m3d7b916a78" y="185.105455"/>
      </g>
     </g>
     <g id="text_10">
      <!-- 0.10 -->
      <g transform="translate(20.878125 188.904674)scale(0.1 -0.1)">
       <use xlink:href="#DejaVuSans-48"/>
       <use x="63.623047" xlink:href="#DejaVuSans-46"/>
       <use x="95.410156" xlink:href="#DejaVuSans-49"/>
       <use x="159.033203" xlink:href="#DejaVuSans-48"/>
      </g>
     </g>
    </g>
    <g id="ytick_4">
     <g id="line2d_10">
      <g>
       <use style="stroke:#000000;stroke-width:0.8;" x="50.14375" xlink:href="#m3d7b916a78" y="157.307729"/>
      </g>
     </g>
     <g id="text_11">
      <!-- 0.15 -->
      <g transform="translate(20.878125 161.106947)scale(0.1 -0.1)">
       <use xlink:href="#DejaVuSans-48"/>
       <use x="63.623047" xlink:href="#DejaVuSans-46"/>
       <use x="95.410156" xlink:href="#DejaVuSans-49"/>
       <use x="159.033203" xlink:href="#DejaVuSans-53"/>
      </g>
     </g>
    </g>
    <g id="ytick_5">
     <g id="line2d_11">
      <g>
       <use style="stroke:#000000;stroke-width:0.8;" x="50.14375" xlink:href="#m3d7b916a78" y="129.510002"/>
      </g>
     </g>
     <g id="text_12">
      <!-- 0.20 -->
      <g transform="translate(20.878125 133.30922)scale(0.1 -0.1)">
       <use xlink:href="#DejaVuSans-48"/>
       <use x="63.623047" xlink:href="#DejaVuSans-46"/>
       <use x="95.410156" xlink:href="#DejaVuSans-50"/>
       <use x="159.033203" xlink:href="#DejaVuSans-48"/>
      </g>
     </g>
    </g>
    <g id="ytick_6">
     <g id="line2d_12">
      <g>
       <use style="stroke:#000000;stroke-width:0.8;" x="50.14375" xlink:href="#m3d7b916a78" y="101.712275"/>
      </g>
     </g>
     <g id="text_13">
      <!-- 0.25 -->
      <g transform="translate(20.878125 105.511494)scale(0.1 -0.1)">
       <use xlink:href="#DejaVuSans-48"/>
       <use x="63.623047" xlink:href="#DejaVuSans-46"/>
       <use x="95.410156" xlink:href="#DejaVuSans-50"/>
       <use x="159.033203" xlink:href="#DejaVuSans-53"/>
      </g>
     </g>
    </g>
    <g id="ytick_7">
     <g id="line2d_13">
      <g>
       <use style="stroke:#000000;stroke-width:0.8;" x="50.14375" xlink:href="#m3d7b916a78" y="73.914548"/>
      </g>
     </g>
     <g id="text_14">
      <!-- 0.30 -->
      <g transform="translate(20.878125 77.713767)scale(0.1 -0.1)">
       <use xlink:href="#DejaVuSans-48"/>
       <use x="63.623047" xlink:href="#DejaVuSans-46"/>
       <use x="95.410156" xlink:href="#DejaVuSans-51"/>
       <use x="159.033203" xlink:href="#DejaVuSans-48"/>
      </g>
     </g>
    </g>
    <g id="ytick_8">
     <g id="line2d_14">
      <g>
       <use style="stroke:#000000;stroke-width:0.8;" x="50.14375" xlink:href="#m3d7b916a78" y="46.116821"/>
      </g>
     </g>
     <g id="text_15">
      <!-- 0.35 -->
      <g transform="translate(20.878125 49.91604)scale(0.1 -0.1)">
       <use xlink:href="#DejaVuSans-48"/>
       <use x="63.623047" xlink:href="#DejaVuSans-46"/>
       <use x="95.410156" xlink:href="#DejaVuSans-51"/>
       <use x="159.033203" xlink:href="#DejaVuSans-53"/>
      </g>
     </g>
    </g>
    <g id="ytick_9">
     <g id="line2d_15">
      <g>
       <use style="stroke:#000000;stroke-width:0.8;" x="50.14375" xlink:href="#m3d7b916a78" y="18.319094"/>
      </g>
     </g>
     <g id="text_16">
      <!-- 0.40 -->
      <g transform="translate(20.878125 22.118313)scale(0.1 -0.1)">
       <use xlink:href="#DejaVuSans-48"/>
       <use x="63.623047" xlink:href="#DejaVuSans-46"/>
       <use x="95.410156" xlink:href="#DejaVuSans-52"/>
       <use x="159.033203" xlink:href="#DejaVuSans-48"/>
      </g>
     </g>
    </g>
    <g id="text_17">
     <!-- Estimated probability -->
     <g transform="translate(14.798438 183.033437)rotate(-90)scale(0.1 -0.1)">
      <defs>
       <path d="M 9.8125 72.90625 
L 55.90625 72.90625 
L 55.90625 64.59375 
L 19.671875 64.59375 
L 19.671875 43.015625 
L 54.390625 43.015625 
L 54.390625 34.71875 
L 19.671875 34.71875 
L 19.671875 8.296875 
L 56.78125 8.296875 
L 56.78125 0 
L 9.8125 0 
z
" id="DejaVuSans-69"/>
       <path d="M 34.28125 27.484375 
Q 23.390625 27.484375 19.1875 25 
Q 14.984375 22.515625 14.984375 16.5 
Q 14.984375 11.71875 18.140625 8.90625 
Q 21.296875 6.109375 26.703125 6.109375 
Q 34.1875 6.109375 38.703125 11.40625 
Q 43.21875 16.703125 43.21875 25.484375 
L 43.21875 27.484375 
z
M 52.203125 31.203125 
L 52.203125 0 
L 43.21875 0 
L 43.21875 8.296875 
Q 40.140625 3.328125 35.546875 0.953125 
Q 30.953125 -1.421875 24.3125 -1.421875 
Q 15.921875 -1.421875 10.953125 3.296875 
Q 6 8.015625 6 15.921875 
Q 6 25.140625 12.171875 29.828125 
Q 18.359375 34.515625 30.609375 34.515625 
L 43.21875 34.515625 
L 43.21875 35.40625 
Q 43.21875 41.609375 39.140625 45 
Q 35.0625 48.390625 27.6875 48.390625 
Q 23 48.390625 18.546875 47.265625 
Q 14.109375 46.140625 10.015625 43.890625 
L 10.015625 52.203125 
Q 14.9375 54.109375 19.578125 55.046875 
Q 24.21875 56 28.609375 56 
Q 40.484375 56 46.34375 49.84375 
Q 52.203125 43.703125 52.203125 31.203125 
z
" id="DejaVuSans-97"/>
       <path d="M 45.40625 46.390625 
L 45.40625 75.984375 
L 54.390625 75.984375 
L 54.390625 0 
L 45.40625 0 
L 45.40625 8.203125 
Q 42.578125 3.328125 38.25 0.953125 
Q 33.9375 -1.421875 27.875 -1.421875 
Q 17.96875 -1.421875 11.734375 6.484375 
Q 5.515625 14.40625 5.515625 27.296875 
Q 5.515625 40.1875 11.734375 48.09375 
Q 17.96875 56 27.875 56 
Q 33.9375 56 38.25 53.625 
Q 42.578125 51.265625 45.40625 46.390625 
z
M 14.796875 27.296875 
Q 14.796875 17.390625 18.875 11.75 
Q 22.953125 6.109375 30.078125 6.109375 
Q 37.203125 6.109375 41.296875 11.75 
Q 45.40625 17.390625 45.40625 27.296875 
Q 45.40625 37.203125 41.296875 42.84375 
Q 37.203125 48.484375 30.078125 48.484375 
Q 22.953125 48.484375 18.875 42.84375 
Q 14.796875 37.203125 14.796875 27.296875 
z
" id="DejaVuSans-100"/>
       <path d="M 48.6875 27.296875 
Q 48.6875 37.203125 44.609375 42.84375 
Q 40.53125 48.484375 33.40625 48.484375 
Q 26.265625 48.484375 22.1875 42.84375 
Q 18.109375 37.203125 18.109375 27.296875 
Q 18.109375 17.390625 22.1875 11.75 
Q 26.265625 6.109375 33.40625 6.109375 
Q 40.53125 6.109375 44.609375 11.75 
Q 48.6875 17.390625 48.6875 27.296875 
z
M 18.109375 46.390625 
Q 20.953125 51.265625 25.265625 53.625 
Q 29.59375 56 35.59375 56 
Q 45.5625 56 51.78125 48.09375 
Q 58.015625 40.1875 58.015625 27.296875 
Q 58.015625 14.40625 51.78125 6.484375 
Q 45.5625 -1.421875 35.59375 -1.421875 
Q 29.59375 -1.421875 25.265625 0.953125 
Q 20.953125 3.328125 18.109375 8.203125 
L 18.109375 0 
L 9.078125 0 
L 9.078125 75.984375 
L 18.109375 75.984375 
z
" id="DejaVuSans-98"/>
       <path d="M 9.421875 75.984375 
L 18.40625 75.984375 
L 18.40625 0 
L 9.421875 0 
z
" id="DejaVuSans-108"/>
       <path d="M 32.171875 -5.078125 
Q 28.375 -14.84375 24.75 -17.8125 
Q 21.140625 -20.796875 15.09375 -20.796875 
L 7.90625 -20.796875 
L 7.90625 -13.28125 
L 13.1875 -13.28125 
Q 16.890625 -13.28125 18.9375 -11.515625 
Q 21 -9.765625 23.484375 -3.21875 
L 25.09375 0.875 
L 2.984375 54.6875 
L 12.5 54.6875 
L 29.59375 11.921875 
L 46.6875 54.6875 
L 56.203125 54.6875 
z
" id="DejaVuSans-121"/>
      </defs>
      <use xlink:href="#DejaVuSans-69"/>
      <use x="63.183594" xlink:href="#DejaVuSans-115"/>
      <use x="115.283203" xlink:href="#DejaVuSans-116"/>
      <use x="154.492188" xlink:href="#DejaVuSans-105"/>
      <use x="182.275391" xlink:href="#DejaVuSans-109"/>
      <use x="279.6875" xlink:href="#DejaVuSans-97"/>
      <use x="340.966797" xlink:href="#DejaVuSans-116"/>
      <use x="380.175781" xlink:href="#DejaVuSans-101"/>
      <use x="441.699219" xlink:href="#DejaVuSans-100"/>
      <use x="505.175781" xlink:href="#DejaVuSans-32"/>
      <use x="536.962891" xlink:href="#DejaVuSans-112"/>
      <use x="600.439453" xlink:href="#DejaVuSans-114"/>
      <use x="639.302734" xlink:href="#DejaVuSans-111"/>
      <use x="700.484375" xlink:href="#DejaVuSans-98"/>
      <use x="763.960938" xlink:href="#DejaVuSans-97"/>
      <use x="825.240234" xlink:href="#DejaVuSans-98"/>
      <use x="888.716797" xlink:href="#DejaVuSans-105"/>
      <use x="916.5" xlink:href="#DejaVuSans-108"/>
      <use x="944.283203" xlink:href="#DejaVuSans-105"/>
      <use x="972.066406" xlink:href="#DejaVuSans-116"/>
      <use x="1011.275391" xlink:href="#DejaVuSans-121"/>
     </g>
    </g>
   </g>
   <g id="line2d_16">
    <path clip-path="url(#p67a1009715)" d="M 65.361932 18.319091 
L 65.971879 101.712275 
L 66.581826 129.51 
L 67.191773 143.408867 
L 67.80172 151.748185 
L 68.411668 148.041817 
L 69.021615 137.452207 
L 69.631562 143.408867 
L 70.241509 148.041817 
L 71.461403 154.780662 
L 72.681298 150.892866 
L 73.291245 145.394414 
L 73.901192 151.748185 
L 74.511139 150.3583 
L 75.731034 154.219089 
L 76.340981 144.140385 
L 76.950928 137.849318 
L 77.560875 137.452207 
L 78.780769 131.927196 
L 79.390717 131.826475 
L 80.000664 136.18146 
L 81.220558 139.805457 
L 81.830505 143.408867 
L 83.0504 146.188637 
L 83.660347 145.650617 
L 84.880241 141.30298 
L 85.490188 142.591282 
L 86.100135 145.394414 
L 87.32003 147.54096 
L 87.929977 147.066457 
L 88.539924 148.041817 
L 89.149871 150.3583 
L 89.759819 151.205791 
L 90.979713 150.19668 
L 91.58966 150.990066 
L 92.199607 149.277273 
L 92.809554 150.056144 
L 93.419502 151.984762 
L 94.639396 151.067425 
L 95.85929 154.582458 
L 96.469237 154.1003 
L 97.079185 152.587358 
L 97.689132 152.160001 
L 98.299079 153.769836 
L 98.909026 154.329404 
L 100.12892 157.307725 
L 101.958762 158.674828 
L 102.568709 156.411025 
L 103.788603 155.570369 
L 104.398551 156.024758 
L 105.008498 157.307725 
L 106.228392 154.854989 
L 106.838339 155.293398 
L 107.448286 154.925066 
L 108.058234 155.350146 
L 108.668181 154.99125 
L 109.278128 155.403779 
L 109.888075 156.556441 
L 110.498022 155.454545 
L 111.107969 155.113171 
L 111.717917 154.058646 
L 112.327864 154.456676 
L 112.937811 154.140901 
L 113.547758 154.527955 
L 114.157705 154.219089 
L 115.3776 152.284043 
L 116.597494 154.364438 
L 117.817388 152.515019 
L 118.427335 152.885364 
L 119.037283 151.99805 
L 120.257177 152.725683 
L 120.867124 151.869046 
L 121.477071 152.226425 
L 122.087018 150.801878 
L 122.696966 151.748185 
L 123.306913 150.937419 
L 123.91686 151.289662 
L 125.746701 150.636274 
L 128.18649 151.962013 
L 128.796437 151.748185 
L 129.406384 150.489417 
L 130.626279 151.130453 
L 131.236226 150.9321 
L 131.846173 151.748185 
L 132.45612 151.04698 
L 133.066067 151.847457 
L 133.676015 152.141775 
L 134.285962 152.918617 
L 137.335698 154.270999 
L 137.945645 154.99125 
L 138.555592 154.321194 
L 139.165539 155.029226 
L 139.775486 154.821752 
L 140.385433 155.065975 
L 140.995381 154.861525 
L 141.605328 155.101557 
L 142.825222 154.701695 
L 143.435169 154.937377 
L 144.045116 155.597103 
L 144.655064 155.397963 
L 145.265011 156.044193 
L 146.484905 155.648159 
L 147.094852 155.866361 
L 147.704799 155.263781 
L 148.314747 155.887403 
L 148.924694 156.099135 
L 149.534641 155.907841 
L 150.144588 155.322178 
L 151.97443 155.947001 
L 152.584377 154.99125 
L 153.804271 155.403779 
L 154.414218 154.84943 
L 155.024165 155.429502 
L 156.854007 154.914545 
L 158.683848 155.502677 
L 159.903743 154.456676 
L 160.51369 153.58956 
L 161.123637 153.08529 
L 161.733584 153.636333 
L 162.343531 153.833013 
L 162.953479 153.681939 
L 164.173373 154.749653 
L 164.78332 154.934751 
L 165.393267 154.44372 
L 166.003214 154.293516 
L 166.613162 154.478017 
L 167.223109 154.99125 
L 168.443003 154.691472 
L 169.05295 154.219089 
L 169.662897 154.721892 
L 172.102686 155.412427 
L 172.712633 154.951991 
L 173.32258 155.121389 
L 173.932528 154.97831 
L 175.152422 155.311209 
L 175.762369 155.169439 
L 176.372316 155.33303 
L 177.592211 156.255925 
L 178.202158 155.813225 
L 178.812105 156.267175 
L 179.422052 155.829123 
L 180.031999 155.984024 
L 180.641946 155.844689 
L 181.251894 156.288963 
L 181.861841 155.859932 
L 182.471788 156.299518 
L 183.081735 156.448007 
L 183.691682 156.309865 
L 184.911577 156.602204 
L 185.521524 156.465371 
L 186.741418 156.751778 
L 187.351365 157.169434 
L 187.961312 157.307725 
L 189.181207 157.035203 
L 189.791154 157.172127 
L 190.401101 157.577613 
L 191.011048 157.710594 
L 191.620995 158.109586 
L 192.84089 157.837212 
L 194.060784 158.094459 
L 194.670731 157.96026 
L 195.280678 158.3469 
L 196.500573 158.59466 
L 197.720467 158.327829 
L 198.330414 158.703964 
L 199.550309 158.439759 
L 200.160256 158.059018 
L 200.770203 157.931 
L 201.38015 157.555925 
L 201.990097 157.925457 
L 202.600044 156.815733 
L 203.209992 156.205614 
L 203.819939 155.844689 
L 205.039833 156.099135 
L 205.64978 155.984024 
L 206.259727 156.109549 
L 207.479622 155.882201 
L 208.089569 155.296827 
L 208.699516 155.423139 
L 210.529358 154.40002 
L 212.359199 154.780662 
L 212.969146 155.134247 
L 213.579093 154.801372 
L 214.189041 155.151983 
L 214.798988 154.821752 
L 218.458671 155.54279 
L 219.068618 155.439898 
L 219.678565 155.556691 
L 220.898459 156.221876 
L 221.508407 156.117941 
L 222.118354 155.799324 
L 222.728301 156.127128 
L 223.338248 156.024758 
L 223.948195 156.136175 
L 224.558142 155.610159 
L 225.16809 155.933696 
L 225.778037 155.623016 
L 227.607878 155.954283 
L 228.217825 156.270497 
L 228.827773 156.377697 
L 229.43772 156.278185 
L 230.047667 156.384557 
L 230.657614 156.081357 
L 231.877508 155.887403 
L 232.487456 155.589324 
L 233.097403 155.696266 
L 233.70735 155.401028 
L 234.927244 155.613961 
L 235.537191 155.520729 
L 236.757086 155.730555 
L 237.367033 155.637903 
L 237.97698 155.350146 
L 238.586927 154.869329 
L 239.196874 154.975054 
L 239.806822 154.692615 
L 240.416769 154.798208 
L 241.636663 154.623814 
L 242.24661 154.728561 
L 242.856557 154.642197 
L 243.466505 154.366675 
L 245.906293 154.780662 
L 246.51624 155.068982 
L 247.736135 154.527955 
L 248.346082 154.075438 
L 249.565976 154.647217 
L 250.175923 154.747408 
L 251.395818 154.582458 
L 252.615712 154.780662 
L 253.225659 154.698878 
L 253.835606 154.438285 
L 254.445554 154.000605 
L 255.055501 154.1003 
L 255.665448 154.021739 
L 256.885342 153.51312 
L 258.715184 153.811158 
L 259.935078 153.659273 
L 261.154972 153.854593 
L 261.76492 153.434982 
L 262.984814 153.972 
L 264.204708 154.162424 
L 264.814655 154.08726 
L 265.424603 154.181544 
L 266.03455 154.44372 
L 268.474338 154.810924 
L 269.694233 154.660323 
L 270.30418 154.915639 
L 270.914127 155.004961 
L 271.524074 154.929755 
L 272.134021 155.182023 
L 273.353916 155.357013 
L 273.963863 155.119567 
L 274.57381 155.206735 
L 275.183757 155.454545 
L 275.793704 155.540247 
L 276.403652 155.465232 
L 278.233493 155.719289 
L 278.84344 155.961399 
L 280.063335 156.126523 
L 281.283229 156.602999 
L 283.11307 155.910078 
L 283.723018 155.836537 
L 284.942912 156.3067 
L 285.552859 156.079104 
L 286.772753 156.238586 
L 287.382701 156.469985 
L 288.602595 156.32307 
L 289.212542 156.401283 
L 289.822489 156.328405 
L 291.042384 155.884123 
L 292.262278 156.33891 
L 292.872225 155.969866 
L 293.482172 155.899308 
L 294.092119 156.12485 
L 295.312014 156.278185 
L 295.921961 156.060862 
L 297.141855 156.505169 
L 297.751802 156.143424 
L 298.36175 156.364202 
L 299.581644 155.935892 
L 300.191591 156.011462 
L 301.411485 155.58828 
L 302.021433 155.807078 
L 303.851274 155.605826 
L 304.461221 155.256499 
L 305.071168 155.33226 
L 305.681116 155.126136 
L 306.90101 155.27716 
L 307.510957 154.933044 
L 308.120904 154.451316 
L 309.340799 154.326927 
L 309.950746 154.403491 
L 310.560693 154.203763 
L 311.17064 154.280253 
L 311.780587 154.081817 
L 313.610429 153.901143 
L 314.220376 153.977442 
L 314.830323 153.917762 
L 315.44027 153.587837 
L 316.050217 153.664335 
L 316.660165 153.875081 
L 317.270112 153.816229 
L 317.880059 154.025591 
L 319.7099 153.849639 
L 320.319848 153.658859 
L 320.929795 153.601365 
L 321.539742 153.676198 
L 322.149689 153.48719 
L 322.759636 153.561932 
L 323.369583 153.505208 
L 323.979531 153.710379 
L 324.589478 153.523061 
L 325.199425 153.466827 
L 325.809372 153.670639 
L 326.419319 153.614322 
L 327.029266 153.687556 
L 327.639214 153.889446 
L 328.249161 153.833013 
L 329.469055 153.977128 
L 330.079002 153.920877 
L 330.688949 153.992404 
L 331.298897 153.809162 
L 331.908844 154.007539 
L 332.518791 153.825101 
L 333.128738 153.896189 
L 333.738685 153.588756 
L 334.348632 153.534278 
L 334.95858 153.605549 
L 335.568527 153.426068 
L 336.178474 153.622184 
L 336.788421 153.443473 
L 337.398368 153.514305 
L 338.008315 153.08843 
L 338.618263 153.159742 
L 339.22821 152.983641 
L 341.058051 153.564549 
L 342.277946 153.703188 
L 342.887893 153.893969 
L 343.49784 153.840618 
L 344.107787 153.908881 
L 344.717734 153.734603 
L 345.327681 153.8028 
L 345.937629 153.508903 
L 346.547576 153.697638 
L 347.157523 153.405241 
L 348.377417 153.541585 
L 349.597312 153.914862 
L 350.207259 153.862712 
L 350.817206 153.573704 
L 351.427153 153.64079 
L 352.0371 153.58956 
L 352.647048 153.656332 
L 353.256995 153.605284 
L 353.866942 153.671741 
L 354.476889 153.503825 
L 356.916678 153.767724 
L 357.526625 153.948836 
L 358.746519 153.847427 
L 359.356466 153.912145 
L 359.966414 153.861726 
L 360.576361 153.926146 
L 361.186308 154.104699 
L 362.406202 153.776049 
L 363.626097 153.903927 
L 364.845991 153.804763 
L 365.455938 153.868254 
L 369.115621 153.575369 
L 369.725568 153.749622 
L 369.725568 153.749622 
" style="fill:none;stroke:#1f77b4;stroke-linecap:square;stroke-width:1.5;"/>
   </g>
   <g id="line2d_17">
    <path clip-path="url(#p67a1009715)" d="M 65.361932 240.700909 
L 65.971879 212.903182 
L 66.581826 166.573634 
L 67.191773 185.105455 
L 67.80172 173.986366 
L 68.411668 185.105455 
L 69.021615 193.047662 
L 69.631562 185.105455 
L 70.241509 191.282727 
L 70.851456 179.54591 
L 71.461403 180.051323 
L 72.681298 172.275735 
L 73.901192 166.573634 
L 74.511139 171.206592 
L 75.121086 172.024172 
L 76.340981 167.548994 
L 76.950928 171.206592 
L 77.560875 169.221036 
L 78.170822 164.888924 
L 78.780769 165.767904 
L 79.390717 164.257159 
L 80.610611 157.307725 
L 81.220558 160.396361 
L 83.0504 157.307725 
L 83.660347 156.411025 
L 84.270294 159.04509 
L 84.880241 158.15008 
L 86.710083 165.02932 
L 87.32003 164.069335 
L 87.929977 160.233805 
L 88.539924 160.871536 
L 89.759819 164.765653 
L 90.369766 163.926231 
L 90.979713 164.418778 
L 91.58966 162.361861 
L 92.199607 159.160914 
L 92.809554 159.724922 
L 93.419502 159.082055 
L 94.029449 159.624209 
L 94.639396 159.009633 
L 95.249343 157.307725 
L 95.85929 156.762672 
L 96.469237 154.1003 
L 97.079185 155.734275 
L 97.689132 155.248637 
L 98.909026 152.343848 
L 99.518973 151.943257 
L 100.12892 153.473562 
L 100.738868 154.009693 
L 101.348815 152.674775 
L 101.958762 150.472218 
L 102.568709 149.237417 
L 103.178656 150.689219 
L 103.788603 150.3583 
L 104.398551 151.748185 
L 105.008498 150.568889 
L 106.228392 151.584668 
L 106.838339 150.459013 
L 108.058234 153.001038 
L 108.668181 153.446936 
L 109.278128 154.642197 
L 109.888075 153.551278 
L 111.717917 152.614606 
L 112.327864 151.605628 
L 114.157705 150.787273 
L 115.987547 152.01292 
L 117.817388 151.236957 
L 118.427335 151.621832 
L 119.037283 150.748718 
L 119.64723 150.512729 
L 120.257177 149.670988 
L 120.867124 150.056144 
L 121.477071 148.639617 
L 123.306913 148.041817 
L 123.91686 148.423917 
L 124.526807 149.365518 
L 125.746701 150.080318 
L 126.356649 149.3262 
L 126.966596 147.496763 
L 127.576543 146.242618 
L 128.18649 147.150866 
L 128.796437 146.982859 
L 129.406384 147.866992 
L 130.016332 148.215018 
L 130.626279 147.527043 
L 131.236226 146.341649 
L 131.846173 146.69405 
L 133.066067 145.394414 
L 133.676015 143.777861 
L 134.285962 142.677349 
L 134.895909 142.079408 
L 136.115803 141.864545 
L 137.335698 142.591282 
L 137.945645 142.482277 
L 139.775486 143.521866 
L 140.385433 141.167117 
L 140.995381 141.518622 
L 142.215275 141.329507 
L 143.435169 142.008204 
L 144.045116 141.484408 
L 145.874958 142.468342 
L 146.484905 141.541852 
L 147.094852 141.452729 
L 147.704799 141.773706 
L 148.314747 140.872574 
L 148.924694 140.790236 
L 149.534641 141.109052 
L 150.144588 141.0262 
L 151.364482 141.647038 
L 151.97443 141.562165 
L 152.584377 141.092392 
L 153.804271 141.695303 
L 154.414218 141.61241 
L 155.024165 141.154997 
L 155.634113 141.82309 
L 156.24406 141.741 
L 156.854007 142.028186 
L 157.463954 141.580068 
L 158.073901 141.501176 
L 158.683848 142.145335 
L 159.293796 141.705137 
L 159.903743 142.339719 
L 160.51369 142.612118 
L 161.123637 142.177321 
L 161.733584 142.796967 
L 162.953479 143.322535 
L 164.78332 143.06987 
L 166.003214 143.576319 
L 167.223109 143.408867 
L 167.833056 143.655592 
L 168.443003 143.572384 
L 169.05295 144.140385 
L 170.882792 143.888134 
L 171.492739 144.441356 
L 172.102686 144.356516 
L 173.32258 144.814368 
L 173.932528 144.728865 
L 174.542475 145.262047 
L 175.762369 145.088945 
L 176.372316 145.307619 
L 176.982263 144.617465 
L 178.202158 145.052817 
L 178.812105 144.672399 
L 180.031999 145.100261 
L 180.641946 145.018205 
L 181.251894 145.228089 
L 181.861841 145.146223 
L 182.471788 145.353266 
L 183.081735 145.271599 
L 183.691682 145.475875 
L 184.301629 144.259812 
L 184.911577 143.620524 
L 185.521524 143.830044 
L 186.131471 143.758086 
L 187.351365 144.169496 
L 188.57126 143.477329 
L 189.181207 143.681389 
L 189.791154 143.341067 
L 190.401101 143.813682 
L 191.011048 144.013162 
L 191.620995 143.94344 
L 192.230943 144.140385 
L 192.84089 143.805978 
L 193.450837 144.001704 
L 194.060784 143.93335 
L 194.670731 143.604626 
L 195.280678 143.798555 
L 195.890626 143.732098 
L 196.500573 143.923641 
L 197.11052 144.369613 
L 197.720467 143.53638 
L 198.940361 143.914279 
L 199.550309 143.597535 
L 201.38015 144.153449 
L 201.990097 144.088367 
L 202.600044 144.515857 
L 203.209992 144.449748 
L 203.819939 144.871903 
L 205.039833 144.254883 
L 205.64978 143.709705 
L 206.259727 143.888134 
L 206.869675 144.303645 
L 207.479622 144.478006 
L 208.089569 144.414316 
L 209.91941 144.927226 
L 210.529358 144.862724 
L 211.139305 143.872162 
L 212.969146 144.381211 
L 214.189041 144.259812 
L 214.798988 144.425856 
L 215.408935 144.815635 
L 217.848724 145.457699 
L 219.068618 145.331635 
L 219.678565 144.831583 
L 220.288512 144.989524 
L 220.898459 144.494715 
L 221.508407 144.652731 
L 222.118354 144.594037 
L 223.338248 144.90567 
L 223.948195 144.633669 
L 224.558142 144.788139 
L 225.16809 144.730049 
L 225.778037 144.46181 
L 226.387984 144.615178 
L 226.997931 144.140385 
L 227.607878 144.293811 
L 228.217825 143.823756 
L 228.827773 143.770546 
L 229.43772 144.129549 
L 230.657614 144.430843 
L 231.267561 144.376183 
L 231.877508 144.119028 
L 233.097403 144.416031 
L 233.70735 144.362215 
L 234.927244 143.857217 
L 235.537191 143.805978 
L 236.147139 143.952951 
L 236.757086 143.704586 
L 238.586927 144.140385 
L 239.806822 144.038429 
L 241.026716 143.168396 
L 241.636663 143.1213 
L 242.24661 143.26558 
L 244.686399 143.079058 
L 245.296346 143.221044 
L 246.51624 143.129021 
L 247.736135 143.408867 
L 248.346082 143.36269 
L 249.565976 142.904282 
L 250.785871 143.181013 
L 253.225659 143.004043 
L 258.105237 144.066538 
L 259.325131 143.975277 
L 259.935078 143.756338 
L 260.545025 143.192371 
L 261.154972 143.322535 
L 261.76492 143.279771 
L 262.374867 143.580453 
L 262.984814 143.366103 
L 263.594761 142.811978 
L 264.204708 142.771302 
L 264.814655 142.561376 
L 266.03455 142.482277 
L 266.644497 142.611049 
L 267.254444 142.571582 
L 269.084286 142.952481 
L 269.694233 143.243403 
L 270.30418 143.367619 
L 270.914127 143.162142 
L 271.524074 143.121871 
L 272.134021 142.918316 
L 273.963863 142.801043 
L 274.57381 142.600793 
L 275.183757 142.885137 
L 275.793704 142.846482 
L 277.013599 143.089347 
L 277.623546 142.891143 
L 278.233493 142.852911 
L 278.84344 142.656505 
L 279.453387 142.777101 
L 280.063335 142.739515 
L 280.673282 142.545097 
L 281.283229 142.195165 
L 281.893176 142.003366 
L 282.503123 141.656905 
L 283.11307 141.622981 
L 283.723018 141.744098 
L 284.332965 141.092392 
L 284.942912 141.060306 
L 285.552859 141.335554 
L 286.162806 141.456133 
L 286.772753 141.423311 
L 287.382701 141.086038 
L 287.992648 141.20631 
L 288.602595 141.17444 
L 289.822489 140.809895 
L 290.432436 140.929612 
L 291.652331 140.868217 
L 294.092119 141.338819 
L 295.312014 141.276238 
L 295.921961 141.39188 
L 296.531908 141.214304 
L 297.141855 141.183586 
L 297.751802 141.444105 
L 298.36175 141.412947 
L 298.971697 141.526725 
L 299.581644 141.495517 
L 301.411485 141.832708 
L 302.63138 141.769515 
L 303.241327 141.595974 
L 303.851274 141.706968 
L 305.681116 141.192086 
L 306.291063 140.881803 
L 306.90101 140.993195 
L 309.340799 140.878647 
L 309.950746 140.988663 
L 310.560693 140.960181 
L 312.390534 141.286378 
L 313.000482 141.120849 
L 313.610429 141.228653 
L 314.220376 141.064067 
L 315.44027 141.007841 
L 316.050217 141.114875 
L 316.660165 140.952162 
L 318.490006 140.86965 
L 319.099953 140.709082 
L 320.319848 140.655632 
L 320.929795 140.761464 
L 321.539742 140.734739 
L 324.589478 141.255519 
L 325.199425 140.967613 
L 325.809372 140.810947 
L 326.419319 140.914195 
L 327.029266 140.887677 
L 327.639214 140.732287 
L 328.249161 140.835005 
L 328.859108 140.808843 
L 331.298897 141.214304 
L 331.908844 141.187587 
L 332.518791 141.287629 
L 333.128738 141.260863 
L 333.738685 141.360283 
L 334.348632 141.333467 
L 334.95858 141.557774 
L 335.568527 141.655853 
L 336.178474 141.628564 
L 336.788421 141.476737 
L 337.398368 141.201215 
L 338.008315 141.299219 
L 338.618263 141.14914 
L 339.838157 141.344071 
L 340.448104 141.56388 
L 341.058051 141.291821 
L 341.667998 141.388326 
L 342.277946 141.362222 
L 342.887893 141.092392 
L 343.49784 141.310353 
L 344.107787 141.163198 
L 344.717734 141.137807 
L 345.937629 140.846172 
L 346.547576 141.062303 
L 347.157523 141.157432 
L 347.76747 141.371964 
L 348.377417 141.466017 
L 348.987365 141.44036 
L 350.817206 141.719668 
L 351.427153 141.930264 
L 352.0371 142.021931 
L 352.647048 142.230995 
L 354.476889 142.501778 
L 355.086836 142.474489 
L 355.696783 142.330756 
L 356.916678 142.277222 
L 358.136572 141.992969 
L 359.356466 142.2866 
L 360.576361 142.463173 
L 361.186308 142.093334 
L 361.796255 142.295812 
L 362.406202 142.269617 
L 363.016149 142.129827 
L 363.626097 142.217533 
L 364.236044 142.191653 
L 364.845991 142.278879 
L 365.455938 142.252974 
L 366.065885 142.339719 
L 367.28578 142.287992 
L 369.115621 141.87693 
L 369.725568 141.963385 
L 369.725568 141.963385 
" style="fill:none;stroke:#ff7f0e;stroke-linecap:square;stroke-width:1.5;"/>
   </g>
   <g id="line2d_18">
    <path clip-path="url(#p67a1009715)" d="M 65.361932 185.105455 
L 67.191773 101.712275 
L 67.80172 107.271823 
L 68.411668 110.978183 
L 69.021615 113.625586 
L 69.631562 108.661708 
L 70.241509 104.800911 
L 70.851456 112.831363 
L 72.071351 115.611142 
L 73.291245 133.481104 
L 74.511139 139.934146 
L 75.121086 145.861603 
L 75.731034 144.953181 
L 76.340981 149.992537 
L 76.950928 151.748185 
L 78.170822 149.726534 
L 79.390717 148.041817 
L 80.000664 147.300548 
L 80.610611 150.892866 
L 81.220558 143.923641 
L 81.830505 145.394414 
L 83.0504 151.748185 
L 83.660347 152.824225 
L 84.270294 152.095656 
L 84.880241 148.041817 
L 85.490188 147.496763 
L 86.100135 145.394414 
L 86.710083 146.497503 
L 87.32003 146.038383 
L 88.539924 148.041817 
L 89.149871 150.3583 
L 89.759819 147.137827 
L 90.369766 145.394414 
L 91.58966 144.672399 
L 92.199607 146.806369 
L 92.809554 147.638956 
L 93.419502 147.253228 
L 94.029449 148.041817 
L 94.639396 147.663619 
L 96.469237 153.031152 
L 97.079185 151.538392 
L 98.909026 150.3583 
L 99.518973 147.066457 
L 100.12892 146.763762 
L 100.738868 145.529027 
L 102.568709 147.444017 
L 103.788603 150.3583 
L 104.398551 150.037554 
L 105.008498 151.411243 
L 105.618445 149.424793 
L 106.228392 150.767084 
L 106.838339 151.264743 
L 107.448286 150.15974 
L 108.058234 148.302832 
L 108.668181 148.041817 
L 109.278128 147.026377 
L 109.888075 147.54096 
L 110.498022 146.559271 
L 111.107969 147.797983 
L 111.717917 147.56047 
L 112.327864 148.754579 
L 112.937811 148.510977 
L 113.547758 149.663358 
L 114.157705 150.100913 
L 114.767652 149.849806 
L 115.3776 150.27457 
L 115.987547 150.027373 
L 117.207441 152.136059 
L 117.817388 150.597934 
L 118.427335 150.990066 
L 119.037283 150.748718 
L 120.257177 151.503805 
L 120.867124 151.264743 
L 121.477071 152.226425 
L 122.087018 152.576199 
L 122.696966 152.333401 
L 123.306913 152.674775 
L 123.91686 152.435962 
L 124.526807 152.769325 
L 125.136754 152.53438 
L 127.576543 153.799279 
L 128.18649 151.427439 
L 128.796437 151.748185 
L 129.406384 151.538392 
L 130.016332 150.81293 
L 130.626279 150.615687 
L 131.846173 151.242772 
L 132.45612 152.048701 
L 133.676015 151.649783 
L 135.505856 153.952829 
L 136.115803 154.219089 
L 136.72575 154.009693 
L 137.335698 154.270999 
L 137.945645 154.06466 
L 138.555592 154.321194 
L 139.165539 154.117829 
L 139.775486 153.465767 
L 140.385433 153.720925 
L 140.995381 153.527237 
L 142.215275 154.024531 
L 142.825222 153.833013 
L 143.435169 154.075438 
L 144.655064 152.002822 
L 145.265011 152.674775 
L 145.874958 152.500605 
L 147.094852 152.983641 
L 148.924694 154.890537 
L 150.144588 155.322178 
L 150.754535 154.744815 
L 151.364482 155.350146 
L 151.97443 155.169439 
L 152.584377 155.763411 
L 153.194324 155.582356 
L 153.804271 155.784561 
L 154.414218 155.227628 
L 155.024165 154.302571 
L 156.24406 154.713276 
L 156.854007 154.546363 
L 158.073901 154.945827 
L 158.683848 154.780662 
L 159.293796 154.976305 
L 160.51369 156.068342 
L 161.123637 155.900252 
L 161.733584 155.034958 
L 162.343531 154.527955 
L 162.953479 154.717874 
L 163.563426 154.562277 
L 164.173373 153.38535 
L 165.393267 153.769836 
L 166.003214 153.288779 
L 166.613162 153.812202 
L 167.833056 154.182538 
L 168.443003 153.710379 
L 170.272845 154.254803 
L 170.882792 154.112585 
L 171.492739 154.607377 
L 172.102686 154.780662 
L 173.32258 154.496723 
L 173.932528 154.667721 
L 174.542475 153.910231 
L 175.152422 153.46826 
L 176.372316 153.814025 
L 176.982263 153.379791 
L 177.592211 152.649731 
L 178.202158 152.824225 
L 178.812105 152.699545 
L 179.422052 153.167645 
L 180.031999 152.454154 
L 180.641946 152.918617 
L 181.251894 153.08713 
L 181.861841 153.543449 
L 182.471788 153.706983 
L 183.081735 154.155407 
L 183.691682 153.743914 
L 184.301629 153.903927 
L 184.911577 153.497885 
L 186.131471 153.256802 
L 186.741418 152.026159 
L 187.961312 151.803226 
L 188.57126 152.241146 
L 189.181207 151.584668 
L 189.791154 151.205791 
L 190.401101 150.560704 
L 191.011048 150.727592 
L 191.620995 151.160152 
L 192.84089 150.953963 
L 193.450837 150.061877 
L 194.060784 150.489417 
L 194.670731 150.651931 
L 195.280678 150.55314 
L 195.890626 150.972429 
L 196.500573 150.3583 
L 197.720467 150.677074 
L 198.940361 150.484653 
L 199.550309 150.641302 
L 200.160256 150.546123 
L 200.770203 150.9504 
L 201.38015 150.854683 
L 201.990097 150.265639 
L 203.209992 150.5726 
L 203.819939 150.480213 
L 206.259727 151.077201 
L 206.869675 150.98464 
L 208.089569 151.748185 
L 208.699516 151.65395 
L 209.309463 152.02968 
L 209.91941 152.16865 
L 210.529358 152.073844 
L 211.139305 152.443128 
L 212.359199 152.253598 
L 212.969146 152.38879 
L 214.189041 151.294343 
L 214.798988 151.431789 
L 216.018882 150.3583 
L 216.628829 150.497842 
L 217.238776 150.858659 
L 217.848724 150.552105 
L 219.068618 150.825257 
L 219.678565 150.741336 
L 220.288512 150.222031 
L 220.898459 150.141125 
L 222.728301 150.546123 
L 223.338248 150.037554 
L 223.948195 149.958902 
L 224.558142 150.093051 
L 226.997931 149.783531 
L 227.607878 149.915824 
L 228.217825 149.632233 
L 229.43772 149.483181 
L 232.487456 150.130861 
L 233.097403 149.854718 
L 233.70735 150.18268 
L 234.927244 150.433025 
L 235.537191 150.15974 
L 236.147139 150.086258 
L 236.757086 150.407584 
L 237.367033 150.13729 
L 237.97698 150.45618 
L 238.586927 150.187609 
L 239.196874 150.115311 
L 239.806822 150.430937 
L 241.026716 150.670902 
L 241.636663 150.406225 
L 244.076452 150.121922 
L 244.686399 150.428966 
L 245.296346 150.170477 
L 245.906293 149.726534 
L 246.51624 150.031813 
L 247.126188 150.14912 
L 249.565976 149.876655 
L 250.175923 149.626774 
L 250.785871 149.19626 
L 252.005765 149.792378 
L 252.615712 149.907034 
L 253.225659 149.841024 
L 253.835606 149.416757 
L 254.445554 149.71028 
L 255.055501 149.467341 
L 255.665448 149.581202 
L 256.275395 149.340226 
L 257.495289 149.214718 
L 258.105237 148.97718 
L 259.325131 149.203691 
L 260.545025 149.080983 
L 261.154972 148.674892 
L 261.76492 148.443435 
L 262.374867 148.385005 
L 262.984814 148.497987 
L 264.204708 149.061921 
L 266.03455 148.884171 
L 266.644497 148.993608 
L 267.254444 148.767461 
L 267.864391 148.375727 
L 268.474338 148.485693 
L 269.084286 148.429053 
L 269.694233 148.538208 
L 270.30418 148.316775 
L 270.914127 148.590101 
L 271.524074 148.697814 
L 272.134021 148.641381 
L 273.353916 148.854621 
L 273.963863 148.474045 
L 275.183757 148.364112 
L 276.403652 148.575877 
L 277.013599 148.521092 
L 277.623546 148.148022 
L 278.84344 148.041817 
L 280.063335 148.566797 
L 280.673282 148.355919 
L 281.283229 148.302832 
L 284.332965 148.813978 
L 284.942912 148.760502 
L 285.552859 149.014484 
L 286.162806 148.960752 
L 286.772753 148.754579 
L 287.382701 149.00649 
L 288.602595 148.900243 
L 290.432436 149.644569 
L 291.042384 149.740154 
L 291.652331 149.536325 
L 292.262278 149.631678 
L 292.872225 149.577879 
L 293.482172 149.820877 
L 294.702067 149.713122 
L 295.312014 149.806752 
L 296.531908 149.699933 
L 297.141855 149.209175 
L 298.36175 149.106308 
L 300.801538 149.478393 
L 302.021433 149.375733 
L 302.63138 149.182243 
L 303.241327 149.131924 
L 303.851274 149.223698 
L 304.461221 149.456464 
L 305.071168 149.405838 
L 305.681116 149.636964 
L 306.291063 149.726534 
L 306.90101 149.535571 
L 307.510957 149.764626 
L 308.730851 149.663358 
L 309.340799 149.751735 
L 309.950746 149.563092 
L 311.17064 149.739044 
L 311.780587 149.689089 
L 312.390534 149.365518 
L 313.610429 149.268193 
L 314.220376 149.083949 
L 314.830323 149.171805 
L 315.44027 149.394505 
L 316.050217 149.211304 
L 316.660165 149.432828 
L 317.270112 149.518994 
L 318.490006 149.422796 
L 319.7099 149.593529 
L 320.319848 149.545595 
L 320.929795 149.762629 
L 321.539742 149.714522 
L 322.149689 149.798393 
L 322.759636 150.013289 
L 323.369583 149.833808 
L 323.979531 149.262742 
L 324.589478 148.955359 
L 325.199425 149.040017 
L 326.419319 148.689787 
L 327.029266 148.645184 
L 327.639214 148.858771 
L 328.249161 148.685289 
L 330.079002 148.936462 
L 330.688949 148.764388 
L 331.298897 148.974769 
L 331.908844 148.676474 
L 332.518791 148.886093 
L 333.128738 148.968407 
L 333.738685 149.176419 
L 334.348632 148.880361 
L 334.95858 149.087635 
L 335.568527 149.168756 
L 336.178474 149.124575 
L 338.008315 149.365518 
L 338.618263 149.197478 
L 339.838157 149.110169 
L 341.058051 148.778181 
L 341.667998 148.8582 
L 342.277946 149.060048 
L 342.887893 149.017177 
L 343.49784 148.609536 
L 345.327681 148.122391 
L 345.937629 148.323212 
L 346.547576 148.162156 
L 347.76747 148.081756 
L 348.377417 147.922257 
L 348.987365 147.644142 
L 349.597312 147.605313 
L 350.817206 147.765227 
L 351.427153 147.726381 
L 352.0371 147.569674 
L 353.256995 147.493309 
L 353.866942 147.572656 
L 355.086836 147.963952 
L 355.696783 148.041817 
L 356.306731 148.003046 
L 357.526625 148.389288 
L 358.746519 148.310951 
L 362.406202 148.87727 
L 363.626097 149.138601 
L 364.236044 149.211851 
L 365.455938 149.470232 
L 366.065885 149.204743 
L 366.675832 149.164962 
L 367.28578 149.237417 
L 367.895727 149.197726 
L 369.115621 149.453059 
L 369.725568 149.190792 
L 369.725568 149.190792 
" style="fill:none;stroke:#2ca02c;stroke-linecap:square;stroke-width:1.5;"/>
   </g>
   <g id="line2d_19">
    <path clip-path="url(#p67a1009715)" d="M 65.361932 73.914541 
L 65.971879 18.319091 
L 66.581826 92.446358 
L 67.191773 87.813408 
L 67.80172 96.152735 
L 68.411668 83.180458 
L 69.021615 97.741163 
L 69.631562 108.661708 
L 70.241509 110.978183 
L 70.851456 107.271823 
L 72.071351 120.244092 
L 73.291245 129.51 
L 74.511139 115.611142 
L 75.121086 109.888076 
L 76.340981 123.657848 
L 76.950928 118.390912 
L 77.560875 121.567793 
L 78.170822 126.982936 
L 78.780769 127.092812 
L 79.390717 129.51 
L 80.000664 129.51 
L 80.610611 133.786573 
L 81.220558 133.628184 
L 81.830505 135.46666 
L 82.440452 133.344171 
L 83.0504 135.069548 
L 83.660347 134.890208 
L 84.270294 132.984721 
L 84.880241 136.248845 
L 85.490188 136.050641 
L 86.100135 132.686881 
L 86.710083 131.054322 
L 87.32003 132.515163 
L 87.929977 132.43608 
L 89.149871 126.73023 
L 90.369766 129.51 
L 90.979713 129.51 
L 91.58966 130.773532 
L 92.809554 128.301402 
L 94.029449 123.718812 
L 94.639396 126.106202 
L 95.249343 125.062363 
L 95.85929 125.149573 
L 96.469237 126.302574 
L 97.079185 126.363092 
L 97.689132 128.48046 
L 98.299079 129.51 
L 98.909026 129.51 
L 99.518973 131.46072 
L 100.12892 131.427086 
L 101.348815 133.216368 
L 101.958762 134.978404 
L 102.568709 134.890208 
L 103.178656 133.03987 
L 106.228392 132.780321 
L 106.838339 133.538655 
L 108.058234 133.425176 
L 108.668181 134.142958 
L 109.888075 134.01774 
L 111.717917 138.174231 
L 112.327864 138.063146 
L 112.937811 139.362359 
L 113.547758 137.849318 
L 114.157705 138.432728 
L 114.767652 139.679899 
L 115.3776 140.227197 
L 115.987547 140.09961 
L 116.597494 138.666903 
L 117.817388 139.734451 
L 119.037283 142.003366 
L 119.64723 141.864545 
L 120.867124 144.013162 
L 121.477071 143.259417 
L 122.696966 145.310817 
L 123.306913 145.146223 
L 124.526807 143.692515 
L 125.746701 143.408867 
L 126.356649 142.170354 
L 127.576543 141.924523 
L 128.18649 142.874293 
L 129.406384 143.671108 
L 131.846173 143.15616 
L 132.45612 143.534077 
L 133.066067 142.912476 
L 133.676015 143.777861 
L 134.285962 144.140385 
L 134.895909 143.529727 
L 136.115803 144.240418 
L 136.72575 142.702144 
L 137.335698 143.058471 
L 137.945645 142.945572 
L 138.555592 141.915601 
L 139.775486 141.713885 
L 140.385433 142.512167 
L 140.995381 142.852911 
L 141.605328 141.864545 
L 142.215275 141.767269 
L 142.825222 142.105843 
L 143.435169 141.577234 
L 144.045116 141.912064 
L 144.655064 142.666181 
L 145.265011 142.145335 
L 146.484905 143.616307 
L 147.094852 143.100001 
L 147.704799 143.000075 
L 148.314747 143.307416 
L 148.924694 142.804564 
L 149.534641 142.70892 
L 150.144588 143.408867 
L 150.754535 143.704586 
L 151.364482 142.430069 
L 151.97443 142.339719 
L 152.584377 142.636706 
L 153.194324 142.162757 
L 153.804271 140.55293 
L 154.414218 141.234212 
L 155.024165 141.154997 
L 155.634113 141.449962 
L 156.854007 142.76455 
L 157.463954 141.945831 
L 158.073901 141.864545 
L 158.683848 142.145335 
L 159.293796 142.063817 
L 159.903743 141.626957 
L 161.123637 142.177321 
L 161.733584 141.747992 
L 162.343531 141.67151 
L 162.953479 142.2866 
L 163.563426 142.550913 
L 164.173373 142.470902 
L 164.78332 142.730874 
L 165.393267 141.976864 
L 166.003214 141.901758 
L 166.613162 142.160462 
L 167.833056 142.010755 
L 169.05295 143.165025 
L 169.662897 143.085636 
L 170.272845 142.685799 
L 170.882792 142.61008 
L 171.492739 141.582155 
L 172.712633 142.073949 
L 173.32258 141.691028 
L 173.932528 141.93357 
L 174.542475 141.864545 
L 175.762369 142.950658 
L 177.592211 143.634251 
L 178.202158 143.558317 
L 178.812105 143.780495 
L 179.422052 143.704586 
L 180.031999 144.217794 
L 180.641946 144.140385 
L 181.251894 143.772708 
L 182.471788 144.201026 
L 183.081735 143.838726 
L 183.691682 144.05035 
L 184.301629 144.543469 
L 185.521524 144.391616 
L 186.131471 144.596207 
L 186.741418 145.076725 
L 187.351365 144.999283 
L 187.961312 144.64738 
L 188.57126 144.572812 
L 189.181207 144.226443 
L 190.401101 144.62333 
L 191.011048 144.55032 
L 191.620995 143.676154 
L 192.230943 143.874374 
L 192.84089 143.805978 
L 193.450837 144.001704 
L 194.060784 143.671108 
L 194.670731 144.126649 
L 195.280678 143.538757 
L 195.890626 143.21493 
L 197.11052 143.088618 
L 197.720467 143.53638 
L 198.330414 143.472333 
L 199.550309 143.849098 
L 200.160256 144.285369 
L 200.770203 143.7205 
L 201.38015 143.90525 
L 201.990097 143.59418 
L 202.600044 143.777861 
L 203.209992 144.204837 
L 205.039833 144.738326 
L 205.64978 145.153745 
L 206.259727 144.846677 
L 206.869675 144.303645 
L 207.479622 144.240418 
L 208.699516 144.586738 
L 209.309463 144.992283 
L 209.91941 144.927226 
L 211.749252 146.119429 
L 212.359199 146.050801 
L 212.969146 145.753939 
L 214.189041 146.075174 
L 214.798988 146.459834 
L 216.018882 146.771492 
L 216.628829 146.255624 
L 217.238776 145.966259 
L 217.848724 145.457699 
L 219.678565 145.925981 
L 220.288512 145.643583 
L 220.898459 146.014905 
L 221.508407 145.734355 
L 222.118354 145.671469 
L 223.948195 146.763762 
L 224.558142 146.69791 
L 225.16809 146.421162 
L 225.778037 146.778285 
L 226.387984 146.71312 
L 227.607878 147.000704 
L 228.827773 147.697361 
L 229.43772 147.630001 
L 230.047667 147.357992 
L 230.657614 147.496763 
L 231.267561 147.227231 
L 231.877508 147.162572 
L 232.487456 147.300548 
L 233.70735 146.369269 
L 234.927244 146.646953 
L 235.537191 146.982859 
L 236.757086 146.858942 
L 237.367033 147.190532 
L 238.586927 147.456601 
L 239.806822 147.33154 
L 240.416769 147.462698 
L 241.026716 147.785324 
L 241.636663 147.914014 
L 242.856557 147.787959 
L 243.466505 148.105068 
L 244.076452 148.230916 
L 244.686399 148.167458 
L 245.906293 148.416196 
L 247.736135 148.227138 
L 248.346082 148.534356 
L 248.956029 148.655457 
L 249.565976 148.959236 
L 250.785871 149.19626 
L 251.395818 149.131924 
L 252.005765 149.430194 
L 252.615712 149.365518 
L 253.835606 149.596105 
L 254.445554 149.88904 
L 256.885342 150.336239 
L 257.495289 149.742523 
L 258.105237 149.85408 
L 258.715184 149.44045 
L 259.325131 149.552248 
L 259.935078 149.837089 
L 260.545025 149.946956 
L 261.154972 149.88349 
L 261.76492 149.992537 
L 263.594761 149.804051 
L 264.814655 150.019304 
L 265.424603 149.956964 
L 266.03455 149.726534 
L 266.644497 149.833419 
L 267.254444 150.10711 
L 267.864391 150.212214 
L 268.474338 149.650873 
L 269.084286 149.756706 
L 269.694233 149.530982 
L 270.30418 149.636549 
L 270.914127 149.577001 
L 272.134021 149.785991 
L 272.743969 149.726534 
L 273.353916 149.504861 
L 275.183757 149.814431 
L 275.793704 149.434386 
L 276.403652 149.216747 
L 277.013599 149.160115 
L 277.623546 149.263115 
L 278.233493 149.524362 
L 278.84344 149.625738 
L 279.453387 149.410643 
L 280.063335 149.354268 
L 281.283229 149.555686 
L 282.503123 150.066301 
L 283.11307 150.008882 
L 283.723018 149.487199 
L 284.942912 149.684532 
L 286.162806 149.573373 
L 286.772753 149.670988 
L 287.382701 149.615756 
L 287.992648 149.712724 
L 288.602595 149.506187 
L 289.212542 149.451849 
L 289.822489 149.247143 
L 291.042384 149.140738 
L 291.652331 149.237417 
L 292.262278 148.886433 
L 292.872225 149.131924 
L 293.482172 149.0796 
L 294.092119 148.73183 
L 294.702067 148.533378 
L 295.921961 148.432996 
L 297.141855 148.6255 
L 297.751802 148.429923 
L 298.971697 148.620936 
L 300.191591 148.521921 
L 301.411485 148.71049 
L 302.021433 148.375296 
L 302.63138 148.469481 
L 303.851274 148.372744 
L 304.461221 148.466208 
L 305.071168 148.418101 
L 306.291063 148.884171 
L 306.90101 148.835376 
L 307.510957 148.926504 
L 308.730851 149.385376 
L 309.340799 149.474457 
L 309.950746 149.286493 
L 310.560693 149.513328 
L 311.17064 149.188589 
L 312.390534 149.091653 
L 313.610429 149.268193 
L 314.220376 149.219879 
L 316.050217 149.886008 
L 316.660165 149.971279 
L 317.270112 149.653284 
L 317.880059 149.604746 
L 319.099953 149.775014 
L 319.7099 149.726534 
L 320.319848 149.943651 
L 320.929795 149.762629 
L 321.539742 149.846583 
L 322.149689 149.798393 
L 322.759636 149.618995 
L 323.369583 149.571567 
L 324.589478 149.999405 
L 325.809372 150.163452 
L 326.419319 150.374496 
L 327.029266 150.325975 
L 327.639214 150.019693 
L 328.249161 150.100913 
L 328.859108 149.924961 
L 329.469055 149.877923 
L 330.688949 149.529466 
L 331.298897 149.229215 
L 331.908844 149.18419 
L 332.518791 149.012736 
L 333.738685 149.428554 
L 334.348632 149.509268 
L 334.95858 149.464127 
L 336.178474 148.874711 
L 336.788421 149.080602 
L 337.398368 149.161192 
L 338.008315 149.365518 
L 338.618263 149.445122 
L 339.22821 149.647907 
L 340.448104 149.312805 
L 341.058051 149.514546 
L 344.717734 149.979787 
L 345.327681 150.177005 
L 345.937629 150.132178 
L 346.547576 150.207873 
L 347.157523 150.403326 
L 348.377417 150.313465 
L 348.987365 150.149517 
L 350.207259 149.704929 
L 351.427153 149.618995 
L 352.647048 149.298216 
L 353.256995 149.25638 
L 353.866942 149.097428 
L 355.696783 149.323897 
L 356.306731 149.282442 
L 356.916678 148.892969 
L 357.526625 148.852583 
L 358.746519 149.003011 
L 359.966414 149.267067 
L 360.576361 149.455586 
L 361.796255 149.373678 
L 362.406202 149.446895 
L 363.016149 149.292433 
L 363.626097 148.911684 
L 364.236044 148.985398 
L 365.455938 148.90639 
L 366.675832 148.7157 
L 367.895727 148.974007 
L 368.505674 148.823281 
L 369.115621 149.007401 
L 369.725568 148.857222 
L 369.725568 148.857222 
" style="fill:none;stroke:#d62728;stroke-linecap:square;stroke-width:1.5;"/>
   </g>
   <g id="line2d_20">
    <path clip-path="url(#p67a1009715)" d="M 65.361932 240.700909 
L 65.971879 240.700909 
L 66.581826 203.637271 
L 67.191773 199.004317 
L 67.80172 207.343638 
L 68.411668 203.637271 
L 69.021615 193.047662 
L 69.631562 199.004317 
L 70.241509 191.282727 
L 71.461403 190.159586 
L 72.071351 185.105455 
L 72.681298 176.552308 
L 73.291245 173.192144 
L 73.901192 177.692726 
L 75.121086 178.564813 
L 76.340981 173.40115 
L 76.950928 176.766136 
L 77.560875 177.163247 
L 78.170822 174.997192 
L 78.780769 177.853874 
L 79.390717 175.839546 
L 80.610611 167.999158 
L 81.220558 168.63273 
L 82.440452 158.266268 
L 83.660347 156.411025 
L 84.270294 157.307725 
L 84.880241 159.834797 
L 86.100135 154.925066 
L 86.710083 155.763411 
L 87.32003 155.053855 
L 88.539924 156.594963 
L 89.149871 153.13807 
L 89.759819 152.561776 
L 90.369766 153.336622 
L 90.979713 152.782513 
L 91.58966 150.990066 
L 92.809554 154.890537 
L 94.029449 156.149488 
L 94.639396 155.605826 
L 95.249343 157.307725 
L 95.85929 156.762672 
L 96.469237 155.169439 
L 97.689132 156.278185 
L 98.299079 155.791487 
L 98.909026 156.314951 
L 99.518973 155.844689 
L 100.12892 156.349182 
L 100.738868 154.951991 
L 101.348815 152.674775 
L 101.958762 153.206424 
L 102.568709 154.617625 
L 103.788603 152.095656 
L 104.398551 151.748185 
L 105.008498 150.568889 
L 105.618445 151.914138 
L 106.228392 151.584668 
L 106.838339 152.070472 
L 108.058234 151.43497 
L 108.668181 151.902614 
L 109.278128 150.834287 
L 109.888075 150.546123 
L 110.498022 151.748185 
L 111.107969 150.724055 
L 111.717917 150.44855 
L 112.937811 148.510977 
L 113.547758 148.968407 
L 114.157705 148.041817 
L 114.767652 148.493812 
L 115.3776 147.595273 
L 115.987547 146.056269 
L 117.207441 146.964385 
L 117.817388 148.041817 
L 118.427335 147.199462 
L 119.037283 147.625378 
L 121.477071 146.846217 
L 122.087018 147.253228 
L 122.696966 147.066457 
L 123.306913 147.462698 
L 123.91686 148.423917 
L 125.136754 149.164962 
L 125.746701 148.968407 
L 126.966596 150.767084 
L 127.576543 151.100472 
L 128.18649 150.3583 
L 129.406384 149.964933 
L 130.626279 150.615687 
L 131.236226 151.442152 
L 132.45612 151.04698 
L 133.066067 151.847457 
L 133.676015 151.649783 
L 134.285962 151.943257 
L 134.895909 152.715062 
L 135.505856 152.994287 
L 136.115803 152.31839 
L 136.72575 153.067396 
L 137.335698 152.869433 
L 137.945645 152.21148 
L 138.555592 152.942799 
L 139.165539 151.839321 
L 139.775486 152.109781 
L 140.385433 152.824225 
L 140.995381 152.192948 
L 141.605328 152.01292 
L 142.215275 152.711251 
L 142.825222 152.96433 
L 143.435169 152.351544 
L 144.655064 152.851605 
L 145.874958 151.664579 
L 146.484905 151.914138 
L 147.094852 151.336361 
L 148.314747 151.017736 
L 148.924694 150.056144 
L 149.534641 150.708265 
L 150.144588 150.953963 
L 150.754535 150.801878 
L 151.364482 151.043451 
L 151.97443 151.670428 
L 152.584377 151.902614 
L 153.194324 151.748185 
L 155.024165 153.551278 
L 155.634113 152.643684 
L 156.24406 152.489454 
L 156.854007 151.969096 
L 157.463954 152.552854 
L 158.073901 151.675506 
L 158.683848 151.531574 
L 159.293796 152.106865 
L 159.903743 152.31839 
L 160.51369 151.819008 
L 161.123637 152.38155 
L 162.343531 152.790599 
L 162.953479 151.61006 
L 164.173373 152.021047 
L 164.78332 151.883784 
L 165.393267 152.085127 
L 166.003214 152.618955 
L 167.223109 151.682001 
L 167.833056 151.550802 
L 168.443003 151.748185 
L 169.05295 151.293017 
L 169.662897 151.166374 
L 170.272845 150.71983 
L 170.882792 150.917445 
L 172.102686 150.042417 
L 173.32258 149.811714 
L 173.932528 149.387704 
L 175.152422 149.16806 
L 176.372316 148.345621 
L 176.982263 148.243251 
L 178.202158 148.639617 
L 178.812105 148.24002 
L 179.422052 148.140392 
L 180.031999 148.630131 
L 180.641946 148.822105 
L 181.861841 148.041817 
L 182.471788 147.081625 
L 183.081735 146.991044 
L 183.691682 147.186505 
L 184.301629 147.096322 
L 185.521524 148.041817 
L 186.131471 147.669318 
L 187.351365 148.595005 
L 187.961312 148.775754 
L 188.57126 148.680848 
L 189.181207 149.131924 
L 189.791154 149.307403 
L 191.011048 148.578975 
L 192.230943 148.396495 
L 194.060784 148.915958 
L 194.670731 148.824855 
L 195.280678 148.994387 
L 195.890626 148.903764 
L 196.500573 149.328752 
L 197.11052 149.237417 
L 197.720467 149.401953 
L 198.330414 149.311123 
L 198.940361 148.968407 
L 199.550309 149.131924 
L 200.160256 149.043538 
L 200.770203 149.454558 
L 201.38015 149.613718 
L 201.990097 150.01855 
L 202.600044 150.173799 
L 203.209992 150.08277 
L 203.819939 149.748695 
L 204.429886 150.145872 
L 205.64978 149.967203 
L 206.259727 149.639391 
L 206.869675 150.030214 
L 207.479622 150.180103 
L 209.309463 149.214718 
L 211.139305 148.968407 
L 211.749252 148.426294 
L 212.359199 148.577865 
L 212.969146 148.041817 
L 213.579093 148.421572 
L 214.189041 148.571304 
L 215.408935 147.966794 
L 216.018882 147.892367 
L 216.628829 147.595273 
L 217.238776 147.522925 
L 217.848724 147.894156 
L 218.458671 147.600583 
L 219.068618 147.748824 
L 219.678565 147.677023 
L 220.288512 147.823797 
L 220.898459 147.752262 
L 221.508407 147.464951 
L 222.118354 147.826332 
L 222.728301 147.54096 
L 223.338248 147.68544 
L 223.948195 147.615801 
L 224.558142 147.758889 
L 225.16809 147.478115 
L 226.387984 147.342508 
L 226.997931 147.484469 
L 228.827773 147.284013 
L 229.43772 147.012277 
L 230.047667 147.152838 
L 230.657614 146.883579 
L 231.877508 147.162572 
L 232.487456 147.098385 
L 233.70735 147.372804 
L 234.317297 147.308543 
L 234.927244 147.444017 
L 235.537191 147.777082 
L 236.147139 147.514227 
L 236.757086 147.647522 
L 237.367033 147.976337 
L 237.97698 147.715554 
L 238.586927 148.041817 
L 239.806822 147.91268 
L 241.026716 147.400582 
L 242.24661 147.277617 
L 243.466505 147.535832 
L 244.686399 147.036708 
L 245.906293 146.91868 
L 246.51624 146.487139 
L 247.126188 146.616292 
L 247.736135 146.929914 
L 248.346082 147.056739 
L 249.565976 146.573951 
L 251.395818 146.406656 
L 252.005765 145.808343 
L 252.615712 145.574922 
L 253.835606 145.829957 
L 254.445554 145.241195 
L 255.665448 145.140672 
L 256.275395 145.267945 
L 257.495289 145.871959 
L 258.715184 146.118708 
L 259.325131 145.718085 
L 260.545025 145.963484 
L 261.76492 146.550092 
L 262.374867 146.154323 
L 262.984814 146.274173 
L 263.594761 146.222744 
L 264.204708 145.831605 
L 265.424603 145.732383 
L 266.03455 145.851695 
L 267.864391 145.704473 
L 268.474338 145.822443 
L 269.084286 145.773747 
L 269.694233 145.890805 
L 270.30418 145.347285 
L 270.914127 145.300428 
L 271.524074 145.417843 
L 272.743969 145.324544 
L 273.353916 145.440865 
L 273.963863 145.71859 
L 274.57381 145.833088 
L 275.183757 145.463481 
L 276.403652 145.691964 
L 277.013599 145.485708 
L 277.623546 145.758529 
L 278.84344 145.349165 
L 279.453387 144.83034 
L 280.063335 144.629444 
L 280.673282 144.586738 
L 281.283229 144.85748 
L 283.11307 144.728865 
L 283.723018 144.996201 
L 284.332965 144.953181 
L 284.942912 144.756402 
L 285.552859 144.714284 
L 286.772753 144.936214 
L 287.382701 144.589315 
L 287.992648 144.396214 
L 288.602595 144.65863 
L 289.212542 144.617465 
L 290.432436 144.836313 
L 291.042384 145.094711 
L 291.652331 145.202267 
L 294.702067 144.994147 
L 297.141855 145.415266 
L 297.751802 145.6647 
L 298.36175 145.332207 
L 298.971697 145.146223 
L 300.191591 145.06521 
L 300.801538 145.312325 
L 301.411485 145.271599 
L 302.021433 145.374002 
L 303.241327 145.861603 
L 303.851274 145.819891 
L 306.90101 146.314675 
L 308.120904 146.787787 
L 308.730851 146.466619 
L 309.950746 146.658849 
L 310.560693 146.478341 
L 311.17064 146.436339 
L 312.390534 146.62683 
L 313.000482 146.58477 
L 314.220376 146.77314 
L 314.830323 146.731031 
L 315.44027 146.824404 
L 316.050217 146.782377 
L 316.660165 146.471324 
L 317.880059 146.657515 
L 319.099953 146.575277 
L 319.7099 146.800454 
L 320.319848 146.891872 
L 321.539742 146.545188 
L 322.149689 146.768302 
L 322.759636 146.72751 
L 323.369583 146.818017 
L 323.979531 146.777299 
L 325.809372 147.045953 
L 327.029266 146.964385 
L 327.639214 147.181875 
L 328.859108 147.357039 
L 329.469055 147.315916 
L 330.688949 147.489266 
L 331.908844 147.914892 
L 332.518791 147.872965 
L 333.738685 147.537556 
L 334.348632 147.622545 
L 334.95858 147.581662 
L 335.568527 147.666179 
L 336.178474 147.875243 
L 336.788421 147.709407 
L 337.398368 147.668697 
L 338.008315 147.752262 
L 338.618263 147.711635 
L 339.22821 147.918272 
L 340.448104 147.590824 
L 341.058051 147.55091 
L 341.667998 147.388719 
L 342.277946 146.982859 
L 343.49784 147.149698 
L 344.717734 147.55733 
L 345.327681 147.638956 
L 345.937629 147.840821 
L 346.547576 147.56047 
L 347.157523 147.641566 
L 347.76747 147.362855 
L 348.987365 147.524839 
L 350.817206 147.409604 
L 352.0371 147.569674 
L 352.647048 147.295834 
L 353.866942 147.220786 
L 354.476889 147.300548 
L 355.086836 146.912782 
L 356.306731 147.072579 
L 357.526625 146.999403 
L 358.136572 147.078626 
L 359.356466 146.660564 
L 359.966414 146.739995 
L 360.576361 146.58984 
L 361.186308 146.783488 
L 361.796255 146.633855 
L 364.236044 146.494355 
L 365.455938 146.312687 
L 367.28578 146.771492 
L 367.895727 146.736764 
L 369.115621 146.77913 
L 369.725568 146.855785 
L 369.725568 146.855785 
" style="fill:none;stroke:#9467bd;stroke-linecap:square;stroke-width:1.5;"/>
   </g>
   <g id="line2d_21">
    <path clip-path="url(#p67a1009715)" d="M 65.361932 129.51 
L 65.971879 157.307725 
L 66.581826 166.573634 
L 67.191773 171.206592 
L 67.80172 151.748185 
L 68.411668 157.307725 
L 69.021615 153.336622 
L 69.631562 143.408867 
L 70.241509 141.864545 
L 70.851456 146.188637 
L 71.461403 134.564136 
L 72.071351 138.775908 
L 73.291245 137.452207 
L 73.901192 133.216368 
L 74.511139 132.984721 
L 75.731034 126.421364 
L 76.950928 132.289778 
L 77.560875 132.157402 
L 78.170822 137.091199 
L 78.780769 136.761581 
L 79.390717 138.775908 
L 80.000664 142.852911 
L 80.610611 140.201433 
L 81.220558 141.864545 
L 81.830505 141.423311 
L 82.440452 144.846677 
L 83.0504 140.629088 
L 84.880241 144.672399 
L 85.490188 144.226443 
L 86.100135 146.982859 
L 86.710083 143.408867 
L 87.32003 143.03322 
L 87.929977 145.603421 
L 89.759819 144.425856 
L 90.979713 146.317931 
L 92.199607 150.512729 
L 92.809554 147.638956 
L 94.029449 149.200054 
L 94.639396 148.798221 
L 95.85929 143.681389 
L 96.469237 145.547153 
L 97.079185 146.293533 
L 97.689132 144.953181 
L 98.299079 144.672399 
L 99.518973 146.091105 
L 100.12892 142.929591 
L 100.738868 143.644441 
L 101.348815 145.262047 
L 101.958762 144.092418 
L 102.568709 145.650617 
L 103.788603 146.883579 
L 104.398551 145.760981 
L 105.008498 145.514753 
L 105.618445 146.935439 
L 106.228392 146.679187 
L 106.838339 145.624629 
L 108.058234 146.736764 
L 108.668181 145.725342 
L 109.278128 146.264795 
L 110.498022 145.818002 
L 111.107969 144.871903 
L 112.937811 146.399756 
L 113.547758 146.188637 
L 114.157705 146.669089 
L 114.767652 145.781841 
L 115.987547 146.718116 
L 117.207441 145.025014 
L 117.817388 146.124731 
L 118.427335 144.672399 
L 119.037283 145.126705 
L 119.64723 144.953181 
L 120.257177 144.172536 
L 120.867124 144.013162 
L 121.477071 145.052817 
L 122.087018 144.887469 
L 122.696966 143.555169 
L 123.306913 143.987986 
L 124.526807 142.557913 
L 125.746701 142.296955 
L 127.576543 143.543803 
L 128.18649 144.478006 
L 128.796437 144.335457 
L 129.406384 144.720075 
L 130.016332 144.577932 
L 131.236226 145.321553 
L 131.846173 144.166986 
L 132.45612 144.535798 
L 133.066067 144.401641 
L 133.676015 145.253845 
L 134.285962 144.140385 
L 134.895909 143.529727 
L 135.505856 141.971048 
L 136.115803 141.864545 
L 136.72575 142.230995 
L 137.335698 141.189716 
L 140.995381 143.297674 
L 141.605328 144.070713 
L 142.825222 142.974526 
L 144.045116 143.622695 
L 144.655064 143.514965 
L 145.265011 142.987689 
L 146.484905 142.786528 
L 147.094852 143.511817 
L 147.704799 143.408867 
L 148.314747 142.901607 
L 148.924694 143.610301 
L 149.534641 142.70892 
L 150.144588 142.217533 
L 151.364482 142.038558 
L 151.97443 141.562165 
L 153.804271 142.456885 
L 154.414218 142.368814 
L 155.024165 142.657574 
L 155.634113 142.569337 
L 156.24406 142.111634 
L 156.854007 142.028186 
L 157.463954 142.311586 
L 158.073901 142.954651 
L 158.683848 142.145335 
L 159.293796 142.422497 
L 159.903743 141.983342 
L 161.123637 142.529191 
L 162.343531 142.366453 
L 162.953479 142.631909 
L 163.563426 141.864545 
L 164.173373 142.470902 
L 164.78332 142.052881 
L 165.393267 142.650748 
L 166.003214 142.571582 
L 166.613162 142.160462 
L 168.443003 141.937223 
L 169.662897 141.146257 
L 170.272845 141.721722 
L 170.882792 141.651537 
L 171.492739 141.899844 
L 172.102686 141.829452 
L 174.542475 142.791135 
L 175.762369 142.645189 
L 176.372316 142.269617 
L 176.982263 142.804564 
L 177.592211 142.432189 
L 178.202158 142.362717 
L 178.812105 142.591282 
L 179.422052 142.521702 
L 180.031999 141.864545 
L 180.641946 141.506917 
L 181.251894 141.444105 
L 181.861841 141.67151 
L 183.691682 141.484408 
L 184.911577 142.491679 
L 185.521524 142.145335 
L 186.131471 142.361209 
L 186.741418 142.296955 
L 187.351365 141.403553 
L 187.961312 141.89513 
L 188.57126 142.107989 
L 189.181207 142.591282 
L 189.791154 142.798673 
L 191.011048 142.670282 
L 191.620995 142.874293 
L 192.230943 142.810346 
L 192.84089 143.276491 
L 193.450837 143.474736 
L 194.060784 143.146625 
L 196.500573 142.894093 
L 197.11052 142.576213 
L 197.720467 142.771302 
L 198.330414 142.456885 
L 198.940361 142.650748 
L 200.160256 142.532364 
L 200.770203 142.224658 
L 201.38015 142.167893 
L 203.819939 142.921183 
L 204.429886 142.377074 
L 205.039833 142.321129 
L 206.259727 142.689958 
L 206.869675 142.633392 
L 207.479622 142.102132 
L 208.089569 142.521702 
L 208.699516 142.46657 
L 209.309463 142.177321 
L 211.139305 142.713924 
L 211.749252 142.659131 
L 212.359199 142.375069 
L 212.969146 142.550913 
L 213.579093 142.953169 
L 214.798988 142.843873 
L 216.018882 143.184692 
L 216.628829 143.576319 
L 217.238776 143.297674 
L 217.848724 143.464239 
L 218.458671 143.408867 
L 219.068618 143.134182 
L 219.678565 143.518303 
L 220.288512 143.681389 
L 220.898459 143.626033 
L 221.508407 144.003759 
L 222.118354 143.947583 
L 222.728301 143.247877 
L 223.948195 143.142607 
L 224.558142 143.302769 
L 225.778037 144.040633 
L 226.387984 143.985798 
L 226.997931 144.140385 
L 227.607878 143.669145 
L 228.217825 143.823756 
L 228.827773 143.563867 
L 229.43772 143.717733 
L 230.047667 143.460155 
L 231.877508 143.916127 
L 232.487456 143.863737 
L 233.70735 144.562921 
L 234.317297 144.508774 
L 235.537191 144.004529 
L 236.147139 144.150798 
L 236.757086 143.901729 
L 237.367033 143.457976 
L 237.97698 143.408867 
L 239.806822 143.844716 
L 241.636663 144.846677 
L 242.24661 144.793972 
L 242.856557 144.932031 
L 243.466505 144.879392 
L 244.076452 145.016216 
L 245.296346 144.911444 
L 245.906293 145.233971 
L 247.736135 145.076725 
L 248.956029 145.341817 
L 250.175923 145.237666 
L 250.785871 145.550658 
L 252.005765 145.446159 
L 252.615712 145.574922 
L 253.225659 145.52293 
L 254.445554 146.135012 
L 255.055501 146.081727 
L 255.665448 145.851156 
L 256.275395 145.976168 
L 256.885342 145.747403 
L 257.495289 145.871959 
L 258.105237 145.644959 
L 258.715184 145.76905 
L 259.325131 146.066641 
L 259.935078 146.014905 
L 260.545025 146.30987 
L 261.154972 146.257704 
L 261.76492 146.550092 
L 262.374867 146.497503 
L 262.984814 146.274173 
L 263.594761 146.563819 
L 264.204708 146.511669 
L 264.814655 146.79883 
L 265.424603 146.915267 
L 266.03455 146.86252 
L 266.644497 146.474174 
L 267.254444 146.423076 
L 268.474338 146.654707 
L 269.084286 146.603526 
L 269.694233 146.387197 
L 270.30418 146.667059 
L 270.914127 146.616292 
L 271.524074 146.401835 
L 273.353916 146.253661 
L 273.963863 146.529017 
L 274.57381 146.479542 
L 275.183757 146.269211 
L 275.793704 146.381455 
L 276.403652 146.332834 
L 277.623546 146.55503 
L 278.233493 146.506326 
L 278.84344 146.616292 
L 279.453387 146.883579 
L 280.063335 146.834362 
L 280.673282 146.942473 
L 281.283229 146.736764 
L 281.893176 146.844535 
L 283.11307 147.368878 
L 283.723018 147.47399 
L 284.332965 147.732959 
L 284.942912 147.682474 
L 286.162806 147.276043 
L 286.772753 147.227231 
L 287.382701 147.483326 
L 288.602595 147.688348 
L 289.212542 147.638956 
L 289.822489 147.740489 
L 290.432436 147.54096 
L 291.042384 147.492356 
L 291.652331 147.294567 
L 292.262278 147.24689 
L 292.872225 147.348117 
L 293.482172 147.152291 
L 294.092119 147.253228 
L 294.702067 147.501104 
L 295.312014 147.30643 
L 295.921961 147.406166 
L 296.531908 147.212767 
L 298.971697 147.607484 
L 299.581644 147.84928 
L 300.191591 147.657737 
L 300.801538 147.323529 
L 302.021433 147.517781 
L 302.63138 147.471612 
L 303.241327 147.56786 
L 303.851274 147.52179 
L 305.071168 147.712571 
L 306.291063 147.339857 
L 306.90101 147.294948 
L 307.510957 147.110571 
L 308.120904 147.2058 
L 308.730851 147.439535 
L 309.340799 147.256185 
L 311.780587 147.630001 
L 313.000482 148.087356 
L 313.610429 147.905556 
L 314.220376 148.13244 
L 316.050217 147.592017 
L 316.660165 147.548234 
L 317.270112 147.773246 
L 317.880059 147.595273 
L 319.099953 147.775176 
L 319.7099 147.598471 
L 320.319848 147.555301 
L 321.539742 147.733688 
L 322.759636 147.384659 
L 325.199425 147.738021 
L 326.419319 147.65304 
L 327.029266 147.740142 
L 327.639214 147.568846 
L 328.859108 147.485439 
L 329.469055 147.315916 
L 330.079002 147.274983 
L 330.688949 147.361753 
L 331.908844 147.280235 
L 332.518791 147.366401 
L 333.128738 147.199462 
L 333.738685 147.159349 
L 334.348632 147.370982 
L 334.95858 146.95417 
L 335.568527 147.165314 
L 336.178474 147.12564 
L 336.788421 147.33545 
L 337.398368 147.419942 
L 338.008315 147.37997 
L 338.618263 147.587809 
L 339.22821 147.300548 
L 341.058051 147.55091 
L 341.667998 147.388719 
L 342.277946 147.471612 
L 342.887893 147.43222 
L 343.49784 147.514658 
L 344.107787 147.475348 
L 344.717734 147.55733 
L 345.327681 147.518096 
L 345.937629 147.59963 
L 347.157523 147.521484 
L 347.76747 147.602488 
L 348.377417 147.563577 
L 348.987365 147.763445 
L 350.207259 147.923027 
L 350.817206 148.12085 
L 351.427153 147.844674 
L 352.647048 148.238131 
L 353.256995 148.316071 
L 353.866942 148.276397 
L 354.476889 148.002806 
L 355.086836 148.080753 
L 355.696783 147.925264 
L 356.306731 147.886742 
L 356.916678 148.080505 
L 357.526625 147.925993 
L 358.136572 148.003294 
L 358.746519 147.964921 
L 359.966414 147.544067 
L 360.576361 147.277617 
L 361.186308 147.241058 
L 361.796255 147.318815 
L 362.406202 147.282322 
L 363.016149 147.359665 
L 363.626097 147.550156 
L 365.455938 147.44038 
L 366.065885 147.629164 
L 366.675832 147.592564 
L 367.28578 147.444017 
L 368.505674 147.706905 
L 369.115621 147.559029 
L 369.725568 147.634118 
L 369.725568 147.634118 
" style="fill:none;stroke:#8c564b;stroke-linecap:square;stroke-width:1.5;"/>
   </g>
   <g id="line2d_22">
    <path clip-path="url(#p67a1009715)" d="M 50.14375 147.856501 
L 384.94375 147.856501 
" style="fill:none;stroke:#000000;stroke-dasharray:5.55,2.4;stroke-dashoffset:0;stroke-width:1.5;"/>
   </g>
   <g id="patch_3">
    <path d="M 50.14375 251.82 
L 50.14375 7.2 
" style="fill:none;stroke:#000000;stroke-linecap:square;stroke-linejoin:miter;stroke-width:0.8;"/>
   </g>
   <g id="patch_4">
    <path d="M 384.94375 251.82 
L 384.94375 7.2 
" style="fill:none;stroke:#000000;stroke-linecap:square;stroke-linejoin:miter;stroke-width:0.8;"/>
   </g>
   <g id="patch_5">
    <path d="M 50.14375 251.82 
L 384.94375 251.82 
" style="fill:none;stroke:#000000;stroke-linecap:square;stroke-linejoin:miter;stroke-width:0.8;"/>
   </g>
   <g id="patch_6">
    <path d="M 50.14375 7.2 
L 384.94375 7.2 
" style="fill:none;stroke:#000000;stroke-linecap:square;stroke-linejoin:miter;stroke-width:0.8;"/>
   </g>
   <g id="legend_1">
    <g id="patch_7">
     <path d="M 302.089063 103.26875 
L 377.94375 103.26875 
Q 379.94375 103.26875 379.94375 101.26875 
L 379.94375 14.2 
Q 379.94375 12.2 377.94375 12.2 
L 302.089063 12.2 
Q 300.089063 12.2 300.089063 14.2 
L 300.089063 101.26875 
Q 300.089063 103.26875 302.089063 103.26875 
z
" style="fill:#ffffff;opacity:0.8;stroke:#cccccc;stroke-linejoin:miter;"/>
    </g>
    <g id="line2d_23">
     <path d="M 304.089063 20.298437 
L 324.089063 20.298437 
" style="fill:none;stroke:#1f77b4;stroke-linecap:square;stroke-width:1.5;"/>
    </g>
    <g id="line2d_24"/>
    <g id="text_18">
     <!-- P(die=1) -->
     <g transform="translate(332.089063 23.798437)scale(0.1 -0.1)">
      <defs>
       <path d="M 19.671875 64.796875 
L 19.671875 37.40625 
L 32.078125 37.40625 
Q 38.96875 37.40625 42.71875 40.96875 
Q 46.484375 44.53125 46.484375 51.125 
Q 46.484375 57.671875 42.71875 61.234375 
Q 38.96875 64.796875 32.078125 64.796875 
z
M 9.8125 72.90625 
L 32.078125 72.90625 
Q 44.34375 72.90625 50.609375 67.359375 
Q 56.890625 61.8125 56.890625 51.125 
Q 56.890625 40.328125 50.609375 34.8125 
Q 44.34375 29.296875 32.078125 29.296875 
L 19.671875 29.296875 
L 19.671875 0 
L 9.8125 0 
z
" id="DejaVuSans-80"/>
       <path d="M 31 75.875 
Q 24.46875 64.65625 21.28125 53.65625 
Q 18.109375 42.671875 18.109375 31.390625 
Q 18.109375 20.125 21.3125 9.0625 
Q 24.515625 -2 31 -13.1875 
L 23.1875 -13.1875 
Q 15.875 -1.703125 12.234375 9.375 
Q 8.59375 20.453125 8.59375 31.390625 
Q 8.59375 42.28125 12.203125 53.3125 
Q 15.828125 64.359375 23.1875 75.875 
z
" id="DejaVuSans-40"/>
       <path d="M 10.59375 45.40625 
L 73.1875 45.40625 
L 73.1875 37.203125 
L 10.59375 37.203125 
z
M 10.59375 25.484375 
L 73.1875 25.484375 
L 73.1875 17.1875 
L 10.59375 17.1875 
z
" id="DejaVuSans-61"/>
       <path d="M 8.015625 75.875 
L 15.828125 75.875 
Q 23.140625 64.359375 26.78125 53.3125 
Q 30.421875 42.28125 30.421875 31.390625 
Q 30.421875 20.453125 26.78125 9.375 
Q 23.140625 -1.703125 15.828125 -13.1875 
L 8.015625 -13.1875 
Q 14.5 -2 17.703125 9.0625 
Q 20.90625 20.125 20.90625 31.390625 
Q 20.90625 42.671875 17.703125 53.65625 
Q 14.5 64.65625 8.015625 75.875 
z
" id="DejaVuSans-41"/>
      </defs>
      <use xlink:href="#DejaVuSans-80"/>
      <use x="60.302734" xlink:href="#DejaVuSans-40"/>
      <use x="99.316406" xlink:href="#DejaVuSans-100"/>
      <use x="162.792969" xlink:href="#DejaVuSans-105"/>
      <use x="190.576172" xlink:href="#DejaVuSans-101"/>
      <use x="252.099609" xlink:href="#DejaVuSans-61"/>
      <use x="335.888672" xlink:href="#DejaVuSans-49"/>
      <use x="399.511719" xlink:href="#DejaVuSans-41"/>
     </g>
    </g>
    <g id="line2d_25">
     <path d="M 304.089063 34.976562 
L 324.089063 34.976562 
" style="fill:none;stroke:#ff7f0e;stroke-linecap:square;stroke-width:1.5;"/>
    </g>
    <g id="line2d_26"/>
    <g id="text_19">
     <!-- P(die=2) -->
     <g transform="translate(332.089063 38.476562)scale(0.1 -0.1)">
      <use xlink:href="#DejaVuSans-80"/>
      <use x="60.302734" xlink:href="#DejaVuSans-40"/>
      <use x="99.316406" xlink:href="#DejaVuSans-100"/>
      <use x="162.792969" xlink:href="#DejaVuSans-105"/>
      <use x="190.576172" xlink:href="#DejaVuSans-101"/>
      <use x="252.099609" xlink:href="#DejaVuSans-61"/>
      <use x="335.888672" xlink:href="#DejaVuSans-50"/>
      <use x="399.511719" xlink:href="#DejaVuSans-41"/>
     </g>
    </g>
    <g id="line2d_27">
     <path d="M 304.089063 49.654687 
L 324.089063 49.654687 
" style="fill:none;stroke:#2ca02c;stroke-linecap:square;stroke-width:1.5;"/>
    </g>
    <g id="line2d_28"/>
    <g id="text_20">
     <!-- P(die=3) -->
     <g transform="translate(332.089063 53.154687)scale(0.1 -0.1)">
      <use xlink:href="#DejaVuSans-80"/>
      <use x="60.302734" xlink:href="#DejaVuSans-40"/>
      <use x="99.316406" xlink:href="#DejaVuSans-100"/>
      <use x="162.792969" xlink:href="#DejaVuSans-105"/>
      <use x="190.576172" xlink:href="#DejaVuSans-101"/>
      <use x="252.099609" xlink:href="#DejaVuSans-61"/>
      <use x="335.888672" xlink:href="#DejaVuSans-51"/>
      <use x="399.511719" xlink:href="#DejaVuSans-41"/>
     </g>
    </g>
    <g id="line2d_29">
     <path d="M 304.089063 64.332812 
L 324.089063 64.332812 
" style="fill:none;stroke:#d62728;stroke-linecap:square;stroke-width:1.5;"/>
    </g>
    <g id="line2d_30"/>
    <g id="text_21">
     <!-- P(die=4) -->
     <g transform="translate(332.089063 67.832812)scale(0.1 -0.1)">
      <use xlink:href="#DejaVuSans-80"/>
      <use x="60.302734" xlink:href="#DejaVuSans-40"/>
      <use x="99.316406" xlink:href="#DejaVuSans-100"/>
      <use x="162.792969" xlink:href="#DejaVuSans-105"/>
      <use x="190.576172" xlink:href="#DejaVuSans-101"/>
      <use x="252.099609" xlink:href="#DejaVuSans-61"/>
      <use x="335.888672" xlink:href="#DejaVuSans-52"/>
      <use x="399.511719" xlink:href="#DejaVuSans-41"/>
     </g>
    </g>
    <g id="line2d_31">
     <path d="M 304.089063 79.010937 
L 324.089063 79.010937 
" style="fill:none;stroke:#9467bd;stroke-linecap:square;stroke-width:1.5;"/>
    </g>
    <g id="line2d_32"/>
    <g id="text_22">
     <!-- P(die=5) -->
     <g transform="translate(332.089063 82.510937)scale(0.1 -0.1)">
      <use xlink:href="#DejaVuSans-80"/>
      <use x="60.302734" xlink:href="#DejaVuSans-40"/>
      <use x="99.316406" xlink:href="#DejaVuSans-100"/>
      <use x="162.792969" xlink:href="#DejaVuSans-105"/>
      <use x="190.576172" xlink:href="#DejaVuSans-101"/>
      <use x="252.099609" xlink:href="#DejaVuSans-61"/>
      <use x="335.888672" xlink:href="#DejaVuSans-53"/>
      <use x="399.511719" xlink:href="#DejaVuSans-41"/>
     </g>
    </g>
    <g id="line2d_33">
     <path d="M 304.089063 93.689062 
L 324.089063 93.689062 
" style="fill:none;stroke:#8c564b;stroke-linecap:square;stroke-width:1.5;"/>
    </g>
    <g id="line2d_34"/>
    <g id="text_23">
     <!-- P(die=6) -->
     <g transform="translate(332.089063 97.189062)scale(0.1 -0.1)">
      <defs>
       <path d="M 33.015625 40.375 
Q 26.375 40.375 22.484375 35.828125 
Q 18.609375 31.296875 18.609375 23.390625 
Q 18.609375 15.53125 22.484375 10.953125 
Q 26.375 6.390625 33.015625 6.390625 
Q 39.65625 6.390625 43.53125 10.953125 
Q 47.40625 15.53125 47.40625 23.390625 
Q 47.40625 31.296875 43.53125 35.828125 
Q 39.65625 40.375 33.015625 40.375 
z
M 52.59375 71.296875 
L 52.59375 62.3125 
Q 48.875 64.0625 45.09375 64.984375 
Q 41.3125 65.921875 37.59375 65.921875 
Q 27.828125 65.921875 22.671875 59.328125 
Q 17.53125 52.734375 16.796875 39.40625 
Q 19.671875 43.65625 24.015625 45.921875 
Q 28.375 48.1875 33.59375 48.1875 
Q 44.578125 48.1875 50.953125 41.515625 
Q 57.328125 34.859375 57.328125 23.390625 
Q 57.328125 12.15625 50.6875 5.359375 
Q 44.046875 -1.421875 33.015625 -1.421875 
Q 20.359375 -1.421875 13.671875 8.265625 
Q 6.984375 17.96875 6.984375 36.375 
Q 6.984375 53.65625 15.1875 63.9375 
Q 23.390625 74.21875 37.203125 74.21875 
Q 40.921875 74.21875 44.703125 73.484375 
Q 48.484375 72.75 52.59375 71.296875 
z
" id="DejaVuSans-54"/>
      </defs>
      <use xlink:href="#DejaVuSans-80"/>
      <use x="60.302734" xlink:href="#DejaVuSans-40"/>
      <use x="99.316406" xlink:href="#DejaVuSans-100"/>
      <use x="162.792969" xlink:href="#DejaVuSans-105"/>
      <use x="190.576172" xlink:href="#DejaVuSans-101"/>
      <use x="252.099609" xlink:href="#DejaVuSans-61"/>
      <use x="335.888672" xlink:href="#DejaVuSans-54"/>
      <use x="399.511719" xlink:href="#DejaVuSans-41"/>
     </g>
    </g>
   </g>
  </g>
 </g>
 <defs>
  <clipPath id="p67a1009715">
   <rect height="244.62" width="334.8" x="50.14375" y="7.2"/>
  </clipPath>
 </defs>
</svg>
